<?xml version="1.0" standalone="no"?>
<!DOCTYPE svg PUBLIC "-//W3C//DTD SVG 1.1//EN" "http://www.w3.org/Graphics/SVG/1.1/DTD/svg11.dtd" >
<svg xmlns="http://www.w3.org/2000/svg">
<metadata></metadata>
<defs>
<font id="halis_grblack" horiz-adv-x="1202" >
<font-face units-per-em="2048" ascent="1638" descent="-410" />
<missing-glyph horiz-adv-x="614" />
<glyph unicode="&#xfb01;" horiz-adv-x="1239" d="M1075 1024v-1024h-311v748h-330v-748h-311v748h-103v276h103v72q0 174 105.5 265t269.5 91q136 0 311 -84l-94 -246q-107 45 -201 45q-34 0 -57 -19t-23 -58v-66h641z" />
<glyph unicode="&#xfb02;" horiz-adv-x="1284" d="M1120 1434v-1436h-311v1092q-34 55 -94 84.5t-123 29.5q-68 0 -113 -27t-45 -83v-70h215v-276h-215v-748h-311v748h-103v276h103v72q7 95 41 166t89.5 113t123.5 62.5t149 20.5q87 0 181.5 -28.5t158.5 -100.5l27 105h227z" />
<glyph unicode="&#xfb03;" horiz-adv-x="1894" d="M1448 1368l-94 -246q-107 45 -201 45q-34 0 -57 -19t-23 -58v-66h658v-1024h-312v748h-346v-748h-311v748h-328v-748h-311v748h-103v276h103v72q7 95 41 166t89.5 113t123.5 62.5t149 20.5q207 0 363 -80q100 74 248 74q136 0 311 -84zM434 1024h328v72q0 31 4 67 q-80 41 -174 41q-68 0 -113 -27t-45 -83v-70z" />
<glyph unicode="&#xfb04;" horiz-adv-x="1943" d="M866 1329q106 129 320 129q87 0 181.5 -28.5t158.5 -100.5l26 105h228v-1434h-312v1090q-34 55 -94 84.5t-123 29.5q-68 0 -112.5 -27t-44.5 -83v-70h215v-276h-215v-748h-312v748h-348v-748h-311v748h-103v276h103v72q7 95 41 166t89.5 113t123.5 62.5t149 20.5 q87 0 181.5 -28.5t158.5 -100.5zM782 1024q0 35 0.5 57t1 30t0.5 9q-36 40 -87.5 62t-104.5 22q-68 0 -113 -27t-45 -83v-70h348z" />
<glyph horiz-adv-x="0" />
<glyph horiz-adv-x="682" />
<glyph unicode=" "  horiz-adv-x="614" />
<glyph unicode="&#x09;" horiz-adv-x="614" />
<glyph unicode="&#xa0;" horiz-adv-x="614" />
<glyph unicode="!" horiz-adv-x="724" d="M516 1438v-566l-37 -417h-237l-37 417v566h311zM207 139q0 66 45.5 112t112.5 46q66 0 110.5 -46t44.5 -112q0 -67 -44.5 -111t-110.5 -44q-68 0 -113 44t-45 111z" />
<glyph unicode="&#x22;" horiz-adv-x="905" d="M823 1438l-49 -523h-201l-49 523h299zM381 1438l-49 -523h-201l-49 523h299z" />
<glyph unicode="#" horiz-adv-x="1179" d="M123 817h160v207h245v-207h123v207h246v-207h160v-244h-160v-122h160v-242h-160v-209h-246v209h-123v-209h-245v209h-160v242h160v122h-160v244zM528 573v-122h123v122h-123z" />
<glyph unicode="$" horiz-adv-x="1343" d="M492 1042q1 -14 7 -27t18 -25t23.5 -22t32.5 -20.5t36.5 -18t44 -18t46 -17t51.5 -18.5t52 -18q71 -25 121.5 -46.5t110.5 -59.5t97.5 -80t63 -105t25.5 -139q0 -169 -121.5 -291t-317.5 -147v-189h-221v191q-211 22 -438 147l145 275q255 -123 410 -123q81 0 138.5 35 t57.5 88q0 26 -13.5 48.5t-33 38.5t-55 32.5t-65 26.5t-78.5 26q-173 57 -246 96q-190 101 -216 281q-5 31 -5 65q0 179 109 291t290 133v184h221v-194q188 -30 389 -123l-120 -279q-266 107 -396 107q-72 0 -118 -25t-45 -80z" />
<glyph unicode="%" horiz-adv-x="1755" d="M387 1446q71 0 128.5 -22t92.5 -57t58.5 -81t33 -90t9.5 -88t-9.5 -87.5t-33 -89t-59 -79.5t-92.5 -56t-128 -22q-72 0 -130 22t-94 56t-59.5 79.5t-33 89t-9.5 87.5t9.5 88t33 90t59.5 81t94 57t130 22zM387 1012q23 0 39 10.5t23 27.5t9.5 31t2.5 27q0 14 -2.5 28 t-9.5 31.5t-23 28t-39 10.5q-32 0 -51 -20t-23 -39t-4 -39q0 -19 4 -37.5t23 -38.5t51 -20zM1243 1434l-475 -1434h-250l477 1434h248zM1372 662q71 0 128.5 -22t92.5 -57t58.5 -81t33 -90t9.5 -88t-9.5 -87.5t-33 -89t-59 -79.5t-92.5 -56t-128 -22q-72 0 -129.5 22 t-92.5 56t-59 79.5t-33 89t-9 87.5t9 88t33 90t59 81t92.5 57t129.5 22zM1372 227q30 0 48.5 20t23 39t4.5 38q0 14 -3 28t-10 31t-23.5 28t-39.5 11q-24 0 -40.5 -11t-24 -28t-10.5 -31t-3 -28q0 -19 4.5 -38t23.5 -39t50 -20z" />
<glyph unicode="&#x26;" horiz-adv-x="1497" d="M543 1090q0 -76 82 -154q92 70 92 156q0 36 -23 64t-61 28q-48 0 -69 -30t-21 -64zM467 422q0 -74 53 -119t125 -45q102 0 172 49q-199 209 -242 256q-50 -24 -78 -62.5t-30 -78.5zM1008 1094q0 -200 -193 -363q19 -20 74.5 -81t93.5 -101q39 102 57 219l267 -51 q-22 -223 -111 -398q31 -34 97.5 -104.5t80.5 -85.5l-207 -188l-149 153q-150 -121 -385 -121q-102 1 -190.5 38.5t-149 98t-95 139t-34.5 161.5q0 131 60.5 228.5t152.5 143.5q-125 140 -125 305q0 67 23.5 130.5t69 117t122 86.5t172.5 33q91 0 163.5 -31t116 -82.5 t66.5 -114.5t23 -132z" />
<glyph unicode="'" horiz-adv-x="462" d="M381 1438l-49 -523h-201l-49 523h299z" />
<glyph unicode="(" horiz-adv-x="681" d="M61 606q0 531 351 1030l209 -127q-261 -480 -261 -901q0 -435 261 -915l-209 -125q-351 493 -351 1038z" />
<glyph unicode=")" horiz-adv-x="681" d="M621 606q0 -545 -351 -1038l-209 125q261 480 261 915q0 421 -261 901l209 127q351 -499 351 -1030z" />
<glyph unicode="*" horiz-adv-x="991" d="M774 788l-174 91l-10 -197h-189l-10 197l-174 -91l-94 164l164 105l-164 106l94 164l174 -90l10 197h189l10 -197l174 90l94 -164l-163 -106l163 -105z" />
<glyph unicode="+" horiz-adv-x="1142" d="M449 287v284h-285v244h285v285h245v-285h285v-244h-285v-284h-245z" />
<glyph unicode="," horiz-adv-x="694" d="M305 -356l-137 77q37 63 73.5 145t43.5 126q-52 11 -86.5 57t-34.5 107q0 73 53.5 125.5t124.5 52.5q97 0 142.5 -57t45.5 -138q0 -95 -75.5 -253t-149.5 -242z" />
<glyph unicode="-" horiz-adv-x="913" d="M164 729h586v-248h-586v248z" />
<glyph unicode="." horiz-adv-x="686" d="M164 166q0 74 53.5 127t126.5 53q74 0 126 -52.5t52 -127.5q0 -74 -52 -126t-126 -52q-73 0 -126.5 52.5t-53.5 125.5z" />
<glyph unicode="/" horiz-adv-x="847" d="M786 1434l-475 -1434h-250l478 1434h247z" />
<glyph unicode="0" horiz-adv-x="1320" d="M659 1399q99 0 182.5 -31.5t141 -87t100.5 -124.5t67.5 -149t36 -155.5t11.5 -149.5q0 -76 -11.5 -153.5t-36 -159.5t-67.5 -152.5t-100.5 -127t-141 -89t-182.5 -32.5q-118 0 -213 47t-154 120.5t-98.5 170.5t-55 190t-15.5 186q0 90 15.5 181t55 185.5t98.5 166.5 t154 118t213 46zM659 272q47 0 85 24.5t61 65.5t39.5 87t24.5 97.5t11 88.5t3 67q0 38 -4 82t-18.5 105t-37.5 108.5t-65.5 81t-98.5 33.5t-99 -33.5t-66 -81t-37.5 -108.5t-18.5 -105t-4 -82t4 -84t18.5 -110t37.5 -114t66 -86t99 -36z" />
<glyph unicode="1" horiz-adv-x="880" d="M696 1389v-1389h-311v924l-166 -93l-137 220l487 338h127z" />
<glyph unicode="2" horiz-adv-x="1105" d="M256 948l-190 201q235 252 481 252q123 0 219.5 -41.5t156.5 -130.5t60 -215q0 -125 -80 -264q-61 -102 -303 -455h348v-295h-880l-7 18q574 852 576 856q41 69 41 127q0 48 -30.5 81.5t-98.5 33.5q-119 0 -293 -168z" />
<glyph unicode="3" horiz-adv-x="1132" d="M1010 989q0 -87 -39.5 -169t-112.5 -126q72 -34 112 -121.5t40 -173.5q0 -51 -11 -102.5t-43.5 -110t-82 -103t-134.5 -74t-194 -29.5q-248 0 -463 202l180 215q59 -58 142 -99.5t141 -41.5q68 0 116 37.5t48 105.5q0 72 -48.5 114t-115.5 42h-189v276h189q67 0 115.5 43 t48.5 115q0 68 -48 106t-116 38q-58 0 -140.5 -40.5t-140.5 -95.5l-180 213q212 199 461 199q109 0 194 -29.5t134.5 -74t82 -103.5t43.5 -110.5t11 -102.5z" />
<glyph unicode="4" horiz-adv-x="1136" d="M903 260v-260h-317v260h-525v182l596 949h246v-842h172v-289h-172zM586 776l-148 -227h148v227z" />
<glyph unicode="5" horiz-adv-x="1187" d="M123 229l211 189q60 -74 125.5 -109t120.5 -35q82 0 130 53.5t48 125.5q0 71 -47.5 122.5t-132.5 51.5h-359v764h762v-287h-438v-201h35q113 0 201 -30.5t140.5 -77.5t86.5 -110.5t46.5 -122t12.5 -118.5q0 -50 -12.5 -105.5t-47 -119.5t-86.5 -114t-140.5 -83.5 t-200.5 -33.5q-265 0 -455 241z" />
<glyph unicode="6" d="M731 1415l154 -233q-166 -92 -320 -273q34 6 74 6q87 -5 157.5 -29t117 -61.5t80 -82.5t51.5 -98t26 -101t8 -97t-11.5 -103t-45 -119.5t-84 -116t-138 -85t-198.5 -34.5t-199 36t-139 89.5t-84.5 121t-45 123.5t-11.5 105q0 118 25 229t70.5 202t103 171t127.5 145 t139 115t143 90zM602 276q80 0 126 53t46 126q0 72 -44.5 124t-127.5 52q-82 0 -126.5 -50.5t-47.5 -125.5q0 -73 46 -126t128 -53z" />
<glyph unicode="7" horiz-adv-x="1026" d="M61 1104v287h895l9 -17l-543 -1374h-326l430 1104h-465z" />
<glyph unicode="8" horiz-adv-x="1177" d="M1053 981q-2 -71 -40 -153.5t-120 -133.5q83 -47 121.5 -126t38.5 -158q0 -50 -11 -102t-43 -111t-81.5 -104t-134.5 -75t-193 -30q-91 0 -165.5 20.5t-123.5 55.5t-84.5 77.5t-54 91.5t-27 91.5t-8.5 83.5q0 76 43.5 164.5t108.5 123.5q-73 37 -114.5 113t-41.5 172 q0 41 8.5 84t28 91.5t55.5 90t85 76t124 54.5t166 20q108 0 193.5 -29.5t135.5 -74.5t82 -102.5t43 -109.5t9 -100zM590 264q65 0 112.5 39.5t47.5 104.5q0 68 -47 106.5t-113 38.5t-114 -38.5t-48 -106.5t48 -106t114 -38zM590 836q66 0 113 38.5t47 106.5q0 67 -47 103 t-113 36q-67 0 -114.5 -36t-47.5 -103q0 -68 48 -106.5t114 -38.5z" />
<glyph unicode="9" d="M471 -25l-154 234q167 92 320 272q-35 -6 -74 -6q-87 5 -157.5 29t-117 61.5t-80 82.5t-51.5 98t-26 101t-8 97t11.5 103.5t45 119.5t84 116t138 85.5t198.5 34.5t199 -36t139 -89.5t84.5 -121t45 -123.5t11.5 -105q0 -141 -37 -272t-96 -231.5t-140 -189t-163 -150 t-172 -110.5zM600 1114q-80 0 -126 -52.5t-46 -125.5q0 -72 44.5 -124t127.5 -52q82 0 126.5 50.5t47.5 125.5q0 73 -46 125.5t-128 52.5z" />
<glyph unicode=":" horiz-adv-x="686" d="M164 166q0 74 53.5 127t126.5 53q74 0 126 -52.5t52 -127.5q0 -74 -52 -126t-126 -52q-73 0 -126.5 52.5t-53.5 125.5zM164 856q0 74 53.5 127t126.5 53q74 0 126 -52.5t52 -127.5q0 -74 -52 -126t-126 -52q-73 0 -126.5 52.5t-53.5 125.5z" />
<glyph unicode=";" horiz-adv-x="694" d="M305 -356l-137 77q37 63 73.5 145t43.5 126q-52 11 -86.5 57t-34.5 107q0 73 53.5 125.5t124.5 52.5q97 0 142.5 -57t45.5 -138q0 -95 -75.5 -253t-149.5 -242zM164 854q0 74 53.5 127t126.5 53q74 0 126 -52.5t52 -127.5q0 -74 -52 -126t-126 -52q-73 0 -126.5 52.5 t-53.5 125.5z" />
<glyph unicode="&#x3c;" horiz-adv-x="923" d="M506 598l356 -225l-133 -238l-668 406v114l668 404l133 -236z" />
<glyph unicode="=" horiz-adv-x="1044" d="M881 788h-717v242h717v-242zM881 360h-717v238h717v-238z" />
<glyph unicode="&#x3e;" horiz-adv-x="923" d="M61 373l357 225l-357 225l134 236l667 -404v-114l-667 -406z" />
<glyph unicode="?" horiz-adv-x="1187" d="M758 596v-166h-295v170q0 64 25.5 121t61.5 99.5t72 82.5t61.5 87.5t25.5 96.5q0 18 -5.5 36t-27.5 36.5t-58 18.5q-66 0 -118.5 -32.5t-147.5 -125.5l-188 176q115 143 224.5 201.5t250.5 58.5q171 0 278 -96t107 -270q0 -68 -27.5 -136.5t-66.5 -121t-78 -98 t-66.5 -81.5t-27.5 -57zM442 147q0 72 49.5 121t122.5 49q71 0 121.5 -49.5t50.5 -120.5q0 -73 -50.5 -122.5t-121.5 -49.5q-75 0 -123.5 47t-48.5 125z" />
<glyph unicode="@" horiz-adv-x="2347" d="M1188 1495q234 0 429.5 -75.5t328 -207.5t205.5 -312.5t73 -389.5q0 -98 -16.5 -193.5t-56.5 -189.5t-98.5 -165t-150 -115t-204.5 -44q-82 0 -148 36.5t-104 103.5q-123 -97 -289 -97q-115 0 -208 36t-150.5 92.5t-96 131t-54 146.5t-15.5 145q0 60 11.5 120.5t35 124 t65.5 117.5t97.5 97t136.5 67.5t178 24.5q166 0 281 -88l24 72h189v-789q2 -44 18.5 -69t61.5 -25q97 0 159 129.5t62 321.5q0 157 -52 291.5t-148 233.5t-242.5 155.5t-327.5 56.5q-369 0 -581.5 -233t-207.5 -629q2 -120 42.5 -240t122 -236.5t220.5 -215.5t320 -160 l-111 -213q-283 95 -478.5 259t-289 367t-94.5 439q-1 239 73.5 445t211 355.5t337.5 234.5t441 85zM1376 195v405q-35 46 -89.5 77.5t-119.5 31.5q-54 0 -98 -17.5t-71 -46.5t-46.5 -62.5t-29 -71t-13.5 -65t-4 -51.5q0 -29 5.5 -63t22.5 -79.5t44 -81t76.5 -60.5 t113.5 -25q137 0 209 109z" />
<glyph unicode="A" horiz-adv-x="1511" d="M770 1446l680 -1446h-367l-125 299h-405l-125 -299h-367l680 1446h29zM756 786l-97 -229h191z" />
<glyph unicode="B" horiz-adv-x="1394" d="M1272 995q0 -77 -53 -160t-132 -116q81 -31 133 -109.5t52 -173.5q0 -62 -15.5 -120.5t-53 -117t-95 -101.5t-148.5 -70t-206 -27h-549v1434h549q114 0 205.5 -27t149 -71t95 -102.5t53 -117.5t15.5 -121zM778 846q49 1 84 18.5t50.5 43.5t21.5 47t6 40q0 16 -6.5 35.5 t-22.5 43.5t-51.5 40t-85.5 16h-244v-284h248zM774 305q50 0 85.5 15t51.5 38.5t22.5 42.5t6.5 35q0 20 -6 39.5t-21.5 43t-50 38.5t-84.5 16h-248v-268h244z" />
<glyph unicode="C" horiz-adv-x="1533" d="M1411 1167l-219 -211q-64 77 -166 133t-190 56q-68 0 -125 -18.5t-95.5 -47.5t-68 -68.5t-46 -79t-27 -82t-14 -73.5t-3.5 -57t3.5 -57t14 -73.5t27 -81.5t46.5 -78.5t68.5 -68.5t95.5 -47t126 -18q91 0 193.5 49t180.5 121l189 -225q-258 -258 -565 -258 q-113 0 -210.5 25t-169.5 67.5t-129.5 101t-95 124t-62.5 139t-35.5 142.5t-10.5 138q0 67 10.5 135t35.5 141t62.5 139t95.5 125t129.5 102t169 68t210.5 25q175 0 313 -73.5t262 -213.5z" />
<glyph unicode="D" horiz-adv-x="1554" d="M721 0h-516v1434h516q113 0 210.5 -24t169 -65t129 -98t94.5 -120.5t62 -135t35.5 -138.5t10.5 -134q0 -98 -21 -193t-73 -192t-130.5 -169.5t-204 -118.5t-282.5 -46zM530 305h191q68 0 125 17.5t95.5 45.5t68 66.5t46 76.5t27 79.5t14 72t3.5 56.5q0 32 -5.5 68 t-18.5 85t-41 92.5t-67.5 82t-103.5 61t-143 22.5h-191v-825z" />
<glyph unicode="E" horiz-adv-x="1318" d="M1051 555h-519v-250h664v-305h-991v1434h991v-306h-664v-268h519v-305z" />
<glyph unicode="F" horiz-adv-x="1316" d="M1051 555h-521v-555h-325v1434h989v-306h-664v-268h521v-305z" />
<glyph unicode="G" horiz-adv-x="1503" d="M1040 485h-272v301h602v-583q-221 -221 -534 -221q-113 0 -210.5 25t-169.5 67.5t-129.5 101t-95 124t-62.5 139t-35.5 142.5t-10.5 138q0 67 10.5 135t35.5 141t62.5 139t95.5 125t129.5 102t169 68t210.5 25q167 0 299 -64t245 -186l-202 -221q-65 67 -162.5 114.5 t-179.5 47.5q-68 0 -125 -18t-95.5 -47t-68 -68t-46 -78t-27 -81t-14 -73t-3.5 -57q0 -27 3.5 -58t14 -75t27 -84.5t46 -81.5t68 -71t95.5 -49t125 -19q53 0 111 16.5t93 42.5v141z" />
<glyph unicode="H" horiz-adv-x="1595" d="M535 555v-555h-330v1434h330v-574h530v574h326v-1434h-326v555h-530z" />
<glyph unicode="I" horiz-adv-x="737" d="M532 1434v-1434h-327v1434h327z" />
<glyph unicode="J" horiz-adv-x="1312" d="M41 446l291 107q81 -252 237 -252q47 0 84 14t58.5 39.5t35.5 51.5t20 60t7.5 54.5t1.5 44.5v869h332v-869q0 -78 -13.5 -152t-50.5 -153.5t-94.5 -137.5t-154 -96t-220.5 -38q-119 0 -213.5 36t-157 101t-102 144t-61.5 177z" />
<glyph unicode="K" horiz-adv-x="1525" d="M535 0h-330v1434h330v-545l475 545h385l6 -21l-608 -674l651 -719l-8 -20h-381l-520 590v-590z" />
<glyph unicode="L" horiz-adv-x="1175" d="M535 1434v-1129h518v-305h-848v1434h330z" />
<glyph unicode="M" horiz-adv-x="2072" d="M1049 -12h-25l-377 706l-237 -694h-349l541 1442h25l409 -817l410 817h24l541 -1442h-348l-238 694z" />
<glyph unicode="N" horiz-adv-x="1597" d="M205 1446l18 6l842 -743v725h328v-1438l-17 -8l-841 749v-737h-330v1446z" />
<glyph unicode="O" horiz-adv-x="1669" d="M836 1458q156 0 281.5 -48.5t203.5 -125t130.5 -176.5t73.5 -196.5t21 -192.5q0 -69 -10.5 -138t-35.5 -143t-62 -140t-94.5 -125.5t-129 -102.5t-168.5 -68t-210 -25t-210.5 25t-169.5 68t-129.5 102.5t-95 125.5t-62.5 140t-35.5 143t-10.5 138q0 67 10.5 135.5 t35.5 142t62.5 139.5t95.5 125.5t129.5 102.5t169 68.5t210.5 25.5zM836 285q68 0 124.5 18.5t94.5 48.5t67.5 70.5t46 80.5t26.5 83.5t13.5 74.5t3.5 58q0 40 -7 86t-31 110t-62.5 113.5t-110 85t-165.5 35.5t-166.5 -35.5t-111 -85t-63 -113t-31.5 -110t-7 -86.5 q0 -32 5.5 -69.5t18.5 -89.5t41 -98.5t67.5 -87t103.5 -65t143 -24.5z" />
<glyph unicode="P" horiz-adv-x="1398" d="M535 481v-481h-330v1434h553q114 0 205.5 -31t148.5 -79.5t95.5 -112.5t53.5 -126t15 -124q0 -138 -73.5 -250t-186 -171t-234.5 -59h-247zM774 788q40 1 72 14.5t50.5 32.5t30.5 43.5t16.5 44.5t4.5 38q0 26 -8 52t-26.5 54t-56 45.5t-89.5 17.5h-233v-342h239z" />
<glyph unicode="Q" horiz-adv-x="1726" d="M836 1458q156 0 281.5 -48.5t203.5 -125t130.5 -176.5t73.5 -196.5t21 -192.5q0 -165 -62.5 -326.5t-195.5 -269.5l336 -406l-4 -10h-375l-241 287q-87 -17 -168 -17q-113 0 -210.5 25t-169.5 68t-129.5 102.5t-95 125.5t-62.5 140t-35.5 143t-10.5 138q0 67 10.5 135.5 t35.5 142t62.5 139.5t95.5 125.5t129.5 102.5t169 68.5t210.5 25.5zM836 285q68 0 124.5 18.5t94.5 48.5t67.5 70.5t46 80.5t26.5 83.5t13.5 74.5t3.5 58q0 40 -7 86t-31 110t-62.5 113.5t-110 85t-165.5 35.5t-166.5 -35.5t-111 -85t-63 -113t-31.5 -110t-7 -86.5 q0 -32 5.5 -69.5t18.5 -89.5t41 -98.5t67.5 -87t103.5 -65t143 -24.5z" />
<glyph unicode="R" horiz-adv-x="1394" d="M530 481v-481h-325v1434h549q114 0 205.5 -31t148.5 -79.5t95.5 -112.5t53.5 -126t15 -124q0 -147 -71.5 -255.5t-192.5 -168.5l252 -537h-359l-225 481h-146zM772 788q49 1 85 20.5t53.5 48t25.5 55t8 49.5q0 26 -8 52t-26.5 54t-56 45.5t-89.5 17.5h-234v-342h242z" />
<glyph unicode="S" horiz-adv-x="1343" d="M492 1042q1 -14 7 -27t18 -25t23.5 -22t32.5 -20.5t36.5 -18t44 -18t46 -17t51.5 -18.5t52 -18q71 -25 121.5 -46.5t110.5 -59.5t97.5 -80t63 -105t25.5 -139q0 -190 -149.5 -317t-381.5 -127q-152 0 -286.5 38.5t-280.5 116.5l145 275q255 -123 410 -123q81 0 138.5 35 t57.5 88q0 26 -13.5 48.5t-33 38.5t-55 32.5t-65 26.5t-78.5 26q-173 57 -246 96q-190 101 -216 281q-5 31 -5 65q0 197 131.5 312.5t341.5 115.5q271 0 551 -139l-121 -279q-271 109 -410 109q-72 0 -118 -25t-45 -80z" />
<glyph unicode="T" horiz-adv-x="1267" d="M467 0v1128h-375v306h1084v-306h-379v-1128h-330z" />
<glyph unicode="U" horiz-adv-x="1515" d="M758 289q55 0 99.5 21.5t70.5 53t43.5 70.5t23.5 71t6 58v871h330v-871q0 -77 -18 -154t-61.5 -154.5t-107 -136t-163.5 -95.5t-223 -37t-223 37t-164 95.5t-107.5 136t-61.5 154.5t-18 154v871h328v-871q0 -34 12 -76t37.5 -88.5t77 -78t119.5 -31.5z" />
<glyph unicode="V" horiz-adv-x="1511" d="M1450 1434l-686 -1446h-16l-687 1446h367l328 -787l327 787h367z" />
<glyph unicode="W" horiz-adv-x="2240" d="M1110 1444h20l355 -744l327 734h367l-682 -1442h-16l-361 721l-360 -721h-17l-682 1442h367l328 -734z" />
<glyph unicode="X" horiz-adv-x="1400" d="M961 0l-261 428l-260 -428h-379l459 717l-459 717h379l260 -430l261 430h378l-460 -717l460 -717h-378z" />
<glyph unicode="Y" horiz-adv-x="1427" d="M877 637v-637h-326v633l-490 801h363l289 -482l288 482h365z" />
<glyph unicode="Z" horiz-adv-x="1363" d="M637 305h592v-305h-1098l-8 16l604 1114h-545v304h1053l6 -17z" />
<glyph unicode="[" horiz-adv-x="567" d="M61 -420v2022h445v-238h-160v-1546h160v-238h-445z" />
<glyph unicode="\" horiz-adv-x="847" d="M537 0l-476 1434h248l477 -1434h-249z" />
<glyph unicode="]" horiz-adv-x="567" d="M506 1602v-2022h-445v238h160v1546h-160v238h445z" />
<glyph unicode="^" horiz-adv-x="1404" d="M293 709l-170 170l573 573h13l573 -573l-170 -170l-410 368z" />
<glyph unicode="_" horiz-adv-x="862" d="M10 -186v180h842v-180h-842z" />
<glyph unicode="`" horiz-adv-x="1044" d="M342 1632l340 -264l-115 -168l-368 230z" />
<glyph unicode="a" horiz-adv-x="1130" d="M582 1042q74 0 133 -14t99 -36t69 -57.5t45 -70.5t25 -83t11.5 -87.5t2.5 -91.5v-602h-207l-31 70q-45 -42 -113 -66t-137 -24q-86 0 -152 23.5t-103.5 58t-61.5 81.5t-31.5 87t-7.5 81q0 94 33.5 164t91.5 108t125.5 56t146.5 18q62 0 133 -14q0 123 -116 123 q-84 0 -265 -76l-104 238q106 55 202 82.5t212 31.5zM653 319v78q-62 17 -96 17q-135 0 -135 -90q0 -31 26.5 -48.5t65.5 -17.5q44 0 82.5 17.5t56.5 43.5z" />
<glyph unicode="b" horiz-adv-x="1259" d="M475 989q96 63 275 43q90 -15 160 -54.5t112 -91.5t68.5 -118.5t36.5 -128t10 -127.5t-12 -130.5t-42.5 -133t-77 -122t-121.5 -92t-169 -48.5q-185 -17 -314 82l-28 -68h-209v1434h311v-445zM627 268q51 0 89.5 19t59 46t33 63.5t15.5 63t3 52.5q0 31 -4 59.5 t-17.5 64.5t-35.5 61.5t-63.5 43t-96.5 17.5q-30 0 -69.5 -10.5t-65.5 -26.5v-393q20 -25 61.5 -42.5t90.5 -17.5z" />
<glyph unicode="c" horiz-adv-x="1153" d="M858 395l184 -221q-90 -92 -186.5 -140t-212.5 -48q-113 0 -204.5 34t-149 87.5t-96 124t-54.5 139.5t-16 137q0 70 13.5 138t50.5 141t93 127.5t148.5 89.5t210.5 36q238 0 422 -200l-184 -203q-50 53 -115 82t-123 29q-52 0 -92.5 -22t-63 -57.5t-34 -75t-11.5 -79.5 q0 -104 60 -165.5t143 -61.5q103 0 217 108z" />
<glyph unicode="d" horiz-adv-x="1259" d="M784 989v445h312v-1434h-209l-29 68q-129 -99 -313 -82q-94 10 -169 48.5t-121.5 92t-77 122t-42.5 133t-12 130.5t10 127.5t36.5 128t68.5 118.5t112 91.5t160 54.5q178 20 274 -43zM633 268q48 0 89.5 17.5t61.5 42.5v393q-26 16 -65.5 26.5t-69.5 10.5 q-55 0 -96.5 -17.5t-63.5 -43t-35.5 -61.5t-17.5 -64.5t-4 -59.5q0 -26 3.5 -52.5t16 -63t33 -63.5t59 -46t89.5 -19z" />
<glyph unicode="e" horiz-adv-x="1124" d="M1018 444h-598q17 -73 63.5 -120.5t120.5 -47.5q133 0 246 82l147 -217q-99 -83 -189.5 -118t-203.5 -35q-112 0 -202.5 34t-147 87.5t-94.5 124.5t-53 140.5t-15 139.5q0 69 15 137.5t53 139.5t94.5 125t147 88t202.5 34q203 0 315.5 -120t112.5 -324q0 -61 -14 -150z M604 754q-141 0 -176 -131h293q-12 128 -117 131z" />
<glyph unicode="f" horiz-adv-x="788" d="M809 1368l-94 -246q-107 45 -201 45q-34 0 -57 -19t-23 -58v-66h182v-276h-182v-748h-311v748h-103v276h103v72q0 174 105.5 265t269.5 91q136 0 311 -84z" />
<glyph unicode="g" horiz-adv-x="1212" d="M123 -131q2 49 28.5 105t71.5 92q-78 88 -78 190q0 117 99 186q-70 83 -70 199q0 56 13 111t44.5 110t78.5 97t121 68t165 26q109 0 180 -39l166 149l168 -182l-152 -158q30 -38 44 -91t14 -95q0 -54 -13 -107.5t-45 -107t-78.5 -94.5t-120 -66.5t-163.5 -25.5 q-115 0 -172 22q-12 -1 -19.5 -11.5t-7.5 -21.5q0 -21 21 -37t65 -16q9 0 51 1t56 1q112 0 197 -16t137 -43t84.5 -67.5t44.5 -83.5t12 -97q0 -16 -3 -37t-14.5 -54t-30 -63.5t-54 -63t-82 -56t-117.5 -39t-158 -15.5q-109 0 -195.5 21t-139 54.5t-87 78.5t-48 88t-13.5 88z M596 520q30 0 51 14t29.5 36t12 39t3.5 32t-3.5 32t-12 39.5t-29.5 37t-51 14.5t-51.5 -13.5t-31 -35t-13.5 -40t-4 -34.5q0 -15 3.5 -32t12.5 -39t31 -36t53 -14zM596 -193q46 0 80.5 6t51 13t26.5 16.5t12 14t2 6.5q0 27 -54.5 39t-117.5 12q-176 0 -176 -47q0 -5 3.5 -11 t15 -14.5t29.5 -15.5t51.5 -12.5t76.5 -6.5z" />
<glyph unicode="h" horiz-adv-x="1200" d="M475 0h-311v1434h311v-441q73 47 203 47q103 -5 178.5 -38.5t117 -80.5t65.5 -117.5t31 -132.5t7 -143v-528h-309v528q0 48 -5.5 83t-21 71t-50.5 54.5t-87 17.5q-40 -1 -75.5 -17.5t-53.5 -40.5v-696z" />
<glyph unicode="i" horiz-adv-x="657" d="M483 1024v-1024h-311v1024h311zM164 1374q0 69 48 117.5t118 48.5q69 0 116.5 -48.5t47.5 -117.5q0 -70 -47.5 -117t-116.5 -47q-71 0 -118.5 47t-47.5 117z" />
<glyph unicode="j" horiz-adv-x="610" d="M-135 -53q106 -66 172 -66q86 0 86 123v1020h317v-1026q0 -21 -1.5 -42.5t-6.5 -56t-16.5 -65.5t-29 -66t-46 -63.5t-65 -52t-89.5 -36.5t-116 -13q-94 0 -192 44.5t-144 92.5zM117 1370q0 69 48 117.5t118 48.5q69 0 116 -48.5t47 -117.5q0 -70 -47 -117t-116 -47 q-71 0 -118.5 47t-47.5 117z" />
<glyph unicode="k" horiz-adv-x="1298" d="M866 0l-391 436v-436h-311v1434h311v-822l365 412h358l4 -12l-436 -480l471 -520l-4 -12h-367z" />
<glyph unicode="l" horiz-adv-x="643" d="M479 1434v-1434h-315v1434h315z" />
<glyph unicode="m" horiz-adv-x="1730" d="M475 692v-692h-311v1024h205l26 -68q103 84 242 84q186 0 289 -96q51 46 125 71t147 25q64 0 118 -10t93.5 -26.5t70.5 -43.5t51.5 -54t35.5 -66.5t22.5 -72t12 -78.5t5.5 -79.5t1 -81.5v-528h-318v553q4 35 1 71t-11 66t-31.5 49t-60.5 19q-82 0 -144 -66v-692h-313v553 q0 28 0.5 56.5t-5.5 55.5t-16 47.5t-31.5 33t-51.5 12.5q-47 0 -87.5 -19t-64.5 -47z" />
<glyph unicode="n" d="M475 688v-688h-311v1024h203l34 -63q46 37 110.5 58t125.5 21q82 0 148 -16t111.5 -43t79.5 -67.5t53 -83t31 -96.5t15.5 -101.5t3.5 -104.5v-528h-315v528q0 37 -1.5 61t-9 59t-21 56t-40.5 36.5t-65 15.5q-50 0 -90 -19t-62 -49z" />
<glyph unicode="o" horiz-adv-x="1265" d="M633 1044q113 0 203.5 -35t146.5 -90t93 -127.5t52 -141.5t15 -138q0 -71 -15 -140.5t-52 -141t-93 -125.5t-146.5 -88.5t-203.5 -34.5t-203.5 34.5t-146.5 88.5t-93 125.5t-52 141t-15 140.5q0 69 15 138t52 141.5t93 127.5t146.5 90t203.5 35zM633 266q49 0 87 20 t58 48.5t33 65t16.5 63t3.5 49.5q0 30 -7 65.5t-26 80t-61.5 73.5t-103.5 29t-104.5 -29t-62.5 -73.5t-26.5 -80t-7.5 -65.5q0 -23 3.5 -49.5t16.5 -63t34 -65t59 -48.5t88 -20z" />
<glyph unicode="p" horiz-adv-x="1259" d="M475 37v-445h-311v1434h209l28 -68q129 99 314 82q94 -10 169 -48.5t121.5 -92t77 -122t42.5 -133t12 -130.5t-10 -127.5t-36.5 -128t-68.5 -118.5t-112 -91.5t-160 -54.5q-179 -20 -275 43zM627 758q-49 0 -90.5 -17.5t-61.5 -42.5v-393q26 -16 65.5 -26.5t69.5 -10.5 q55 0 96.5 17.5t63.5 43t35.5 61.5t17.5 64.5t4 59.5q0 26 -3 52.5t-15.5 63t-33 63.5t-59 46t-89.5 19z" />
<glyph unicode="q" horiz-adv-x="1259" d="M784 35q-96 -63 -274 -43q-90 15 -160 54.5t-112 91.5t-68.5 118.5t-36.5 128t-10 127.5t12 130.5t42.5 133t77 122t121.5 92t169 48.5q184 17 313 -82l29 68h209v-1434h-312v445zM633 756q-51 0 -89.5 -19t-59 -46t-33 -63.5t-16 -63t-3.5 -52.5q0 -31 4 -59.5 t17.5 -64.5t35.5 -61.5t63.5 -43t96.5 -17.5q30 0 69.5 10.5t65.5 26.5v393q-20 25 -61.5 42.5t-89.5 17.5z" />
<glyph unicode="r" horiz-adv-x="872" d="M831 1014l-90 -287q-67 18 -120 18q-96 0 -146 -63v-682h-311v1024h203l32 -63q92 75 242 75q94 0 190 -22z" />
<glyph unicode="s" horiz-adv-x="1062" d="M524 764q-57 0 -57 -37q0 -13 11 -24.5t35 -22.5t46 -19t62 -21.5t65 -23.5q42 -16 74 -32t68 -42.5t59 -57.5t38 -76.5t15 -100.5q0 -143 -110.5 -233t-280.5 -90q-112 0 -210.5 30t-215.5 99l127 245q185 -90 289 -90q34 0 59 10.5t25 30.5q0 8 -2.5 14.5t-9.5 12 t-14 9t-20.5 8t-24.5 7.5t-31.5 8.5t-35.5 10.5q-51 15 -87.5 29t-85.5 42t-79.5 61t-52.5 85.5t-22 116.5q0 152 98 239.5t258 87.5q195 0 410 -106l-111 -250q-54 24 -143 52t-146 28z" />
<glyph unicode="t" horiz-adv-x="698" d="M123 743h-103v281h103l20 201h291v-201h184v-281h-184v-415q0 -29 15 -43.5t32 -14.5q44 0 142 25l55 -254q-190 -53 -299 -53q-67 0 -117 23.5t-75.5 55.5t-41 75.5t-19 73.5t-3.5 60v467z" />
<glyph unicode="u" d="M727 336v688h311v-1024h-202l-35 63q-46 -37 -110.5 -58t-125.5 -21q-82 0 -148 16t-111.5 43t-79.5 67.5t-53 83t-31 96.5t-15.5 101.5t-3.5 104.5v528h315v-528q0 -37 1.5 -61t9 -59t21 -56t40.5 -36.5t65 -15.5q50 0 90 19t62 49z" />
<glyph unicode="v" horiz-adv-x="1193" d="M596 584l190 440h347l-527 -1034h-26l-519 1034h342z" />
<glyph unicode="w" horiz-adv-x="1601" d="M813 1036l203 -430l192 418h332l-500 -1032h-26l-213 405l-213 -405h-27l-500 1032h332l193 -418l202 430h25z" />
<glyph unicode="x" horiz-adv-x="1064" d="M416 0h-355l301 512l-301 512h357l114 -217l115 217h357l-302 -512l302 -512h-355l-117 219z" />
<glyph unicode="y" horiz-adv-x="1261" d="M412 1024l215 -559l223 559h350l-610 -1432h-334l203 488l-398 944h351z" />
<glyph unicode="z" horiz-adv-x="1089" d="M154 725v299h837l6 -12l-387 -713h348v-299h-860l-6 10l391 715h-329z" />
<glyph unicode="{" horiz-adv-x="671" d="M610 -408h-94q-7 0 -22 1.5t-48.5 9.5t-65.5 21.5t-69 41.5t-64.5 65t-46 97t-18.5 133v442q0 37 -18 59.5t-41 24.5h-62v209h60q24 0 42.5 23.5t18.5 60.5v443q0 73 18.5 133t46 97t64.5 65t69 41t65.5 21t48.5 9.5t22 1.5h94v-235h-45q-6 0 -14 -1t-24.5 -9.5 t-29 -22.5t-22.5 -44t-10 -71v-428q0 -64 -31.5 -114.5t-73.5 -73.5q40 -23 72.5 -74t32.5 -112v-429q0 -41 10 -71t22 -44.5t28.5 -22.5t25 -9.5t14.5 -1.5h45v-236z" />
<glyph unicode="|" horiz-adv-x="466" d="M344 -412h-221v1991h221v-1991z" />
<glyph unicode="}" horiz-adv-x="671" d="M156 -408h-95v236h45q6 0 14.5 1.5t25 9.5t29 22.5t22.5 44.5t10 71v429q0 61 32 112t72 74q-41 23 -72.5 73.5t-31.5 114.5v428q0 41 -10 71t-23 44t-29.5 22.5t-24.5 9.5t-14 1h-45v235h95q7 0 21.5 -1.5t48.5 -9.5t66 -21t69 -41t64 -65t45.5 -97t18.5 -133v-443 q0 -37 19 -60.5t43 -23.5h59v-209h-61q-23 -2 -41.5 -24.5t-18.5 -59.5v-442q0 -73 -18.5 -133t-45.5 -97t-64 -65t-69.5 -41.5t-65.5 -21.5t-48 -9.5t-22 -1.5z" />
<glyph unicode="~" horiz-adv-x="1290" d="M299 422l-176 123q147 262 364 262q35 0 73 -12t56.5 -21.5t59.5 -32.5q84 -49 135 -49q75 0 178 135l178 -129q-73 -134 -166 -201t-192 -67q-95 0 -213 74q-88 45 -117 45q-84 0 -180 -127z" />
<glyph unicode="&#xa1;" horiz-adv-x="753" d="M535 156v-566h-312v566l37 417h238zM225 889q0 67 45 111t113 44q66 0 111 -44t45 -111q0 -66 -45 -112t-111 -46q-67 0 -112.5 46t-45.5 112z" />
<glyph unicode="&#xa2;" horiz-adv-x="1153" d="M756 -178h-221v174q-89 14 -161 53.5t-118 91.5t-76.5 116.5t-43.5 126.5t-13 124q0 63 11.5 125t41 129t74.5 120t118.5 94t166.5 56v160h221v-164q164 -37 305 -188l-184 -203q-57 57 -121 84v-402q50 24 102 76l184 -221q-137 -140 -286 -174v-178zM438 514 q0 -134 97 -197v402q-49 -31 -73 -88t-24 -117z" />
<glyph unicode="&#xa3;" horiz-adv-x="1445" d="M1024 1366l-94 -246q-107 45 -201 45q-34 0 -57 -19.5t-23 -58.5v-65h182v-277h-182v-391q34 -4 108 -36.5t115 -32.5q74 -2 139.5 34t110.5 105l201 -152q-78 -141 -187 -207t-266 -69q-54 -1 -117 25.5t-125 53.5t-114 27q-24 0 -58.5 -8t-90 -40.5t-95.5 -84.5 l-188 172q78 142 256 215v389h-102v277h102v72q0 174 105.5 265t269.5 91q136 0 311 -84z" />
<glyph unicode="&#xa4;" horiz-adv-x="1359" d="M680 1014q123 0 215 -53l188 196l154 -156l-195 -194q54 -100 54 -223q0 -117 -41 -207l182 -182l-154 -152l-172 172q-103 -61 -231 -61q-135 0 -231 59l-173 -170l-153 154l186 180q-45 90 -45 207q0 126 51 225l-190 192l154 156l190 -192q93 49 211 49zM680 453 q32 0 55 15t33 38.5t14 42.5t4 35t-4 35t-14 43t-33 39.5t-55 15.5q-43 0 -69.5 -28t-33 -54.5t-6.5 -50.5t6.5 -50t33 -53.5t69.5 -27.5z" />
<glyph unicode="&#xa5;" horiz-adv-x="1427" d="M1071 123h-194v-123h-326v123h-197v211h197v137h-197v211h166l-459 752h363l289 -482l288 482h365l-463 -752h168v-211h-194v-137h194v-211z" />
<glyph unicode="&#xa6;" horiz-adv-x="468" d="M346 385v-793h-223v793h223zM346 1585v-790h-223v790h223z" />
<glyph unicode="&#xa7;" horiz-adv-x="1259" d="M164 -217l168 215q197 -141 297 -141q50 0 88.5 26.5t38.5 73.5q0 82 -213 193q-334 158 -334 417q0 71 35.5 137.5t81.5 114.5q-38 36 -70.5 107.5t-32.5 146.5q0 66 26 131t76 121.5t135 91.5t191 35q203 0 432 -166l-157 -231q-195 112 -299 112q-40 0 -67.5 -22.5 t-31.5 -65.5q6 -76 168 -157q83 -41 146.5 -81t125 -94.5t95 -121.5t33.5 -142q0 -70 -37 -140.5t-86 -123.5q104 -125 104 -270q0 -113 -58.5 -201t-154 -134t-209.5 -46q-102 0 -203.5 37t-166 81t-121.5 97zM506 584q0 -20 7 -38.5t17 -33t28 -30t32.5 -25.5t38.5 -22.5 t37.5 -19t38.5 -17.5t34 -15q39 49 43 92q-1 32 -41.5 63t-110 65.5t-89.5 47.5q-35 -35 -35 -67z" />
<glyph unicode="&#xa8;" horiz-adv-x="1191" d="M186 1370q0 69 48 117.5t118 48.5q69 0 116.5 -48.5t47.5 -117.5q0 -70 -47.5 -117t-116.5 -47q-71 0 -118.5 47t-47.5 117zM670 1370q0 69 48 117.5t118 48.5q69 0 116 -48.5t47 -117.5q0 -70 -47 -117t-116 -47q-71 0 -118.5 47t-47.5 117z" />
<glyph unicode="&#xa9;" horiz-adv-x="1200" d="M481 922q0 64 37 103.5t90 39.5q73 0 135 -70l95 99q-49 59 -103 89.5t-127 30.5q-63 0 -114.5 -19.5t-84.5 -49.5t-55 -69.5t-31.5 -78t-9.5 -75.5q0 -39 9.5 -78t31.5 -78.5t55 -70t84.5 -49.5t114.5 -19q72 0 126 31t104 90l-93 94q-61 -64 -137 -64q-53 0 -90 39.5 t-37 104.5zM600 1444q215 0 366.5 -151.5t151.5 -366.5t-151.5 -366.5t-366.5 -151.5q-98 0 -192 40t-166 108t-116 166t-44 208q0 131 67.5 249t188 191.5t262.5 73.5zM600 557q155 0 262 107t107 262t-107 262.5t-262 107.5t-263 -107.5t-108 -262.5t108 -262t263 -107z " />
<glyph unicode="&#xaa;" horiz-adv-x="837" d="M389 1450l37 2q77 0 132.5 -20t85 -49.5t46.5 -77t21 -87.5t4 -96v-452h-154l-24 53q-33 -32 -84 -50t-103 -18q-64 0 -114 17.5t-78 43.5t-46 61t-24 65t-6 61q0 57 17 102.5t45 74.5t67 48t81 27t89 8q51 0 100 -10q0 92 -88 92q-62 0 -198 -57l-78 178q153 81 272 84z M481 909v60q-46 12 -73 12q-101 0 -101 -68q0 -24 20 -36.5t50 -12.5q33 0 61.5 13t42.5 32z" />
<glyph unicode="&#xab;" horiz-adv-x="1222" d="M383 524l229 -288l-163 -142l-388 416v27l388 413l163 -141zM932 524l229 -288l-164 -142l-387 416v27l387 413l164 -141z" />
<glyph unicode="&#xac;" horiz-adv-x="1284" d="M1120 860v-684h-452v260h-504v424h956z" />
<glyph unicode="&#xad;" horiz-adv-x="819" d="M125 545h577v-238h-577v238z" />
<glyph unicode="&#xae;" horiz-adv-x="1200" d="M549 827v-149h-139v512h204q52 0 91.5 -17.5t60.5 -46t31 -58t10 -58.5q0 -41 -24.5 -83.5t-59.5 -66.5l102 -182h-163l-80 149h-33zM549 965h72q24 1 34.5 15.5t10.5 29.5q0 16 -11.5 31.5t-38.5 15.5h-67v-92zM600 1444q215 0 366.5 -151.5t151.5 -366.5t-151.5 -366.5 t-366.5 -151.5q-98 0 -192 40t-166 108t-116 166t-44 208q0 131 67.5 249t188 191.5t262.5 73.5zM600 557q155 0 262 107t107 262t-107 262.5t-262 107.5t-263 -107.5t-108 -262.5t108 -262t263 -107z" />
<glyph unicode="&#xaf;" horiz-adv-x="1056" d="M231 1444h617v-221h-617v221z" />
<glyph unicode="&#xb0;" horiz-adv-x="675" d="M338 901q-116 0 -196.5 80.5t-80.5 196.5q0 115 80.5 195.5t196.5 80.5q115 0 195.5 -78.5t80.5 -197.5q0 -115 -81 -196t-195 -81zM338 1079q38 0 66 28t28 71q0 40 -28 67t-66 27q-40 0 -70 -28.5t-30 -65.5q0 -43 29.5 -71t70.5 -28z" />
<glyph unicode="&#xb1;" horiz-adv-x="1142" d="M164 236h805v-234h-805v234zM449 373v198h-285v244h285v285h245v-285h285v-244h-285v-198h-245z" />
<glyph unicode="&#xb2;" horiz-adv-x="624" d="M172 1403l-111 106q115 140 258 140q103 0 163.5 -62t60.5 -151q0 -87 -82 -193l-86 -117h157v-159h-456l-4 10l174 256q17 26 33.5 50t26 37.5t18.5 26.5t13 19t7.5 12t5 9t2.5 6q8 20 8 41q0 17 -13.5 32t-35.5 15q-30 0 -59.5 -16.5t-79.5 -61.5z" />
<glyph unicode="&#xb3;" horiz-adv-x="577" d="M516 1434q0 -33 -17 -72t-46 -64q63 -50 63 -131q0 -31 -10.5 -64t-35 -68.5t-74 -58t-117.5 -22.5q-129 0 -238 101l100 110q55 -53 138 -53q29 0 50 15.5t21 39.5q0 31 -20.5 47.5t-50.5 16.5h-113v137h113q29 0 50 17.5t21 48.5q0 25 -21 40t-50 15q-27 0 -68.5 -16.5 t-69.5 -40.5l-96 110q105 105 234 105q68 0 117.5 -22t74 -57t35 -68t10.5 -66z" />
<glyph unicode="&#xb4;" horiz-adv-x="1044" d="M281 1370l340 264l143 -202l-369 -230z" />
<glyph unicode="&#xb6;" horiz-adv-x="1503" d="M82 1006q0 57 12 113t42.5 114.5t76 102.5t120 72t167.5 28h839v-222h-137v-1622h-266v1622h-180v-1622h-267v983q-90 1 -162 30t-117 73t-74.5 102.5t-41.5 114t-12 111.5z" />
<glyph unicode="&#xb7;" horiz-adv-x="602" d="M123 612q0 76 49.5 126t126.5 50q76 0 128 -50t52 -126q0 -75 -52.5 -127.5t-127.5 -52.5q-76 0 -126 52t-50 128z" />
<glyph unicode="&#xb8;" horiz-adv-x="1134" d="M668 -184h-52l-26 26v205h168v-104q101 -3 150.5 -61.5t49.5 -125.5q0 -109 -70.5 -167t-172.5 -58q-106 0 -217 51l55 152q103 -31 141 -31q30 0 49.5 13.5t20.5 39.5q2 23 -19.5 41.5t-76.5 18.5z" />
<glyph unicode="&#xb9;" horiz-adv-x="466" d="M375 1636v-669h-180v426l-84 -45l-70 114l244 174h90z" />
<glyph unicode="&#xba;" horiz-adv-x="774" d="M387 1446q68 0 122 -21t87.5 -53.5t56 -76t31 -85t8.5 -82.5q0 -43 -8.5 -84.5t-31 -84.5t-56 -75t-87.5 -52.5t-122 -20.5t-122 20.5t-87.5 52.5t-56 75t-31 84.5t-8.5 84.5q0 41 8.5 82.5t31 85t56 76t87.5 53.5t122 21zM387 1026q27 0 46 11.5t27.5 30t11.5 33t3 27.5 t-3 27t-11.5 32.5t-27.5 30t-46 11.5t-46 -11.5t-27.5 -30t-11.5 -32.5t-3 -27t3 -27.5t11.5 -33t27.5 -30t46 -11.5zM121 659h530v-215h-530v215z" />
<glyph unicode="&#xbb;" horiz-adv-x="1222" d="M610 236l230 288l-230 285l164 141l387 -413v-27l-387 -416zM61 236l230 288l-230 285l164 141l387 -413v-27l-387 -416z" />
<glyph unicode="&#xbc;" horiz-adv-x="1212" d="M1049 1434l-715 -1434h-209l717 1434h207zM375 1440v-670h-180v426l-84 -45l-70 115l244 174h90zM1044 98v-96h-170v96h-270v135l301 441h139v-424h95v-152h-95zM874 375l-86 -125h86v125z" />
<glyph unicode="&#xbd;" horiz-adv-x="1308" d="M1049 1434l-715 -1434h-209l717 1434h207zM375 1440v-670h-180v426l-84 -45l-70 115l244 174h90zM852 436l-111 107q114 139 258 139q103 0 163.5 -62t60.5 -151q0 -83 -82 -193l-86 -116h157v-160h-456l-6 14l221 320q49 65 53 74q16 25 16 59q0 17 -13.5 32t-35.5 15 q-30 0 -59.5 -16.5t-79.5 -61.5z" />
<glyph unicode="&#xbe;" horiz-adv-x="1296" d="M1124 1434l-714 -1434h-209l717 1434h206zM1120 98v-98h-170v98h-270v135l301 441h139v-424h94v-152h-94zM950 375l-86 -125h86v125zM516 1235q0 -33 -17 -71.5t-46 -63.5q63 -50 63 -131q0 -31 -10.5 -64t-35 -68.5t-74 -58t-117.5 -22.5q-130 0 -238 100l100 111 q57 -54 138 -54q29 0 50 16t21 40q0 31 -20.5 47t-50.5 16h-113v137h113q29 0 50 17.5t21 48.5q0 25 -21 40t-50 15q-27 0 -68.5 -16.5t-69.5 -40.5l-96 110q105 105 234 105q68 0 117.5 -22t74 -57t35 -68t10.5 -66z" />
<glyph unicode="&#xbf;" horiz-adv-x="1187" d="M430 412v166h295v-170q0 -64 -25.5 -121t-61.5 -100t-72 -83t-61.5 -87.5t-25.5 -96.5q0 -18 5.5 -36t27 -36t57.5 -18q67 0 119.5 32.5t147.5 125.5l188 -176q-115 -143 -224.5 -202t-250.5 -59q-171 0 -278 96.5t-107 270.5q0 68 27.5 136.5t66.5 121t78 98t66.5 81.5 t27.5 57zM745 860q0 -72 -49.5 -121t-122.5 -49q-71 0 -121.5 49.5t-50.5 120.5q0 73 50.5 122.5t121.5 49.5q75 0 123.5 -47t48.5 -125z" />
<glyph unicode="&#xc0;" horiz-adv-x="1511" d="M770 1446l680 -1446h-367l-125 299h-405l-125 -299h-367l680 1446h29zM756 786l-97 -229h191zM657 2042l340 -264l-114 -168l-369 229z" />
<glyph unicode="&#xc1;" horiz-adv-x="1511" d="M770 1446l680 -1446h-367l-125 299h-405l-125 -299h-367l680 1446h29zM756 786l-97 -229h191zM514 1780l340 264l143 -203l-368 -229z" />
<glyph unicode="&#xc2;" horiz-adv-x="1511" d="M770 1446l680 -1446h-367l-125 299h-405l-125 -299h-367l680 1446h29zM756 786l-97 -229h191zM756 2042l340 -264l-115 -168l-225 139l-226 -139l-114 168z" />
<glyph unicode="&#xc3;" horiz-adv-x="1511" d="M770 1446l680 -1446h-367l-125 299h-405l-125 -299h-367l680 1446h29zM756 786l-97 -229h191zM528 1614l-166 102q50 108 120.5 156.5t142.5 48.5q42 0 113.5 -34t113.5 -34q58 0 104 74l166 -102q-50 -108 -122 -157.5t-144 -49.5q-42 0 -110 35t-107 35q-68 0 -111 -74 z" />
<glyph unicode="&#xc4;" horiz-adv-x="1511" d="M770 1446l680 -1446h-367l-125 299h-405l-125 -299h-367l680 1446h29zM756 786l-97 -229h191zM348 1780q0 69 48 117.5t118 48.5q69 0 116.5 -48.5t47.5 -117.5q0 -70 -47.5 -117t-116.5 -47q-71 0 -118.5 47t-47.5 117zM831 1780q0 69 48 117.5t118 48.5 q69 0 116.5 -48.5t47.5 -117.5q0 -70 -47.5 -117t-116.5 -47q-71 0 -118.5 47t-47.5 117z" />
<glyph unicode="&#xc5;" horiz-adv-x="1511" d="M770 1446l680 -1446h-367l-125 299h-405l-125 -299h-367l680 1446h29zM756 786l-97 -229h191zM539 1819q0 89 64 153t153 64t152 -64t63 -153t-63 -152t-152 -63t-153 63t-64 152zM694 1819q0 -23 18.5 -41.5t43.5 -18.5q23 0 41 18.5t18 41.5q0 25 -18 43t-41 18 q-25 0 -43.5 -18t-18.5 -43z" />
<glyph unicode="&#xc6;" horiz-adv-x="1869" d="M1602 555h-519v-250h664v-305h-991v299h-203l-125 -299h-367l674 1434h1012v-306h-664v-268h519v-305zM756 786l-97 -229h97v229z" />
<glyph unicode="&#xc7;" horiz-adv-x="1533" d="M791 -184h-52l-26 26v148q-129 17 -233 71.5t-169 128.5t-109 167.5t-61.5 182.5t-17.5 179q0 67 10.5 135t35.5 141t62.5 139t95.5 125t129.5 102t169 68t210.5 25q175 0 313 -73.5t262 -213.5l-219 -211q-64 77 -166 133t-190 56q-68 0 -125 -18.5t-95.5 -47.5 t-68 -68.5t-46 -79t-27 -82t-14 -73.5t-3.5 -57t3.5 -57t14 -73.5t27 -81.5t46.5 -78.5t68.5 -68.5t95.5 -47t126 -18q91 0 193.5 49t180.5 121l189 -225q-240 -240 -520 -256v-41q101 -3 150.5 -61.5t49.5 -125.5q0 -109 -70.5 -167t-172.5 -58q-106 0 -217 51l55 152 q103 -31 141 -31q30 0 49.5 13.5t20.5 39.5q2 23 -19.5 41.5t-76.5 18.5z" />
<glyph unicode="&#xc8;" horiz-adv-x="1318" d="M1051 555h-519v-250h664v-305h-991v1434h991v-306h-664v-268h519v-305zM561 2042l340 -264l-115 -168l-368 229z" />
<glyph unicode="&#xc9;" horiz-adv-x="1318" d="M1051 555h-519v-250h664v-305h-991v1434h991v-306h-664v-268h519v-305zM418 1780l340 264l143 -203l-369 -229z" />
<glyph unicode="&#xca;" horiz-adv-x="1318" d="M1051 555h-519v-250h664v-305h-991v1434h991v-306h-664v-268h519v-305zM659 2042l340 -264l-114 -168l-226 139l-225 -139l-115 168z" />
<glyph unicode="&#xcb;" horiz-adv-x="1318" d="M1051 555h-519v-250h664v-305h-991v1434h991v-306h-664v-268h519v-305zM252 1780q0 69 48 117.5t118 48.5q69 0 116.5 -48.5t47.5 -117.5q0 -70 -47.5 -117t-116.5 -47q-71 0 -118.5 47t-47.5 117zM735 1780q0 69 48 117.5t118 48.5q69 0 116.5 -48.5t47.5 -117.5 q0 -70 -47.5 -117t-116.5 -47q-71 0 -118.5 47t-47.5 117z" />
<glyph unicode="&#xcc;" horiz-adv-x="565" d="M446 1434v-1434h-327v1434h327zM184 2042l340 -264l-114 -168l-369 229z" />
<glyph unicode="&#xcd;" horiz-adv-x="565" d="M446 1434v-1434h-327v1434h327zM41 1780l340 264l143 -203l-368 -229z" />
<glyph unicode="&#xce;" horiz-adv-x="679" d="M504 1434v-1434h-328v1434h328zM340 2042l340 -264l-115 -168l-225 139l-225 -139l-115 168z" />
<glyph unicode="&#xcf;" horiz-adv-x="813" d="M571 1434v-1434h-327v1434h327zM0 1780q0 69 48 117.5t118 48.5q69 0 116.5 -48.5t47.5 -117.5q0 -70 -47.5 -117t-116.5 -47q-71 0 -118.5 47t-47.5 117zM483 1780q0 69 48 117.5t118 48.5q69 0 116.5 -48.5t47.5 -117.5q0 -70 -47.5 -117t-116.5 -47q-71 0 -118.5 47 t-47.5 117z" />
<glyph unicode="&#xd0;" horiz-adv-x="1554" d="M109 848h96v586h516q113 0 210.5 -24t169 -65t129 -98t94.5 -120.5t62 -135t35.5 -138.5t10.5 -134q0 -98 -21 -193t-73 -192t-130.5 -169.5t-204 -118.5t-282.5 -46h-516v600h-96v248zM530 305h191q68 0 125 17.5t95.5 45.5t68 66.5t46 76.5t27 79.5t14 72t3.5 56.5 q0 32 -5.5 68t-18.5 85t-41 92.5t-67.5 82t-103.5 61t-143 22.5h-191v-282h238v-248h-238v-295z" />
<glyph unicode="&#xd1;" horiz-adv-x="1597" d="M205 1446l18 6l842 -743v725h328v-1438l-17 -8l-841 749v-737h-330v1446zM584 1614l-166 102q50 108 120 156.5t142 48.5q42 0 113.5 -34t113.5 -34q59 0 105 74l166 -102q-50 -108 -122.5 -157.5t-144.5 -49.5q-43 0 -110 35t-107 35q-67 0 -110 -74z" />
<glyph unicode="&#xd2;" horiz-adv-x="1669" d="M836 1458q156 0 281.5 -48.5t203.5 -125t130.5 -176.5t73.5 -196.5t21 -192.5q0 -69 -10.5 -138t-35.5 -143t-62 -140t-94.5 -125.5t-129 -102.5t-168.5 -68t-210 -25t-210.5 25t-169.5 68t-129.5 102.5t-95 125.5t-62.5 140t-35.5 143t-10.5 138q0 67 10.5 135.5 t35.5 142t62.5 139.5t95.5 125.5t129.5 102.5t169 68.5t210.5 25.5zM836 285q68 0 124.5 18.5t94.5 48.5t67.5 70.5t46 80.5t26.5 83.5t13.5 74.5t3.5 58q0 40 -7 86t-31 110t-62.5 113.5t-110 85t-165.5 35.5t-166.5 -35.5t-111 -85t-63 -113t-31.5 -110t-7 -86.5 q0 -32 5.5 -69.5t18.5 -89.5t41 -98.5t67.5 -87t103.5 -65t143 -24.5zM657 2042l340 -264l-114 -168l-369 229z" />
<glyph unicode="&#xd3;" horiz-adv-x="1669" d="M836 1458q156 0 281.5 -48.5t203.5 -125t130.5 -176.5t73.5 -196.5t21 -192.5q0 -69 -10.5 -138t-35.5 -143t-62 -140t-94.5 -125.5t-129 -102.5t-168.5 -68t-210 -25t-210.5 25t-169.5 68t-129.5 102.5t-95 125.5t-62.5 140t-35.5 143t-10.5 138q0 67 10.5 135.5 t35.5 142t62.5 139.5t95.5 125.5t129.5 102.5t169 68.5t210.5 25.5zM836 285q68 0 124.5 18.5t94.5 48.5t67.5 70.5t46 80.5t26.5 83.5t13.5 74.5t3.5 58q0 40 -7 86t-31 110t-62.5 113.5t-110 85t-165.5 35.5t-166.5 -35.5t-111 -85t-63 -113t-31.5 -110t-7 -86.5 q0 -32 5.5 -69.5t18.5 -89.5t41 -98.5t67.5 -87t103.5 -65t143 -24.5zM592 1780l340 264l143 -203l-368 -229z" />
<glyph unicode="&#xd4;" horiz-adv-x="1669" d="M836 1458q156 0 281.5 -48.5t203.5 -125t130.5 -176.5t73.5 -196.5t21 -192.5q0 -69 -10.5 -138t-35.5 -143t-62 -140t-94.5 -125.5t-129 -102.5t-168.5 -68t-210 -25t-210.5 25t-169.5 68t-129.5 102.5t-95 125.5t-62.5 140t-35.5 143t-10.5 138q0 67 10.5 135.5 t35.5 142t62.5 139.5t95.5 125.5t129.5 102.5t169 68.5t210.5 25.5zM836 285q68 0 124.5 18.5t94.5 48.5t67.5 70.5t46 80.5t26.5 83.5t13.5 74.5t3.5 58q0 40 -7 86t-31 110t-62.5 113.5t-110 85t-165.5 35.5t-166.5 -35.5t-111 -85t-63 -113t-31.5 -110t-7 -86.5 q0 -32 5.5 -69.5t18.5 -89.5t41 -98.5t67.5 -87t103.5 -65t143 -24.5zM834 2042l340 -264l-115 -168l-225 139l-226 -139l-114 168z" />
<glyph unicode="&#xd5;" horiz-adv-x="1669" d="M836 1458q156 0 281.5 -48.5t203.5 -125t130.5 -176.5t73.5 -196.5t21 -192.5q0 -69 -10.5 -138t-35.5 -143t-62 -140t-94.5 -125.5t-129 -102.5t-168.5 -68t-210 -25t-210.5 25t-169.5 68t-129.5 102.5t-95 125.5t-62.5 140t-35.5 143t-10.5 138q0 67 10.5 135.5 t35.5 142t62.5 139.5t95.5 125.5t129.5 102.5t169 68.5t210.5 25.5zM836 285q68 0 124.5 18.5t94.5 48.5t67.5 70.5t46 80.5t26.5 83.5t13.5 74.5t3.5 58q0 40 -7 86t-31 110t-62.5 113.5t-110 85t-165.5 35.5t-166.5 -35.5t-111 -85t-63 -113t-31.5 -110t-7 -86.5 q0 -32 5.5 -69.5t18.5 -89.5t41 -98.5t67.5 -87t103.5 -65t143 -24.5zM608 1614l-166 102q50 108 120.5 156.5t142.5 48.5q42 0 113.5 -34t113.5 -34q58 0 104 74l166 -102q-50 -108 -122 -157.5t-144 -49.5q-42 0 -110 35t-107 35q-68 0 -111 -74z" />
<glyph unicode="&#xd6;" horiz-adv-x="1669" d="M836 1458q156 0 281.5 -48.5t203.5 -125t130.5 -176.5t73.5 -196.5t21 -192.5q0 -69 -10.5 -138t-35.5 -143t-62 -140t-94.5 -125.5t-129 -102.5t-168.5 -68t-210 -25t-210.5 25t-169.5 68t-129.5 102.5t-95 125.5t-62.5 140t-35.5 143t-10.5 138q0 67 10.5 135.5 t35.5 142t62.5 139.5t95.5 125.5t129.5 102.5t169 68.5t210.5 25.5zM836 285q68 0 124.5 18.5t94.5 48.5t67.5 70.5t46 80.5t26.5 83.5t13.5 74.5t3.5 58q0 40 -7 86t-31 110t-62.5 113.5t-110 85t-165.5 35.5t-166.5 -35.5t-111 -85t-63 -113t-31.5 -110t-7 -86.5 q0 -32 5.5 -69.5t18.5 -89.5t41 -98.5t67.5 -87t103.5 -65t143 -24.5zM428 1780q0 69 48 117.5t118 48.5q69 0 116.5 -48.5t47.5 -117.5q0 -70 -47.5 -117t-116.5 -47q-71 0 -118.5 47t-47.5 117zM911 1780q0 69 48 117.5t118 48.5q69 0 116.5 -48.5t47.5 -117.5 q0 -70 -47.5 -117t-116.5 -47q-71 0 -118.5 47t-47.5 117z" />
<glyph unicode="&#xd7;" horiz-adv-x="1159" d="M780 47l-200 201l-203 -201l-172 172l203 201l-203 201l174 174l201 -201l202 201l172 -172l-202 -201l202 -201z" />
<glyph unicode="&#xd8;" horiz-adv-x="1669" d="M332 -18l-170 141l102 123q-72 103 -106.5 227t-34.5 246q0 67 10.5 135.5t35.5 142t62.5 139.5t95.5 125.5t129.5 102.5t169 68.5t210.5 25.5q211 0 368 -90l96 115l170 -142l-96 -114q88 -107 130 -242.5t42 -265.5q0 -69 -10.5 -138t-35.5 -143t-62 -140t-94.5 -125.5 t-129 -102.5t-168.5 -68t-210 -25q-247 0 -412 113zM836 285q68 0 124.5 18.5t94.5 48.5t67.5 70.5t46 80.5t26.5 83.5t13.5 74.5t3.5 58q0 133 -59 244l-520 -623q80 -55 203 -55zM457 719q0 -106 37 -199l499 596q-71 33 -157 33q-94 0 -166.5 -35.5t-111 -85t-63 -113 t-31.5 -110t-7 -86.5z" />
<glyph unicode="&#xd9;" horiz-adv-x="1515" d="M758 289q55 0 99.5 21.5t70.5 53t43.5 70.5t23.5 71t6 58v871h330v-871q0 -77 -18 -154t-61.5 -154.5t-107 -136t-163.5 -95.5t-223 -37t-223 37t-164 95.5t-107.5 136t-61.5 154.5t-18 154v871h328v-871q0 -34 12 -76t37.5 -88.5t77 -78t119.5 -31.5zM659 2042l340 -264 l-114 -168l-369 229z" />
<glyph unicode="&#xda;" horiz-adv-x="1515" d="M758 289q55 0 99.5 21.5t70.5 53t43.5 70.5t23.5 71t6 58v871h330v-871q0 -77 -18 -154t-61.5 -154.5t-107 -136t-163.5 -95.5t-223 -37t-223 37t-164 95.5t-107.5 136t-61.5 154.5t-18 154v871h328v-871q0 -34 12 -76t37.5 -88.5t77 -78t119.5 -31.5zM516 1780l340 264 l143 -203l-368 -229z" />
<glyph unicode="&#xdb;" horiz-adv-x="1515" d="M758 289q55 0 99.5 21.5t70.5 53t43.5 70.5t23.5 71t6 58v871h330v-871q0 -77 -18 -154t-61.5 -154.5t-107 -136t-163.5 -95.5t-223 -37t-223 37t-164 95.5t-107.5 136t-61.5 154.5t-18 154v871h328v-871q0 -34 12 -76t37.5 -88.5t77 -78t119.5 -31.5zM758 2042l340 -264 l-115 -168l-225 139l-226 -139l-114 168z" />
<glyph unicode="&#xdc;" horiz-adv-x="1515" d="M758 289q55 0 99.5 21.5t70.5 53t43.5 70.5t23.5 71t6 58v871h330v-871q0 -77 -18 -154t-61.5 -154.5t-107 -136t-163.5 -95.5t-223 -37t-223 37t-164 95.5t-107.5 136t-61.5 154.5t-18 154v871h328v-871q0 -34 12 -76t37.5 -88.5t77 -78t119.5 -31.5zM350 1780 q0 69 48 117.5t118 48.5q69 0 116.5 -48.5t47.5 -117.5q0 -70 -47.5 -117t-116.5 -47q-71 0 -118.5 47t-47.5 117zM834 1780q0 69 47.5 117.5t117.5 48.5q69 0 116.5 -48.5t47.5 -117.5q0 -70 -47.5 -117t-116.5 -47q-71 0 -118 47t-47 117z" />
<glyph unicode="&#xdd;" horiz-adv-x="1427" d="M877 637v-637h-326v633l-490 801h363l289 -482l288 482h365zM471 1780l340 264l143 -203l-368 -229z" />
<glyph unicode="&#xde;" horiz-adv-x="1355" d="M702 164h-176v-164h-321v1434h321v-177h176q117 0 211 -36t152.5 -92.5t97.5 -130.5t54.5 -145t15.5 -142t-15.5 -142t-54.5 -145.5t-97.5 -131t-152.5 -92.5t-211 -36zM526 967v-510h162q65 0 112.5 28.5t69.5 72t31.5 81.5t9.5 72q0 26 -5 56t-20 66.5t-38.5 65.5 t-65 48.5t-94.5 19.5h-162z" />
<glyph unicode="&#xdf;" horiz-adv-x="1384" d="M1180 383q0 -188 -138.5 -298.5t-410.5 -113.5v252q120 3 170.5 52.5t52.5 113.5q-3 39 -32 84t-61.5 80t-59.5 82t-27 90q0 35 15.5 69t38 62t44.5 54.5t37.5 56.5t15.5 59q0 9 -0.5 16.5t-8 30.5t-20.5 39t-43 29.5t-71 13.5q-24 0 -47 -6t-49 -20.5t-42.5 -47 t-17.5 -77.5v-1086h-321v1081q0 92 24.5 166t60.5 120t86.5 80t92.5 49.5t90.5 24.5t67.5 10t35 1q109 0 195 -31t136 -76.5t82 -105.5t43.5 -110.5t11.5 -98.5q0 -63 -19 -118t-41 -85t-41 -57t-19 -41q0 -12 17.5 -32.5t42.5 -48t50 -62.5t42.5 -88t17.5 -113z" />
<glyph unicode="&#xe0;" horiz-adv-x="1130" d="M582 1042q74 0 133 -14t99 -36t69 -57.5t45 -70.5t25 -83t11.5 -87.5t2.5 -91.5v-602h-207l-31 70q-45 -42 -113 -66t-137 -24q-86 0 -152 23.5t-103.5 58t-61.5 81.5t-31.5 87t-7.5 81q0 94 33.5 164t91.5 108t125.5 56t146.5 18q62 0 133 -14q0 123 -116 123 q-84 0 -265 -76l-104 238q106 55 202 82.5t212 31.5zM653 319v78q-62 17 -96 17q-135 0 -135 -90q0 -31 26.5 -48.5t65.5 -17.5q44 0 82.5 17.5t56.5 43.5zM467 1632l340 -264l-115 -168l-368 230z" />
<glyph unicode="&#xe1;" horiz-adv-x="1130" d="M582 1042q74 0 133 -14t99 -36t69 -57.5t45 -70.5t25 -83t11.5 -87.5t2.5 -91.5v-602h-207l-31 70q-45 -42 -113 -66t-137 -24q-86 0 -152 23.5t-103.5 58t-61.5 81.5t-31.5 87t-7.5 81q0 94 33.5 164t91.5 108t125.5 56t146.5 18q62 0 133 -14q0 123 -116 123 q-84 0 -265 -76l-104 238q106 55 202 82.5t212 31.5zM653 319v78q-62 17 -96 17q-135 0 -135 -90q0 -31 26.5 -48.5t65.5 -17.5q44 0 82.5 17.5t56.5 43.5zM324 1370l340 264l143 -202l-369 -230z" />
<glyph unicode="&#xe2;" horiz-adv-x="1130" d="M582 1042q74 0 133 -14t99 -36t69 -57.5t45 -70.5t25 -83t11.5 -87.5t2.5 -91.5v-602h-207l-31 70q-45 -42 -113 -66t-137 -24q-86 0 -152 23.5t-103.5 58t-61.5 81.5t-31.5 87t-7.5 81q0 94 33.5 164t91.5 108t125.5 56t146.5 18q62 0 133 -14q0 123 -116 123 q-84 0 -265 -76l-104 238q106 55 202 82.5t212 31.5zM653 319v78q-62 17 -96 17q-135 0 -135 -90q0 -31 26.5 -48.5t65.5 -17.5q44 0 82.5 17.5t56.5 43.5zM565 1632l340 -264l-114 -168l-226 139l-225 -139l-115 168z" />
<glyph unicode="&#xe3;" horiz-adv-x="1130" d="M582 1042q74 0 133 -14t99 -36t69 -57.5t45 -70.5t25 -83t11.5 -87.5t2.5 -91.5v-602h-207l-31 70q-45 -42 -113 -66t-137 -24q-86 0 -152 23.5t-103.5 58t-61.5 81.5t-31.5 87t-7.5 81q0 94 33.5 164t91.5 108t125.5 56t146.5 18q62 0 133 -14q0 123 -116 123 q-84 0 -265 -76l-104 238q106 55 202 82.5t212 31.5zM653 319v78q-62 17 -96 17q-135 0 -135 -90q0 -31 26.5 -48.5t65.5 -17.5q44 0 82.5 17.5t56.5 43.5zM350 1204l-166 103q50 108 120 156t142 48q42 0 114 -33.5t114 -33.5q58 0 104 74l166 -103q-50 -108 -122 -157.5 t-144 -49.5q-42 0 -109.5 35t-107.5 35q-68 0 -111 -74z" />
<glyph unicode="&#xe4;" horiz-adv-x="1136" d="M582 1042q74 0 133 -14t99 -36t69 -57.5t45 -70.5t25 -83t11.5 -87.5t2.5 -91.5v-602h-207l-31 70q-45 -42 -113 -66t-137 -24q-86 0 -152 23.5t-103.5 58t-61.5 81.5t-31.5 87t-7.5 81q0 94 33.5 164t91.5 108t125.5 56t146.5 18q62 0 133 -14q0 123 -116 123 q-84 0 -265 -76l-104 238q106 55 202 82.5t212 31.5zM653 319v78q-62 17 -96 17q-135 0 -135 -90q0 -31 26.5 -48.5t65.5 -17.5q44 0 82.5 17.5t56.5 43.5zM160 1370q0 69 48 117.5t118 48.5q69 0 116 -48.5t47 -117.5q0 -70 -47 -117t-116 -47q-71 0 -118.5 47t-47.5 117z M643 1370q0 69 48 117.5t118 48.5q69 0 116.5 -48.5t47.5 -117.5q0 -70 -47.5 -117t-116.5 -47q-71 0 -118.5 47t-47.5 117z" />
<glyph unicode="&#xe5;" horiz-adv-x="1130" d="M582 1042q74 0 133 -14t99 -36t69 -57.5t45 -70.5t25 -83t11.5 -87.5t2.5 -91.5v-602h-207l-31 70q-45 -42 -113 -66t-137 -24q-86 0 -152 23.5t-103.5 58t-61.5 81.5t-31.5 87t-7.5 81q0 94 33.5 164t91.5 108t125.5 56t146.5 18q62 0 133 -14q0 123 -116 123 q-84 0 -265 -76l-104 238q106 55 202 82.5t212 31.5zM653 319v78q-62 17 -96 17q-135 0 -135 -90q0 -31 26.5 -48.5t65.5 -17.5q44 0 82.5 17.5t56.5 43.5zM348 1409q0 89 64 153t153 64t152 -64t63 -153t-63 -152t-152 -63t-153 63t-64 152zM504 1409q0 -23 18 -41t43 -18 q23 0 41.5 18t18.5 41q0 25 -18.5 43t-41.5 18q-25 0 -43 -18t-18 -43z" />
<glyph unicode="&#xe6;" horiz-adv-x="1646" d="M1540 444h-598q17 -73 63.5 -120.5t120.5 -47.5q133 0 246 82l148 -217q-99 -83 -190 -118t-204 -35q-200 0 -329 104q-148 -112 -318 -112q-86 0 -152 23.5t-103.5 58t-61.5 81.5t-31.5 87t-7.5 81q0 94 33.5 164t91.5 108t125.5 56t146.5 18q58 0 109 -10q13 61 14 62 q-19 57 -106 57q-84 0 -265 -76l-104 238q106 55 202 82.5t212 31.5q174 0 266 -73q116 69 278 69q203 0 315.5 -120t112.5 -324q0 -61 -14 -150zM1126 754q-141 0 -176 -131h293q-12 128 -117 131zM514 258q40 0 77 15t56 38q-14 43 -24 95q-40 8 -66 8q-135 0 -135 -90 q0 -31 26.5 -48.5t65.5 -17.5z" />
<glyph unicode="&#xe7;" horiz-adv-x="1153" d="M596 -184h-51l-27 26v156q-106 20 -186 75.5t-123.5 130t-64.5 151.5t-21 153q0 70 13.5 138t50.5 141t93 127.5t148.5 89.5t210.5 36q238 0 422 -200l-184 -203q-50 53 -115 82t-123 29q-52 0 -92.5 -22t-63 -57.5t-34 -75t-11.5 -79.5q0 -104 60 -165.5t143 -61.5 q103 0 217 108l184 -221q-167 -170 -356 -186v-45q53 -1 94 -20t63 -48t33 -59.5t11 -59.5q0 -109 -71 -167t-173 -58q-106 0 -217 51l55 152q103 -31 142 -31q30 0 49 13.5t20 39.5q2 23 -19.5 41.5t-76.5 18.5z" />
<glyph unicode="&#xe8;" horiz-adv-x="1124" d="M1018 444h-598q17 -73 63.5 -120.5t120.5 -47.5q133 0 246 82l147 -217q-99 -83 -189.5 -118t-203.5 -35q-112 0 -202.5 34t-147 87.5t-94.5 124.5t-53 140.5t-15 139.5q0 69 15 137.5t53 139.5t94.5 125t147 88t202.5 34q203 0 315.5 -120t112.5 -324q0 -61 -14 -150z M604 754q-141 0 -176 -131h293q-12 128 -117 131zM463 1632l340 -264l-115 -168l-369 230z" />
<glyph unicode="&#xe9;" horiz-adv-x="1124" d="M1018 444h-598q17 -73 63.5 -120.5t120.5 -47.5q133 0 246 82l147 -217q-99 -83 -189.5 -118t-203.5 -35q-112 0 -202.5 34t-147 87.5t-94.5 124.5t-53 140.5t-15 139.5q0 69 15 137.5t53 139.5t94.5 125t147 88t202.5 34q203 0 315.5 -120t112.5 -324q0 -61 -14 -150z M604 754q-141 0 -176 -131h293q-12 128 -117 131zM354 1370l340 264l144 -202l-369 -230z" />
<glyph unicode="&#xea;" horiz-adv-x="1124" d="M1018 444h-598q17 -73 63.5 -120.5t120.5 -47.5q133 0 246 82l147 -217q-99 -83 -189.5 -118t-203.5 -35q-112 0 -202.5 34t-147 87.5t-94.5 124.5t-53 140.5t-15 139.5q0 69 15 137.5t53 139.5t94.5 125t147 88t202.5 34q203 0 315.5 -120t112.5 -324q0 -61 -14 -150z M604 754q-141 0 -176 -131h293q-12 128 -117 131zM592 1632l340 -264l-115 -168l-225 139l-225 -139l-115 168z" />
<glyph unicode="&#xeb;" horiz-adv-x="1124" d="M1018 444h-598q17 -73 63.5 -120.5t120.5 -47.5q133 0 246 82l147 -217q-99 -83 -189.5 -118t-203.5 -35q-112 0 -202.5 34t-147 87.5t-94.5 124.5t-53 140.5t-15 139.5q0 69 15 137.5t53 139.5t94.5 125t147 88t202.5 34q203 0 315.5 -120t112.5 -324q0 -61 -14 -150z M604 754q-141 0 -176 -131h293q-12 128 -117 131zM156 1370q0 69 48 117.5t118 48.5q69 0 116 -48.5t47 -117.5q0 -70 -47 -117t-116 -47q-71 0 -118.5 47t-47.5 117zM639 1370q0 69 48 117.5t118 48.5q69 0 116.5 -48.5t47.5 -117.5q0 -70 -47.5 -117t-116.5 -47 q-71 0 -118.5 47t-47.5 117z" />
<glyph unicode="&#xec;" horiz-adv-x="565" d="M420 1024v-1024h-279v1024h279zM184 1622l340 -264l-114 -168l-369 229z" />
<glyph unicode="&#xed;" horiz-adv-x="565" d="M420 1024v-1024h-279v1024h279zM41 1358l340 264l143 -203l-368 -229z" />
<glyph unicode="&#xee;" horiz-adv-x="679" d="M477 1024v-1024h-278v1024h278zM340 1622l340 -264l-115 -168l-225 139l-225 -139l-115 168z" />
<glyph unicode="&#xef;" horiz-adv-x="813" d="M545 1024v-1024h-279v1024h279zM0 1370q0 69 48 117.5t118 48.5q69 0 116.5 -48.5t47.5 -117.5q0 -70 -47.5 -117t-116.5 -47q-71 0 -118.5 47t-47.5 117zM483 1370q0 69 48 117.5t118 48.5q69 0 116.5 -48.5t47.5 -117.5q0 -70 -47.5 -117t-116.5 -47q-71 0 -118.5 47 t-47.5 117z" />
<glyph unicode="&#xf0;" d="M305 1098l84 84q-42 33 -84 55l154 231q72 -40 133 -82l100 105l131 -131l-90 -90q157 -150 251.5 -354t94.5 -453q0 -49 -11.5 -105t-45 -123.5t-84.5 -121t-139 -89.5t-199 -36t-198.5 34.5t-138 85t-84 116t-45 119.5t-11.5 103q0 57 10 111.5t37 115t69 107.5t113 83 t162 48q64 9 135 -8q-45 82 -123 160l-94 -92zM600 276q82 0 128 53t46 126q-3 75 -47.5 125.5t-126.5 50.5q-83 0 -127.5 -52t-44.5 -124q0 -73 46 -126t126 -53z" />
<glyph unicode="&#xf1;" d="M475 688v-688h-311v1024h203l34 -63q46 37 110.5 58t125.5 21q82 0 148 -16t111.5 -43t79.5 -67.5t53 -83t31 -96.5t15.5 -101.5t3.5 -104.5v-528h-315v528q0 37 -1.5 61t-9 59t-21 56t-40.5 36.5t-65 15.5q-50 0 -90 -19t-62 -49zM387 1198l-166 102q50 108 120 156.5 t142 48.5q42 0 114 -33.5t114 -33.5q59 0 104 73l166 -102q-50 -108 -122 -157.5t-144 -49.5q-43 0 -110 35t-107 35q-68 0 -111 -74z" />
<glyph unicode="&#xf2;" horiz-adv-x="1265" d="M633 1044q113 0 203.5 -35t146.5 -90t93 -127.5t52 -141.5t15 -138q0 -71 -15 -140.5t-52 -141t-93 -125.5t-146.5 -88.5t-203.5 -34.5t-203.5 34.5t-146.5 88.5t-93 125.5t-52 141t-15 140.5q0 69 15 138t52 141.5t93 127.5t146.5 90t203.5 35zM633 266q49 0 87 20 t58 48.5t33 65t16.5 63t3.5 49.5q0 30 -7 65.5t-26 80t-61.5 73.5t-103.5 29t-104.5 -29t-62.5 -73.5t-26.5 -80t-7.5 -65.5q0 -23 3.5 -49.5t16.5 -63t34 -65t59 -48.5t88 -20zM535 1622l339 -264l-114 -168l-369 229z" />
<glyph unicode="&#xf3;" horiz-adv-x="1265" d="M633 1044q113 0 203.5 -35t146.5 -90t93 -127.5t52 -141.5t15 -138q0 -71 -15 -140.5t-52 -141t-93 -125.5t-146.5 -88.5t-203.5 -34.5t-203.5 34.5t-146.5 88.5t-93 125.5t-52 141t-15 140.5q0 69 15 138t52 141.5t93 127.5t146.5 90t203.5 35zM633 266q49 0 87 20 t58 48.5t33 65t16.5 63t3.5 49.5q0 30 -7 65.5t-26 80t-61.5 73.5t-103.5 29t-104.5 -29t-62.5 -73.5t-26.5 -80t-7.5 -65.5q0 -23 3.5 -49.5t16.5 -63t34 -65t59 -48.5t88 -20zM391 1358l340 264l143 -203l-368 -229z" />
<glyph unicode="&#xf4;" horiz-adv-x="1265" d="M633 1044q113 0 203.5 -35t146.5 -90t93 -127.5t52 -141.5t15 -138q0 -71 -15 -140.5t-52 -141t-93 -125.5t-146.5 -88.5t-203.5 -34.5t-203.5 34.5t-146.5 88.5t-93 125.5t-52 141t-15 140.5q0 69 15 138t52 141.5t93 127.5t146.5 90t203.5 35zM633 266q49 0 87 20 t58 48.5t33 65t16.5 63t3.5 49.5q0 30 -7 65.5t-26 80t-61.5 73.5t-103.5 29t-104.5 -29t-62.5 -73.5t-26.5 -80t-7.5 -65.5q0 -23 3.5 -49.5t16.5 -63t34 -65t59 -48.5t88 -20zM633 1622l340 -264l-115 -168l-225 139l-225 -139l-115 168z" />
<glyph unicode="&#xf5;" horiz-adv-x="1265" d="M633 1044q113 0 203.5 -35t146.5 -90t93 -127.5t52 -141.5t15 -138q0 -71 -15 -140.5t-52 -141t-93 -125.5t-146.5 -88.5t-203.5 -34.5t-203.5 34.5t-146.5 88.5t-93 125.5t-52 141t-15 140.5q0 69 15 138t52 141.5t93 127.5t146.5 90t203.5 35zM633 266q49 0 87 20 t58 48.5t33 65t16.5 63t3.5 49.5q0 30 -7 65.5t-26 80t-61.5 73.5t-103.5 29t-104.5 -29t-62.5 -73.5t-26.5 -80t-7.5 -65.5q0 -23 3.5 -49.5t16.5 -63t34 -65t59 -48.5t88 -20zM418 1198l-166 102q50 108 120 156.5t142 48.5q42 0 113.5 -33.5t113.5 -33.5q60 0 105 73 l166 -102q-50 -108 -122.5 -157.5t-144.5 -49.5q-43 0 -110 35t-107 35q-67 0 -110 -74z" />
<glyph unicode="&#xf6;" horiz-adv-x="1265" d="M633 1044q113 0 203.5 -35t146.5 -90t93 -127.5t52 -141.5t15 -138q0 -71 -15 -140.5t-52 -141t-93 -125.5t-146.5 -88.5t-203.5 -34.5t-203.5 34.5t-146.5 88.5t-93 125.5t-52 141t-15 140.5q0 69 15 138t52 141.5t93 127.5t146.5 90t203.5 35zM633 266q49 0 87 20 t58 48.5t33 65t16.5 63t3.5 49.5q0 30 -7 65.5t-26 80t-61.5 73.5t-103.5 29t-104.5 -29t-62.5 -73.5t-26.5 -80t-7.5 -65.5q0 -23 3.5 -49.5t16.5 -63t34 -65t59 -48.5t88 -20zM225 1356q0 69 48 117.5t118 48.5q69 0 116.5 -48.5t47.5 -117.5q0 -70 -47.5 -117t-116.5 -47 q-71 0 -118.5 47t-47.5 117zM709 1356q0 69 47.5 117.5t117.5 48.5q69 0 116.5 -48.5t47.5 -117.5q0 -70 -47.5 -117t-116.5 -47q-71 0 -118 47t-47 117z" />
<glyph unicode="&#xf7;" horiz-adv-x="958" d="M123 623h713v-224h-713v224zM322 872q0 66 45 111t112 45q66 0 111 -45t45 -111q0 -68 -44.5 -112.5t-111.5 -44.5q-68 0 -112.5 44t-44.5 113zM322 156q0 66 45 111.5t112 45.5q66 0 111 -45.5t45 -111.5q0 -68 -44.5 -112t-111.5 -44q-68 0 -112.5 43.5t-44.5 112.5z " />
<glyph unicode="&#xf8;" horiz-adv-x="1265" d="M299 -45l-170 141l80 97q-86 137 -86 319q0 69 15 138t52 141.5t93 127.5t146.5 90t203.5 35q138 0 244 -53l77 94l170 -141l-82 -98q51 -74 76 -162.5t25 -171.5q0 -71 -15 -140.5t-52 -141t-93 -125.5t-146.5 -88.5t-203.5 -34.5q-159 0 -262 59zM633 266q49 0 87 20 t58 48.5t33 65t16.5 63t3.5 49.5q0 33 -8 72l-256 -308q30 -10 66 -10zM432 512q0 -31 4 -49l242 291q-21 6 -45 6q-61 0 -104.5 -29t-62.5 -73.5t-26.5 -80t-7.5 -65.5z" />
<glyph unicode="&#xf9;" d="M727 336v688h311v-1024h-202l-35 63q-46 -37 -110.5 -58t-125.5 -21q-82 0 -148 16t-111.5 43t-79.5 67.5t-53 83t-31 96.5t-15.5 101.5t-3.5 104.5v528h315v-528q0 -37 1.5 -61t9 -59t21 -56t40.5 -36.5t65 -15.5q50 0 90 19t62 49zM502 1622l340 -264l-115 -168 l-369 229z" />
<glyph unicode="&#xfa;" d="M727 336v688h311v-1024h-202l-35 63q-46 -37 -110.5 -58t-125.5 -21q-82 0 -148 16t-111.5 43t-79.5 67.5t-53 83t-31 96.5t-15.5 101.5t-3.5 104.5v528h315v-528q0 -37 1.5 -61t9 -59t21 -56t40.5 -36.5t65 -15.5q50 0 90 19t62 49zM358 1358l340 264l144 -203 l-369 -229z" />
<glyph unicode="&#xfb;" d="M727 336v688h311v-1024h-202l-35 63q-46 -37 -110.5 -58t-125.5 -21q-82 0 -148 16t-111.5 43t-79.5 67.5t-53 83t-31 96.5t-15.5 101.5t-3.5 104.5v528h315v-528q0 -37 1.5 -61t9 -59t21 -56t40.5 -36.5t65 -15.5q50 0 90 19t62 49zM600 1632l340 -264l-115 -168 l-225 139l-225 -139l-115 168z" />
<glyph unicode="&#xfc;" d="M727 336v688h311v-1024h-202l-35 63q-46 -37 -110.5 -58t-125.5 -21q-82 0 -148 16t-111.5 43t-79.5 67.5t-53 83t-31 96.5t-15.5 101.5t-3.5 104.5v528h315v-528q0 -37 1.5 -61t9 -59t21 -56t40.5 -36.5t65 -15.5q50 0 90 19t62 49zM195 1356q0 69 47.5 117.5 t117.5 48.5q69 0 116.5 -48.5t47.5 -117.5q0 -70 -47.5 -117t-116.5 -47q-71 0 -118 47t-47 117zM678 1356q0 69 48 117.5t118 48.5q69 0 116.5 -48.5t47.5 -117.5q0 -70 -47.5 -117t-116.5 -47q-71 0 -118.5 47t-47.5 117z" />
<glyph unicode="&#xfd;" horiz-adv-x="1261" d="M412 1024l215 -559l223 559h350l-610 -1432h-334l203 488l-398 944h351zM389 1358l340 264l143 -203l-368 -229z" />
<glyph unicode="&#xfe;" horiz-adv-x="1259" d="M627 -16q-74 0 -152 20v-410h-311v1840h311v-414q78 20 152 20q113 0 203.5 -34.5t146.5 -89t93 -126t52 -140.5t15 -138t-15 -138t-52 -140.5t-93 -126t-146.5 -89t-203.5 -34.5zM475 723v-422q53 -33 135 -33q64 0 110 27.5t67.5 69.5t30.5 78.5t9 68.5t-9 68.5 t-30.5 78.5t-67.5 69.5t-110 27.5q-82 0 -135 -33z" />
<glyph unicode="&#xff;" horiz-adv-x="1261" d="M412 1024l215 -559l223 559h350l-610 -1432h-334l203 488l-398 944h351zM223 1370q0 69 48 117.5t118 48.5q69 0 116.5 -48.5t47.5 -117.5q0 -70 -47.5 -117t-116.5 -47q-71 0 -118.5 47t-47.5 117zM707 1370q0 69 47.5 117.5t117.5 48.5q69 0 116.5 -48.5t47.5 -117.5 q0 -70 -47.5 -117t-116.5 -47q-71 0 -118 47t-47 117z" />
<glyph unicode="&#x152;" horiz-adv-x="2129" d="M1862 555h-519v-250h664v-305h-969q-100 -23 -202 -23q-113 0 -210.5 25t-169.5 68t-129.5 102.5t-95 125.5t-62.5 140t-35.5 143t-10.5 138q0 67 10.5 135.5t35.5 142t62.5 139.5t95.5 125.5t129.5 102.5t169 68.5t210.5 25.5q99 0 204 -24h967v-306h-664v-268h519v-305 zM836 285q100 0 180 41v780q-78 43 -180 43q-94 0 -166.5 -35.5t-111 -85t-63 -113t-31.5 -110t-7 -86.5q0 -32 5.5 -69.5t18.5 -89.5t41 -98.5t67.5 -87t103.5 -65t143 -24.5z" />
<glyph unicode="&#x153;" horiz-adv-x="1865" d="M1759 444h-598q16 -73 63 -120.5t122 -47.5q132 0 245 82l148 -217q-99 -83 -189.5 -118t-203.5 -35q-221 0 -355 127q-133 -133 -358 -133q-113 0 -203.5 34.5t-146.5 88.5t-93 125.5t-52 141t-15 140.5q0 69 15 138t52 141.5t93 127.5t146.5 90t203.5 35 q224 0 356 -135q136 129 357 129q203 0 315.5 -120t112.5 -324q0 -54 -15 -150zM633 266q49 0 87 20t58 48.5t33 65t16.5 63t3.5 49.5q0 30 -7 65.5t-26 80t-61.5 73.5t-103.5 29t-104.5 -29t-62.5 -73.5t-26.5 -80t-7.5 -65.5q0 -23 3.5 -49.5t16.5 -63t34 -65t59 -48.5 t88 -20zM1346 754q-142 0 -177 -131h293q-12 128 -116 131z" />
<glyph unicode="&#x178;" horiz-adv-x="1427" d="M877 637v-637h-326v633l-490 801h363l289 -482l288 482h365zM307 1780q0 69 48 117.5t118 48.5q69 0 116.5 -48.5t47.5 -117.5q0 -70 -47.5 -117t-116.5 -47q-71 0 -118.5 47t-47.5 117zM791 1780q0 69 47.5 117.5t117.5 48.5q69 0 116.5 -48.5t47.5 -117.5 q0 -70 -47.5 -117t-116.5 -47q-71 0 -118 47t-47 117z" />
<glyph unicode="&#x2c6;" horiz-adv-x="1060" d="M539 1632l340 -264l-115 -168l-225 139l-226 -139l-114 168z" />
<glyph unicode="&#x2dc;" horiz-adv-x="1095" d="M322 1204l-166 103q50 108 120 156t142 48q42 0 113.5 -33.5t113.5 -33.5q59 0 105 74l165 -103q-50 -108 -122 -157.5t-144 -49.5q-43 0 -110 35t-107 35q-67 0 -110 -74z" />
<glyph unicode="&#x2000;" horiz-adv-x="1022" />
<glyph unicode="&#x2001;" horiz-adv-x="2044" />
<glyph unicode="&#x2002;" horiz-adv-x="1022" />
<glyph unicode="&#x2003;" horiz-adv-x="2044" />
<glyph unicode="&#x2004;" horiz-adv-x="681" />
<glyph unicode="&#x2005;" horiz-adv-x="511" />
<glyph unicode="&#x2006;" horiz-adv-x="340" />
<glyph unicode="&#x2007;" horiz-adv-x="340" />
<glyph unicode="&#x2008;" horiz-adv-x="255" />
<glyph unicode="&#x2009;" horiz-adv-x="408" />
<glyph unicode="&#x200a;" horiz-adv-x="113" />
<glyph unicode="&#x2010;" horiz-adv-x="913" d="M164 729h586v-248h-586v248z" />
<glyph unicode="&#x2011;" horiz-adv-x="913" d="M164 729h586v-248h-586v248z" />
<glyph unicode="&#x2012;" horiz-adv-x="913" d="M164 729h586v-248h-586v248z" />
<glyph unicode="&#x2013;" horiz-adv-x="1126" d="M965 528h-801v244h801v-244z" />
<glyph unicode="&#x2014;" horiz-adv-x="1376" d="M1212 528h-1048v244h1048v-244z" />
<glyph unicode="&#x2018;" horiz-adv-x="612" d="M348 1499l137 -78q-37 -62 -73 -144t-43 -126q51 -11 85.5 -57t34.5 -107q0 -73 -53.5 -125.5t-124.5 -52.5q-97 0 -142.5 57t-45.5 138q0 95 75.5 253t149.5 242z" />
<glyph unicode="&#x2019;" horiz-adv-x="612" d="M264 809l-137 78q37 63 73.5 144.5t43.5 125.5q-52 11 -86.5 57t-34.5 107q0 73 53.5 125.5t124.5 52.5q67 0 111 -30t60.5 -71.5t16.5 -92.5q0 -95 -75.5 -253.5t-149.5 -242.5z" />
<glyph unicode="&#x201a;" horiz-adv-x="679" d="M307 -344l-143 70q32 54 67 135t48 127q-111 36 -111 159q0 71 47.5 119.5t118.5 48.5q94 0 138 -53.5t44 -130.5q0 -93 -70 -241t-139 -234z" />
<glyph unicode="&#x201c;" horiz-adv-x="1093" d="M348 1499l137 -78q-37 -62 -73 -144t-43 -126q51 -11 85.5 -57t34.5 -107q0 -73 -53.5 -125.5t-124.5 -52.5q-97 0 -142.5 57t-45.5 138q0 95 75.5 253t149.5 242zM829 1499l138 -78q-37 -63 -73.5 -144.5t-43.5 -125.5q52 -11 86.5 -57t34.5 -107q0 -73 -53.5 -125.5 t-124.5 -52.5q-67 0 -111 30t-61 72t-17 93q0 95 75.5 253t149.5 242z" />
<glyph unicode="&#x201d;" horiz-adv-x="1093" d="M745 809l-137 78q37 63 73.5 144.5t43.5 125.5q-52 11 -86.5 57t-34.5 107q0 73 53.5 125.5t124.5 52.5q51 0 89 -17t59 -45.5t31 -61.5t10 -70q0 -95 -76 -253.5t-150 -242.5zM264 809l-137 78q37 63 73.5 144.5t43.5 125.5q-52 11 -86.5 57t-34.5 107q0 73 53.5 125.5 t124.5 52.5q67 0 111 -30t60.5 -71.5t16.5 -92.5q0 -95 -75.5 -253.5t-149.5 -242.5z" />
<glyph unicode="&#x201e;" horiz-adv-x="1114" d="M307 -344l-143 70q32 54 67 135t48 127q-111 36 -111 159q0 71 47.5 119.5t118.5 48.5q94 0 138 -53.5t44 -130.5q0 -93 -70 -241t-139 -234zM823 -344l-143 70q32 54 67 135t48 127q-111 36 -111 159q0 71 47.5 119.5t118.5 48.5q94 0 138 -53.5t44 -130.5 q0 -93 -70 -241t-139 -234z" />
<glyph unicode="&#x2022;" horiz-adv-x="884" d="M436 315q-106 0 -189 84t-83 191q0 113 82.5 198.5t189.5 85.5q119 0 202 -84.5t83 -199.5q0 -109 -83.5 -192t-201.5 -83z" />
<glyph unicode="&#x2026;" horiz-adv-x="1597" d="M164 158q0 71 51 121.5t121 50.5q71 0 120.5 -50t49.5 -122q0 -70 -50 -120t-120 -50t-121 50t-51 120zM668 158q0 71 51 121.5t121 50.5q71 0 120.5 -50t49.5 -122q0 -70 -50 -120t-120 -50t-121 50t-51 120zM1174 158q0 71 51 121.5t121 50.5q71 0 120.5 -50t49.5 -122 q0 -70 -50 -120t-120 -50t-121 50t-51 120z" />
<glyph unicode="&#x202f;" horiz-adv-x="408" />
<glyph unicode="&#x2039;" horiz-adv-x="673" d="M383 524l229 -288l-163 -142l-388 416v27l388 413l163 -141z" />
<glyph unicode="&#x203a;" horiz-adv-x="673" d="M61 236l230 288l-230 285l164 141l387 -413v-27l-387 -416z" />
<glyph unicode="&#x205f;" horiz-adv-x="511" />
<glyph unicode="&#x20ac;" horiz-adv-x="1193" d="M78 637h82q-2 35 -2 108h-138l58 195h98q19 100 57 186t99 158.5t153.5 114t206.5 41.5q243 0 420 -205l-199 -199q-53 56 -115 85.5t-106 29.5q-87 0 -135.5 -56.5t-71.5 -154.5h379l-55 -195h-338v-4q0 -67 4 -104h277l-52 -195h-182q30 -79 70.5 -123.5t103.5 -44.5 q44 0 106 33t115 90l193 -194q-192 -217 -414 -217q-100 0 -183.5 34t-144.5 96.5t-103.5 144t-67.5 181.5h-173z" />
<glyph unicode="&#x2122;" horiz-adv-x="1390" d="M219 991v381h-127v176h440v-176h-129v-381h-184zM932 987h-25l-112 195l-58 -191h-194l215 555h28l136 -231l125 231h30l221 -555h-188l-66 199z" />
<glyph unicode="&#x25fc;" horiz-adv-x="1024" d="M0 1024h1024v-1024h-1024v1024z" />
</font>
</defs>
</svg>
