<?xml version="1.0" standalone="no"?>
<!DOCTYPE svg PUBLIC "-//W3C//DTD SVG 1.1//EN" "http://www.w3.org/Graphics/SVG/1.1/DTD/svg11.dtd" >
<svg xmlns="http://www.w3.org/2000/svg">
<metadata></metadata>
<defs>
<font id="halis_grbold" horiz-adv-x="1482" >
<font-face units-per-em="2048" ascent="1638" descent="-410" />
<missing-glyph horiz-adv-x="614" />
<glyph unicode="&#xfb01;" horiz-adv-x="1208" d="M1044 1024v-1024h-278v784h-360v-784h-279v784h-107v240h107v76q0 170 103.5 259t265.5 89q144 0 295 -74l-82 -219q-110 45 -197 45q-45 0 -75.5 -25.5t-30.5 -82.5v-68h638z" />
<glyph unicode="&#xfb02;" horiz-adv-x="1224" d="M1061 1434v-1434h-277v1104q-24 50 -97 85.5t-146 35.5q-60 0 -97.5 -28.5t-37.5 -88.5v-84h217v-240h-217v-784h-279v784h-107v240h107v76q0 173 100 262.5t250 89.5q92 0 185.5 -33.5t168.5 -95.5l29 111h201z" />
<glyph unicode="&#xfb03;" horiz-adv-x="1804" d="M1393 1374l-82 -219q-110 45 -197 45q-45 0 -75.5 -25.5t-30.5 -82.5v-68h632v-1024h-278v784h-354v-784h-279v784h-323v-784h-279v784h-107v240h107v76q0 92 29 161t81 109t116 59t141 19q161 0 340 -88q101 88 264 88q144 0 295 -74zM406 1108v-84h323v76q0 38 6 76 q-95 53 -182 53q-65 0 -106 -28.5t-41 -92.5z" />
<glyph unicode="&#xfb04;" horiz-adv-x="1826" d="M406 784v-784h-279v784h-107v240h107v76q0 92 29 161t81 109t116 59t141 19q152 0 335 -86q93 90 250 90q92 0 186 -33.5t169 -95.5l28 111h201v-1434h-277v1104q-24 50 -97 85.5t-146 35.5q-60 0 -97.5 -28.5t-37.5 -88.5v-84h235v-240h-235v-784h-279v784h-323z M406 1108v-84h323v76q0 38 6 76q-88 53 -182 53q-65 0 -106 -28.5t-41 -92.5z" />
<glyph horiz-adv-x="0" />
<glyph horiz-adv-x="682" />
<glyph unicode=" "  horiz-adv-x="614" />
<glyph unicode="&#x09;" horiz-adv-x="614" />
<glyph unicode="&#xa0;" horiz-adv-x="614" />
<glyph unicode="!" horiz-adv-x="720" d="M502 1436v-576l-39 -434h-201l-39 434v576h279zM205 141q0 68 44 113t111 45q66 0 111 -45.5t45 -112.5q0 -65 -45 -111t-111 -46q-67 0 -111 46t-44 111z" />
<glyph unicode="&#x22;" horiz-adv-x="880" d="M799 1438l-49 -523h-189l-49 523h287zM369 1438l-50 -523h-188l-49 523h287z" />
<glyph unicode="#" horiz-adv-x="1177" d="M123 813h164v211h227v-211h150v211h227v-211h164v-225h-164v-152h164v-223h-164v-213h-227v213h-150v-213h-227v213h-164v223h164v152h-164v225zM514 588v-152h150v152h-150z" />
<glyph unicode="$" horiz-adv-x="1314" d="M438 1049q1 -29 17.5 -53.5t37 -40t63 -33t71 -26.5t86.5 -26q60 -18 95.5 -29.5t92.5 -34.5t92 -45.5t77 -59.5t65.5 -78.5t40 -100t16.5 -127.5q0 -156 -120 -268t-310 -137v-189h-209v189q-221 19 -438 139l121 240q243 -117 419 -117q98 0 168 40t70 105 q0 27 -9.5 50.5t-21 40.5t-38.5 34.5t-45 27.5t-57.5 24.5t-59.5 21t-68 20.5q-15 5 -23 7q-54 16 -88.5 27.5t-83.5 32.5t-81 41.5t-67.5 52t-56 68t-34 86t-13.5 107.5q0 178 111.5 288.5t294.5 125.5v184h209v-194q189 -31 373 -117l-111 -248q-89 37 -201 70t-166 33 q-49 0 -84.5 -5.5t-66.5 -19t-48.5 -40t-19.5 -66.5z" />
<glyph unicode="%" horiz-adv-x="1748" d="M387 1446q71 0 128.5 -22t92.5 -57t58.5 -81t33 -90t9.5 -88t-9.5 -87.5t-33 -89t-59 -79.5t-92.5 -56t-128 -22q-72 0 -130 22t-94 56t-59.5 79.5t-33 89t-9.5 87.5t9.5 88t33 90t59.5 81t94 57t130 22zM387 995q27 0 46 12.5t27.5 33t11.5 36.5t3 31q0 16 -3 32.5 t-11.5 37t-27.5 33t-46 12.5q-23 0 -41 -9t-27 -21.5t-15 -30t-7.5 -30t-1.5 -24.5q0 -15 3 -31t11.5 -36.5t28.5 -33t49 -12.5zM1237 1434l-475 -1434h-244l477 1434h242zM1366 662q71 0 128.5 -22t92.5 -57t58.5 -81t33 -90t9.5 -88t-9.5 -87.5t-33 -89t-59 -79.5 t-92.5 -56t-128 -22q-72 0 -129.5 22t-93 56t-59 79.5t-33 89t-9.5 87.5t9.5 88t33 90t59 81t93 57t129.5 22zM1366 211q27 0 46.5 13t28 32.5t12 36t3.5 31.5q0 23 -5.5 45.5t-27 45.5t-57.5 23q-37 0 -59 -23t-27.5 -45.5t-5.5 -45.5q0 -15 3.5 -31.5t12 -36t28.5 -32.5 t48 -13z" />
<glyph unicode="&#x26;" horiz-adv-x="1472" d="M610 922q56 42 86.5 84t30.5 100q0 47 -27.5 81t-78.5 34q-59 0 -85 -38t-26 -79q0 -36 17 -72.5t35 -58t48 -51.5zM432 424q0 -84 60.5 -135t142.5 -51q125 0 203 67l-269 289q-135 -94 -137 -170zM985 1108q0 -204 -207 -367l207 -221q52 121 70 234l233 -45 q-18 -209 -117 -392l179 -188l-181 -168l-155 160q-152 -135 -393 -135q-99 2 -185 38.5t-145 95.5t-93 135t-34 157q0 129 58.5 215.5t164.5 156.5q-5 3 -10.5 11t-7.5 10q-115 130 -115 297q0 65 22.5 126.5t66.5 113t118 83t168 31.5q88 0 158 -30t112 -80t64 -111 t22 -127z" />
<glyph unicode="'" horiz-adv-x="450" d="M369 1438l-50 -523h-188l-49 523h287z" />
<glyph unicode="(" horiz-adv-x="655" d="M61 602q0 524 345 1018l188 -115q-256 -470 -256 -901q0 -445 256 -915l-188 -113q-345 488 -345 1026z" />
<glyph unicode=")" horiz-adv-x="655" d="M594 602q0 -540 -344 -1026l-189 113q256 470 256 915q0 431 -256 901l189 115q344 -493 344 -1018z" />
<glyph unicode="*" horiz-adv-x="983" d="M403 682l-10 205l-182 -92l-88 151l170 113l-170 110l88 152l182 -92l10 205h177l10 -205l182 92l88 -152l-172 -110l172 -113l-88 -151l-182 92l-10 -205h-177z" />
<glyph unicode="+" horiz-adv-x="1142" d="M455 287v291h-291v231h291v291h233v-291h291v-231h-291v-291h-233z" />
<glyph unicode="," horiz-adv-x="679" d="M307 -344l-143 70q32 54 67 135t48 127q-111 36 -111 159q0 71 47.5 119.5t118.5 48.5q94 0 138 -53.5t44 -130.5q0 -93 -70 -241t-139 -234z" />
<glyph unicode="-" horiz-adv-x="913" d="M164 723h586v-236h-586v236z" />
<glyph unicode="." horiz-adv-x="669" d="M164 158q0 71 51 121.5t121 50.5q71 0 120.5 -50t49.5 -122q0 -70 -50 -120t-120 -50t-121 50t-51 120z" />
<glyph unicode="/" horiz-adv-x="841" d="M780 1434l-475 -1434h-244l478 1434h241z" />
<glyph unicode="0" horiz-adv-x="1323" d="M659 1399q119 0 214.5 -46.5t155 -119t99.5 -168.5t56 -188t16 -183q0 -94 -16 -186.5t-56 -188t-99.5 -168t-155 -118t-214.5 -45.5q-118 0 -213 46t-154 118t-98.5 167.5t-55 188t-15.5 186.5q0 91 15.5 183t55 188t98.5 168.5t154 119t213 46.5zM659 236 q64 0 114 37.5t76.5 91t43.5 121t22 117.5t5 91t-5 90.5t-22 117t-43.5 120t-76.5 90t-114 37.5q-54 0 -97.5 -25.5t-70.5 -68.5t-46 -91.5t-28.5 -102.5t-13.5 -94t-4 -73q0 -41 5 -91t22 -117.5t44 -121t76 -91t113 -37.5z" />
<glyph unicode="1" horiz-adv-x="854" d="M670 1389v-1389h-279v969l-190 -107l-119 189l487 338h101z" />
<glyph unicode="2" horiz-adv-x="1101" d="M248 983l-166 176q112 122 231.5 182t233.5 60q192 0 312 -103.5t120 -298.5q0 -148 -170 -383l-262 -356h395v-260h-874l-7 14l543 766q105 148 105 228q0 61 -37.5 103t-122.5 42q-125 0 -301 -170z" />
<glyph unicode="3" horiz-adv-x="1097" d="M975 997q0 -88 -39 -171t-107 -132q73 -43 109.5 -126.5t36.5 -170.5q0 -49 -11 -99t-42.5 -107t-80.5 -100.5t-132 -72t-189 -28.5q-75 0 -142.5 17t-123 49t-93 60.5t-79.5 67.5l158 187q58 -57 138.5 -98.5t141.5 -41.5q78 0 132.5 43t54.5 123q0 82 -55 130t-132 48 h-203v242h203q76 0 131.5 49t55.5 131q0 80 -54.5 123t-132.5 43q-60 0 -140.5 -41.5t-139.5 -97.5l-158 186q42 39 79.5 68t93 61t123 49t142.5 17q106 0 189 -29t132 -72t80.5 -100t42.5 -107.5t11 -99.5z" />
<glyph unicode="4" horiz-adv-x="1136" d="M895 272v-272h-285v272h-549v160l613 950h221v-856h180v-254h-180zM610 827l-188 -301h188v301z" />
<glyph unicode="5" horiz-adv-x="1161" d="M123 221l186 166q118 -149 244 -149q98 0 155.5 64t57.5 149q0 84 -57.5 144t-157.5 60h-350v736h749v-252h-458v-244h59q113 0 201 -30t140.5 -76.5t86.5 -109t46.5 -121t12.5 -118.5q0 -49 -12.5 -104t-47.5 -118.5t-87 -113t-140.5 -83t-199.5 -33.5q-246 0 -428 233z " />
<glyph unicode="6" horiz-adv-x="1200" d="M729 1409l133 -203q-216 -115 -362 -321q55 24 141 24q102 -5 181.5 -38.5t126.5 -81t77 -110.5t40.5 -120t10.5 -117q0 -33 -6 -70t-21 -81.5t-38 -86.5t-61 -81.5t-85.5 -69t-115.5 -47.5t-148 -18q-111 0 -198.5 36t-138 89t-84 120.5t-45 123t-11.5 104.5 q-1 144 35.5 275.5t94.5 230.5t140 186.5t162.5 147t171.5 108.5zM602 242q95 0 150 63t55 148t-54 147t-151 62t-150.5 -60.5t-56.5 -148.5q0 -86 55 -148.5t152 -62.5z" />
<glyph unicode="7" horiz-adv-x="1009" d="M61 1137v252h881l6 -15l-551 -1374h-288l450 1137h-498z" />
<glyph unicode="8" horiz-adv-x="1159" d="M1036 993q0 -44 -12 -93t-49 -108t-94 -98q155 -93 155 -293q0 -49 -11 -99.5t-42.5 -108.5t-80 -102t-132 -73.5t-190.5 -29.5t-190.5 29t-132 73t-80.5 101.5t-43 108t-11 99.5q0 89 38.5 172.5t108.5 124.5q-147 105 -147 297q0 49 11 99.5t43 107.5t80.5 100t132 72 t190.5 29t190.5 -29t132 -72t80 -100t42.5 -107.5t11 -99.5zM580 229q77 0 131.5 46.5t54.5 123.5q0 82 -54 128t-132 46q-79 0 -134 -46t-55 -128q0 -81 55 -125.5t134 -44.5zM580 819q78 0 132 46t54 128q0 80 -53.5 123t-132.5 43t-134 -43t-55 -123q0 -82 55 -128 t134 -46z" />
<glyph unicode="9" horiz-adv-x="1200" d="M471 -18l-133 202q215 114 362 322q-58 -25 -141 -25q-102 5 -181.5 38.5t-126.5 81t-77 110.5t-40.5 120t-10.5 117q0 33 6 70t21 82t38 86.5t61 81.5t85.5 69.5t115.5 47.5t148 18q111 0 198.5 -36t138 -89t84 -120.5t45 -123t11.5 -104.5q1 -144 -35.5 -275.5 t-94.5 -230.5t-140 -186.5t-162.5 -147t-171.5 -108.5zM598 1149q-95 0 -150 -63t-55 -148t54 -147t151 -62t150.5 60.5t56.5 148.5q0 86 -55 148.5t-152 62.5z" />
<glyph unicode=":" horiz-adv-x="669" d="M164 158q0 71 51 121.5t121 50.5q71 0 120.5 -50t49.5 -122q0 -70 -50 -120t-120 -50t-121 50t-51 120zM164 858q0 71 51 121.5t121 50.5q71 0 120.5 -50t49.5 -122q0 -70 -50 -120t-120 -50t-121 50t-51 120z" />
<glyph unicode=";" horiz-adv-x="679" d="M164 858q0 71 51 121.5t121 50.5q71 0 120.5 -50t49.5 -122q0 -70 -50 -120t-120 -50t-121 50t-51 120zM307 -344l-143 70q32 54 67 135t48 127q-111 36 -111 159q0 71 47.5 119.5t118.5 48.5q94 0 138 -53.5t44 -130.5q0 -93 -70 -241t-139 -234z" />
<glyph unicode="&#x3c;" horiz-adv-x="903" d="M455 602l387 -246l-117 -204l-664 401v98l664 400l117 -203z" />
<glyph unicode="=" horiz-adv-x="1044" d="M881 797h-717v233h717v-233zM881 360h-717v230h717v-230z" />
<glyph unicode="&#x3e;" horiz-adv-x="903" d="M61 356l388 246l-388 246l117 203l664 -400v-98l-664 -401z" />
<glyph unicode="?" horiz-adv-x="1169" d="M727 575v-145h-260v152q0 43 10 81t32.5 74.5t40.5 59t52 61.5q31 36 45.5 54t36.5 51t31.5 64.5t9.5 64.5q0 18 -5 35t-18 36.5t-41.5 30t-68.5 8.5q-58 -3 -114.5 -41t-139.5 -121l-174 166q120 131 225 189.5t238 58.5q168 0 273.5 -95t105.5 -265q0 -55 -16 -108.5 t-48 -104.5t-57.5 -83.5t-65.5 -78.5q-30 -35 -46 -55.5t-31 -46.5t-15 -42zM436 125q0 67 46 112.5t114 45.5q67 0 113.5 -45.5t46.5 -112.5t-47 -113.5t-113 -46.5q-69 0 -114.5 44t-45.5 116z" />
<glyph unicode="@" horiz-adv-x="2347" d="M1188 1495q234 0 429.5 -75.5t328 -207.5t205.5 -312.5t73 -389.5q0 -98 -16.5 -193.5t-56.5 -189.5t-98.5 -165t-150 -115t-204.5 -44q-82 0 -148 36.5t-104 103.5q-123 -97 -289 -97q-115 0 -208 36t-150.5 92.5t-96 131t-54 146.5t-15.5 145q0 60 11.5 120.5t35 124 t65.5 117.5t97.5 97t136.5 67.5t178 24.5q166 0 281 -88l24 72h189v-789q2 -44 18.5 -69t61.5 -25q97 0 159 129.5t62 321.5q0 157 -52 291.5t-148 233.5t-242.5 155.5t-327.5 56.5q-369 0 -581.5 -233t-207.5 -629q1 -95 26.5 -188.5t80.5 -189t135 -178.5t199.5 -156 t265.5 -122l-113 -231q-283 95 -478.5 259t-289 367t-94.5 439q-1 239 73.5 445t211 355.5t337.5 234.5t441 85zM1376 195v405q-35 46 -89.5 77.5t-119.5 31.5q-54 0 -98 -17.5t-71 -46.5t-46.5 -62.5t-29 -71t-13.5 -65t-4 -51.5q0 -29 5.5 -63t22.5 -79.5t44 -81 t76.5 -60.5t113.5 -25q137 0 209 109z" />
<glyph unicode="A" d="M61 0l670 1452h21l669 -1452h-321l-142 338h-434l-139 -338h-324zM741 858l-116 -280h233z" />
<glyph unicode="B" horiz-adv-x="1382" d="M1260 1006q0 -81 -51 -166t-126 -121q76 -39 126.5 -117.5t50.5 -175.5q0 -60 -15 -117.5t-52.5 -114.5t-94 -99t-147 -68.5t-203.5 -26.5h-543v1434h543q113 0 203.5 -26.5t147 -69t94 -100t52.5 -115t15 -117.5zM774 838q58 1 99 20.5t59.5 48.5t25.5 53t7 46 q0 15 -3.5 32.5t-16.5 41.5t-33 43t-57.5 32.5t-86.5 13.5h-276v-331h282zM768 266q49 0 86.5 13t57.5 31.5t33 42.5t16.5 41t3.5 32q0 24 -7 46.5t-25.5 48t-59 42t-99.5 17.5h-282v-314h276z" />
<glyph unicode="C" horiz-adv-x="1517" d="M1395 1186l-191 -185q-61 75 -166 129t-202 54q-76 0 -138.5 -20t-105 -51.5t-75 -75t-51 -86t-30 -89t-15 -80.5t-3.5 -63t4 -62.5t15.5 -80t30 -89t51.5 -85.5t75 -74.5t105 -51.5t139 -20q98 0 203 48t182 118l163 -199q-241 -241 -550 -241q-114 0 -211.5 25 t-169 67.5t-129.5 101t-95 124t-62 139t-35.5 142.5t-10.5 138q0 67 10.5 135t35.5 141t62 139t95 125t129.5 102t169 68t211.5 25q175 0 309.5 -69t249.5 -199z" />
<glyph unicode="D" horiz-adv-x="1546" d="M715 0h-510v1434h510q132 0 241.5 -32t185 -87.5t131.5 -125.5t88 -152t47 -160.5t15 -157.5q0 -98 -20.5 -193t-72.5 -192t-129.5 -169.5t-203 -118.5t-282.5 -46zM492 266h223q75 0 137 19t104 50t74.5 73t50.5 83.5t29.5 87t15.5 78.5t4 62q0 43 -8 92.5t-34.5 116 t-69.5 117.5t-121.5 87.5t-181.5 36.5h-223v-903z" />
<glyph unicode="E" horiz-adv-x="1302" d="M1030 573h-536v-307h686v-266h-975v1434h975v-267h-686v-327h536v-267z" />
<glyph unicode="F" horiz-adv-x="1302" d="M1030 573h-536v-573h-289v1434h975v-267h-686v-327h536v-267z" />
<glyph unicode="G" horiz-adv-x="1488" d="M1071 502h-283v262h574v-571q-211 -211 -526 -211q-114 0 -211.5 25t-169 67.5t-129.5 101t-95 124t-62 139t-35.5 142.5t-10.5 138q0 67 10.5 135t35.5 141t62 139t95 125t129.5 102t169 68t211.5 25q167 0 295.5 -59.5t234.5 -173.5l-178 -193q-62 65 -162 110.5 t-190 45.5q-76 0 -138.5 -19.5t-105 -51t-75 -74.5t-51 -85.5t-30 -88.5t-15 -79.5t-3.5 -62.5t3.5 -63.5t15 -82t30 -91.5t51 -88.5t75 -77.5t105 -53.5t138.5 -20.5q63 0 130.5 20t104.5 53v183z" />
<glyph unicode="H" horiz-adv-x="1587" d="M496 573v-573h-291v1434h291v-594h598v594h288v-1434h-288v573h-598z" />
<glyph unicode="I" horiz-adv-x="700" d="M496 1434v-1434h-291v1434h291z" />
<glyph unicode="J" horiz-adv-x="1292" d="M41 422l258 94q18 -55 39 -98t52 -80.5t75 -57t98 -18.5q63 2 109 27t68.5 57t36 77.5t16 74.5t2.5 61v875h292v-875q0 -77 -13 -150.5t-49.5 -152t-92.5 -136t-151.5 -95t-217.5 -37.5q-94 0 -171.5 23t-132 61t-98 95.5t-70.5 118t-50 136.5z" />
<glyph unicode="K" horiz-adv-x="1454" d="M496 0h-291v1434h291v-574l505 574h318l6 -17l-600 -678l647 -725l-4 -14h-328l-544 604v-604z" />
<glyph unicode="L" horiz-adv-x="1155" d="M496 1434v-1168h536v-266h-827v1434h291z" />
<glyph unicode="M" horiz-adv-x="2072" d="M1047 -12h-21l-397 784l-258 -772h-310l527 1442h22l426 -881l426 881h23l526 -1442h-309l-258 772z" />
<glyph unicode="N" horiz-adv-x="1589" d="M205 1438l18 8l871 -825v813h290v-1436l-20 -8l-868 831v-821h-291v1438z" />
<glyph unicode="O" horiz-adv-x="1667" d="M836 1458q113 0 210 -25.5t168 -68.5t128.5 -102.5t94.5 -125.5t61.5 -139.5t35 -142t10.5 -135.5q0 -69 -10.5 -138t-35 -143t-61.5 -140t-94.5 -125.5t-128.5 -102.5t-168 -68t-210 -25q-114 0 -211.5 25t-169 68t-129.5 102.5t-95 125.5t-62 140t-35.5 143t-10.5 138 q0 67 10.5 135.5t35.5 142t62 139t95 125.5t129.5 103t169 68.5t211.5 25.5zM836 246q74 0 136 20.5t103.5 52.5t74 76.5t50.5 88t29.5 90.5t15.5 81.5t4 63.5q0 44 -8 94.5t-34.5 120t-69 123.5t-121 92.5t-180.5 38.5q-76 0 -138.5 -20t-105 -52t-75 -76t-51 -87t-30 -90 t-15 -81t-3.5 -63t3.5 -63t15 -81.5t30 -91t51 -88t75 -76.5t105 -52.5t138.5 -20.5z" />
<glyph unicode="P" horiz-adv-x="1386" d="M496 498v-498h-291v1434h547q113 0 203.5 -30.5t147 -78t94 -111t52.5 -124t15 -121.5q0 -136 -72.5 -246t-182.5 -167.5t-231 -57.5h-282zM770 766q47 1 84.5 16.5t59 38t35.5 51t19 52.5t5 45q0 24 -5 48t-19.5 52.5t-37 49.5t-61 35.5t-88.5 14.5h-266v-403h274z" />
<glyph unicode="Q" horiz-adv-x="1687" d="M836 1454q113 0 210 -25t168 -68t128.5 -102t94.5 -125t61.5 -139t35 -141t10.5 -135q0 -108 -26 -213.5t-90.5 -213t-161.5 -179.5l323 -381v-27h-332l-235 297q-102 -20 -186 -20q-114 0 -211.5 25t-169 67.5t-129.5 101t-95 124t-62 139t-35.5 142.5t-10.5 138 q0 67 10.5 135t35.5 141t62 139t95 125t129.5 102t169 68t211.5 25zM836 250q102 0 180.5 38.5t121 92.5t69 123.5t34.5 120t8 94.5q0 43 -8 94t-34.5 119.5t-69 122t-121 91.5t-180.5 38q-76 0 -138.5 -20t-105 -51.5t-75 -75t-51 -86t-30 -89t-15 -80.5t-3.5 -63t3.5 -63 t15 -81t30 -90t51 -87t75 -76t105 -52t138.5 -20z" />
<glyph unicode="R" horiz-adv-x="1382" d="M492 498v-498h-287v1434h543q113 0 203.5 -30.5t147 -78t94 -111t52.5 -124t15 -121.5q0 -149 -78 -260t-205 -166l256 -543h-315l-234 498h-192zM766 766q47 1 84.5 16.5t59 38t35.5 51t19 52.5t5 45q0 24 -5 48t-19.5 52.5t-37 49.5t-61 35.5t-88.5 14.5h-266v-403h274 z" />
<glyph unicode="S" horiz-adv-x="1314" d="M438 1053q1 -28 17 -52t35 -40t61 -35t67.5 -28.5t83.5 -29.5q184 -63 261 -104q199 -106 226 -283q6 -41 3 -86q-11 -177 -156 -294t-366 -117q-155 0 -286 35.5t-269 109.5l127 240q243 -117 413 -117q94 0 157 37t73 100q11 71 -50.5 117.5t-179.5 83.5 q-172 54 -222 75q-194 80 -254 214q-32 70 -32 159q0 193 129.5 305.5t335.5 112.5q89 0 226.5 -28.5t296.5 -102.5l-105 -244q-253 105 -397 105q-84 0 -138 -31.5t-57 -101.5z" />
<glyph unicode="T" horiz-adv-x="1255" d="M479 0v1167h-387v267h1071v-267h-391v-1167h-293z" />
<glyph unicode="U" horiz-adv-x="1507" d="M754 250q63 0 113.5 24t79.5 59.5t49 79.5t27 79.5t7 64.5v877h293v-877q0 -76 -18 -152.5t-61 -153t-106.5 -134.5t-163 -94.5t-220.5 -36.5q-122 0 -221 36.5t-162.5 94.5t-107 134.5t-61.5 153t-18 152.5v877h291v-877q0 -29 7.5 -64.5t27.5 -79.5t50 -79.5 t80.5 -59.5t113.5 -24z" />
<glyph unicode="V" d="M733 -18l-672 1452h324l356 -859l359 859h321l-671 -1452h-17z" />
<glyph unicode="W" horiz-adv-x="2234" d="M2173 1434l-670 -1442h-12l-375 776l-373 -776h-14l-668 1442h324l356 -842l367 852l16 -2l369 -850l356 842h324z" />
<glyph unicode="X" horiz-adv-x="1349" d="M950 1436h338l-454 -717l454 -719h-334l-280 463l-279 -463h-334l453 719l-453 717h338l275 -459z" />
<glyph unicode="Y" horiz-adv-x="1386" d="M838 641v-641h-289v637l-488 797h320l311 -521l312 521h321z" />
<glyph unicode="Z" horiz-adv-x="1353" d="M578 266h641v-266h-1088l-8 16l647 1153h-586v265h1039l8 -17z" />
<glyph unicode="[" horiz-adv-x="552" d="M61 -420v2017h431v-219h-164v-1579h164v-219h-431z" />
<glyph unicode="\" horiz-adv-x="841" d="M537 0l-476 1434h242l477 -1434h-243z" />
<glyph unicode="]" horiz-adv-x="552" d="M492 1597v-2017h-431v219h164v1579h-164v219h431z" />
<glyph unicode="^" horiz-adv-x="1247" d="M322 797l-158 139l440 532h43l436 -532l-157 -141l-301 342z" />
<glyph unicode="_" horiz-adv-x="862" d="M10 -178v172h842v-172h-842z" />
<glyph unicode="`" horiz-adv-x="1044" d="M338 1610l330 -256l-107 -152l-356 221z" />
<glyph unicode="a" horiz-adv-x="1122" d="M178 934q211 108 402 108q73 0 131 -13.5t97 -35.5t67.5 -57t44 -70t24.5 -83t11.5 -86.5t2.5 -90.5v-606h-192l-21 66q-95 -80 -243 -86q-91 -4 -161.5 17t-110.5 54.5t-65 80.5t-33.5 87.5t-8.5 81.5q0 340 438 340q54 0 119 -14q0 101 -32 134.5t-105 33.5 q-39 0 -120.5 -20t-154.5 -52zM680 301v111q-85 22 -127 22q-166 0 -166 -119q0 -44 35.5 -69t85.5 -25q54 0 102.5 25t69.5 55z" />
<glyph unicode="b" horiz-adv-x="1257" d="M625 1042q119 0 211 -34t147 -87t90.5 -125t48.5 -141t13 -143q0 -70 -14 -139.5t-49.5 -141.5t-89 -126t-141 -88.5t-196.5 -34.5q-66 0 -145.5 26t-122.5 64l-23 -72h-190v1436h276v-428q72 34 185 34zM625 231q60 0 105 22t69 53t38.5 72.5t18.5 72t4 61.5 q0 36 -4.5 68.5t-20.5 73.5t-42 70.5t-73.5 50t-111.5 20.5q-36 0 -87 -15t-81 -35v-434q22 -31 74 -55.5t111 -24.5z" />
<glyph unicode="c" horiz-adv-x="1134" d="M862 354l162 -194q-171 -174 -385 -174q-113 0 -204 34t-148 87.5t-95 124t-53.5 139t-15.5 137.5q0 74 13.5 143t49.5 141.5t91.5 126t147.5 87.5t210 34q224 0 407 -202l-159 -179q-50 54 -118.5 88.5t-129.5 34.5q-112 0 -174 -80t-62 -188q0 -121 70 -191.5 t168 -70.5q52 0 112 25t113 77z" />
<glyph unicode="d" horiz-adv-x="1257" d="M633 1042q112 0 184 -34v428h277v-1436h-191l-22 72q-43 -38 -123 -64t-146 -26q-109 0 -196.5 34.5t-141 88.5t-88.5 126t-49 141.5t-14 139.5q0 74 13 143t48.5 141t90.5 125t147 87t211 34zM633 231q59 0 110 24.5t74 55.5v434q-30 20 -81 35t-87 15 q-64 0 -111.5 -20.5t-73.5 -50t-42 -70.5t-20.5 -73.5t-4.5 -68.5q0 -30 4 -61t18.5 -72.5t38.5 -72.5t69.5 -53t105.5 -22z" />
<glyph unicode="e" horiz-adv-x="1120" d="M1020 465h-641q13 -97 71.5 -161t153.5 -64q134 0 256 92l135 -187q-96 -79 -189 -118t-202 -39q-112 0 -202.5 34t-147 87.5t-94.5 124.5t-53 140.5t-15 139.5q0 69 15 137.5t53 139.5t94.5 125t147 88t202.5 34q201 0 312.5 -119t111.5 -321q0 -43 -8 -133zM604 791 q-83 0 -137.5 -44t-79.5 -118h367q-4 160 -150 162z" />
<glyph unicode="f" horiz-adv-x="770" d="M791 1374l-82 -219q-110 45 -197 45q-45 0 -75.5 -25.5t-30.5 -82.5v-68h190v-240h-190v-784h-279v784h-107v240h107v76q0 170 103.5 259t265.5 89q144 0 295 -74z" />
<glyph unicode="g" horiz-adv-x="1198" d="M123 -135q2 54 29.5 112.5t78.5 92.5q-84 67 -84 190q0 51 30 100t77 72q-72 78 -72 215q0 55 12.5 108.5t43 107.5t76 94.5t118 66t162.5 25.5q121 0 194 -41l146 137l162 -162l-144 -154q28 -41 43 -93.5t15 -92.5q0 -53 -13 -106t-44.5 -106t-77.5 -93.5t-118.5 -66 t-162.5 -25.5q-93 0 -156 24q-19 -2 -33 -13t-14 -24q0 -38 23.5 -56t87.5 -15q133 6 232.5 -6.5t161 -38t99.5 -66t52 -85.5t14 -103q0 -16 -3 -36t-14.5 -52t-30 -62t-53.5 -62t-81 -55t-116.5 -38t-156.5 -15q-109 0 -195.5 21t-139 53.5t-87 76t-48 85.5t-13.5 86z M594 496q39 0 67 17.5t39.5 45t16 48.5t4.5 40t-4.5 40.5t-16 49.5t-39.5 46t-67 18t-66.5 -17t-40 -44t-17.5 -49.5t-5 -43.5q0 -19 4 -40t16 -48.5t40 -45t69 -17.5zM594 -223q55 0 96 8.5t61 19t32 24t14 20t2 10.5q0 22 -20.5 38t-53.5 23.5t-65 10.5t-66 3 q-209 0 -209 -71q0 -7 4.5 -15.5t18.5 -21t35.5 -22.5t61 -18t89.5 -9z" />
<glyph unicode="h" horiz-adv-x="1196" d="M440 0h-276v1434h276v-447q87 53 197 53q82 0 148 -16t110.5 -42.5t78 -67t52 -82t29.5 -96.5t14.5 -102t3.5 -106v-528h-276v528q0 44 -3 77t-15 71t-32 61.5t-57 39t-88 14.5t-95.5 -24.5t-66.5 -53.5v-713z" />
<glyph unicode="i" horiz-adv-x="641" d="M459 1024v-1024h-279v1024h279zM164 1358q0 66 45.5 112t112.5 46q66 0 110.5 -46t44.5 -112q0 -67 -44.5 -111.5t-110.5 -44.5q-68 0 -113 44.5t-45 111.5z" />
<glyph unicode="j" horiz-adv-x="600" d="M-150 -117q98 -57 173 -57q114 0 114 154v1044h283v-1028v-23q0 -24 -2 -49t-10.5 -65.5t-22.5 -75.5t-42 -73t-65 -64.5t-94.5 -44t-128.5 -17.5q-94 0 -186 39t-135 82zM123 1360q0 67 44.5 112.5t111.5 45.5q66 0 111.5 -46t45.5 -112q0 -68 -45 -112t-112 -44 q-68 0 -112 43.5t-44 112.5z" />
<glyph unicode="k" horiz-adv-x="1230" d="M860 0l-420 459v-459h-276v1434h276v-850l391 440h295l9 -18l-424 -474l458 -514l-8 -18h-301z" />
<glyph unicode="l" horiz-adv-x="608" d="M444 1436v-1436h-280v1436h280z" />
<glyph unicode="m" horiz-adv-x="1751" d="M440 705v-705h-276v1024h188l25 -78q53 45 122 69.5t136 24.5q207 0 301 -102q130 102 287 102q113 0 192 -32.5t120 -76.5t63 -121t26 -134t4 -148v-528h-282v555q2 27 0.5 55t-4 54.5t-12 50t-23.5 41.5t-38 28.5t-57 10.5q-54 0 -99.5 -26t-74.5 -62v-707h-280v555 q1 42 0 67t-7.5 62t-19.5 58t-40 37t-66 16q-60 0 -108.5 -26t-76.5 -64z" />
<glyph unicode="n" horiz-adv-x="1198" d="M440 705v-705h-276v1024h188l25 -74q111 90 258 90q81 0 146.5 -16t111 -43t79 -67.5t53 -83t31 -96.5t15.5 -101.5t4 -104.5v-528h-282v528q0 39 -2.5 70.5t-13 70t-27.5 64t-49 43t-76 17.5q-60 0 -109 -25.5t-76 -62.5z" />
<glyph unicode="o" horiz-adv-x="1265" d="M633 1044q113 0 203.5 -35t146.5 -90t93 -127.5t52 -141.5t15 -138q0 -71 -15 -140.5t-52 -141t-93 -125.5t-146.5 -88.5t-203.5 -34.5t-203.5 34.5t-146.5 88.5t-93 125.5t-52 141t-15 140.5q0 69 15 138t52 141.5t93 127.5t146.5 90t203.5 35zM633 229q58 0 102.5 23 t68.5 56t39 75t19 72.5t4 56.5t-4 57t-19 73t-39 75t-68.5 56.5t-102.5 23.5t-103 -23.5t-69 -56.5t-39.5 -75t-20 -73t-4.5 -57t4.5 -57t20 -72.5t39.5 -74.5t69 -56t103 -23z" />
<glyph unicode="p" horiz-adv-x="1257" d="M625 -16q-113 0 -185 34v-428h-276v1436h190l23 -72q43 38 122.5 64t145.5 26q109 0 196.5 -34.5t141 -88.5t89 -126t49.5 -141.5t14 -139.5q0 -74 -13 -143t-48.5 -141t-90.5 -125t-147 -87t-211 -34zM625 795q-59 0 -111 -24.5t-74 -55.5v-434q30 -20 81 -35t87 -15 q64 0 111.5 20.5t73.5 50t42 70.5t20.5 73.5t4.5 68.5q0 31 -4 61.5t-18.5 72t-38.5 72.5t-69 53t-105 22z" />
<glyph unicode="q" horiz-adv-x="1257" d="M633 -16q-119 0 -211 34t-147 87t-90.5 125t-48.5 141t-13 143q0 70 14 139.5t49 141.5t88.5 126t141 88.5t196.5 34.5q66 0 146 -26t123 -64l22 72h191v-1436h-277v428q-72 -34 -184 -34zM633 795q-60 0 -105.5 -22t-69.5 -53t-38.5 -72.5t-18.5 -72.5t-4 -61 q0 -36 4.5 -68.5t20.5 -73.5t42 -70.5t73.5 -50t111.5 -20.5q36 0 87 15t81 35v434q-23 31 -74 55.5t-110 24.5z" />
<glyph unicode="r" horiz-adv-x="849" d="M809 1020l-80 -254q-68 14 -121 14q-118 0 -168 -84v-696h-276v1024h188l25 -63q116 75 262 75q95 0 170 -16z" />
<glyph unicode="s" horiz-adv-x="1048" d="M424 731q0 -25 36 -43t115 -43q45 -14 69 -22.5t67 -26.5t68 -34.5t56.5 -44t48.5 -57.5t29.5 -72t12.5 -91q0 -138 -109 -225.5t-276 -87.5q-112 0 -209.5 30t-208.5 95l110 217q186 -95 297 -95q46 0 79.5 18t33.5 46q0 21 -12.5 38t-39.5 30.5t-51 21.5t-67 21 q-40 12 -64 20.5t-61.5 24.5t-61 31t-51 40t-43 52.5t-26 65.5t-10.5 83q0 147 95.5 232t252.5 85q183 0 397 -106l-104 -227q-66 32 -141 55.5t-119 23.5q-113 0 -113 -55z" />
<glyph unicode="t" horiz-adv-x="675" d="M127 778h-107v246h107l20 201h259v-201h192v-246h-192v-481q0 -66 57 -66q19 0 41 4.5t58 14.5t46 12l47 -225q-170 -49 -284 -49q-63 0 -110.5 22.5t-72 53.5t-39.5 73t-18.5 71t-3.5 58v512z" />
<glyph unicode="u" horiz-adv-x="1198" d="M758 319v705h276v-1024h-188l-25 74q-111 -90 -258 -90q-81 0 -146.5 16t-111 43t-79 67.5t-53 83t-31 96.5t-15.5 101.5t-4 104.5v528h283v-528q0 -39 2.5 -70.5t12.5 -70t27.5 -64t49 -43t75.5 -17.5q60 0 109 25.5t76 62.5z" />
<glyph unicode="v" horiz-adv-x="1155" d="M578 526l217 498h305l-516 -1028h-15l-514 1028h305z" />
<glyph unicode="w" horiz-adv-x="1564" d="M557 547l219 487h17l215 -487l206 477h293l-485 -1030h-14l-226 455l-227 -455h-14l-484 1030h293z" />
<glyph unicode="x" horiz-adv-x="1032" d="M971 1024l-305 -512l305 -512h-318l-137 252l-137 -252h-318l304 512l-304 512h318l137 -252l137 252h318z" />
<glyph unicode="y" horiz-adv-x="1247" d="M481 82q-62 147 -214 482t-206 460h318l252 -616q63 166 243 616h312l-608 -1432h-289v23z" />
<glyph unicode="z" horiz-adv-x="1042" d="M137 760v264h807l6 -16l-403 -744h383v-264h-832l-6 14l408 746h-363z" />
<glyph unicode="{" horiz-adv-x="659" d="M514 1591h84v-217h-41h-16.5t-25.5 -8t-32.5 -23t-22.5 -49.5t-11 -83.5v-440q0 -53 -32 -103.5t-71 -72.5q40 -26 71.5 -76t31.5 -104v-441q0 -44 10.5 -76.5t24.5 -48.5t31.5 -25.5t27 -11t16.5 -1.5h39v-218h-84q-7 0 -21.5 1.5t-48 9.5t-65 21t-68.5 41t-64 65 t-45 96.5t-18 132.5v442q0 41 -20.5 67.5t-46.5 31.5h-56v188h56q26 3 46.5 28.5t20.5 67.5v443q0 72 18 131t45 96t64 64.5t68.5 41t65 21t48 9t21.5 1.5z" />
<glyph unicode="|" horiz-adv-x="454" d="M332 -412h-209v1991h209v-1991z" />
<glyph unicode="}" horiz-adv-x="659" d="M61 1591h84q7 0 21.5 -1.5t48 -9t65 -21t68.5 -41t64 -64.5t45 -96t18 -131v-443q0 -42 21 -67.5t47 -28.5h55v-188h-55q-26 -5 -47 -31.5t-21 -67.5v-442q0 -73 -18 -132.5t-45 -96.5t-64 -65t-68.5 -41t-65 -21t-48 -9.5t-21.5 -1.5h-84v218h39q7 0 16.5 1.5t27.5 11 t32 25.5t24.5 48.5t10.5 76.5v441q0 54 31 104t71 76q-39 22 -70.5 72.5t-31.5 103.5v440q0 47 -10 81t-22 49.5t-30 24t-26.5 9t-18.5 0.5h-2h-41v217z" />
<glyph unicode="~" horiz-adv-x="1290" d="M299 422l-176 123q147 262 364 262q35 0 73 -12t56.5 -21.5t59.5 -32.5q84 -49 135 -49q75 0 178 135l178 -129q-73 -134 -166 -201t-192 -67q-95 0 -213 74q-88 45 -117 45q-84 0 -180 -127z" />
<glyph unicode="&#xa1;" horiz-adv-x="720" d="M502 168v-576h-279v576l39 434h201zM205 887q0 65 44 111t111 46q66 0 111 -46t45 -111q0 -67 -45 -112.5t-111 -45.5q-67 0 -111 45t-44 113z" />
<glyph unicode="&#xa2;" horiz-adv-x="1134" d="M862 354l162 -194q-134 -137 -287 -164v-174h-209v174q-88 15 -159.5 54.5t-116 91.5t-74.5 116.5t-42.5 126t-12.5 123.5q0 66 11 129t39.5 129.5t72.5 119t116.5 92.5t165.5 54v160h209v-162q162 -36 305 -192l-159 -179q-50 54 -118.5 88.5t-129.5 34.5 q-112 0 -174 -80t-62 -188q0 -121 70 -191.5t168 -70.5q52 0 112 25t113 77z" />
<glyph unicode="&#xa3;" horiz-adv-x="1323" d="M961 1374l-82 -219q-110 45 -197 45q-45 0 -76 -25.5t-31 -82.5v-68h191v-240h-191v-444q30 -6 113.5 -48t136.5 -42q39 0 95 35t102 104l178 -129q-71 -131 -173 -197.5t-204 -66.5q-48 0 -102 18.5t-94 40t-89.5 40t-88.5 18.5q-85 0 -181 -127l-180 118 q50 88 100 140.5t109 85.5v454h-107v240h107v76q0 170 103.5 259t265.5 89q144 0 295 -74z" />
<glyph unicode="&#xa4;" horiz-adv-x="1359" d="M680 1014q123 0 215 -53l188 196l154 -156l-195 -194q54 -100 54 -223q0 -117 -41 -207l182 -182l-154 -152l-172 172q-103 -61 -231 -61q-135 0 -231 59l-173 -170l-153 154l186 180q-45 90 -45 207q0 126 51 225l-190 192l154 156l190 -192q93 49 211 49zM680 422 q40 0 68.5 19t41.5 47.5t18 52t5 43.5t-5 43.5t-18 53t-41.5 48.5t-68.5 19q-41 0 -69.5 -19t-41 -48.5t-17.5 -53t-5 -43.5t5 -43.5t17.5 -52.5t41 -47.5t69.5 -18.5z" />
<glyph unicode="&#xa5;" horiz-adv-x="1384" d="M1049 117h-213v-117h-289v117h-215v207h215v127h-215v211h198l-469 772h318l311 -521l314 521h319l-475 -772h201v-211h-213v-127h213v-207z" />
<glyph unicode="&#xa6;" horiz-adv-x="454" d="M332 385v-793h-209v793h209zM332 1585v-790h-209v790h209z" />
<glyph unicode="&#xa7;" horiz-adv-x="1234" d="M164 -223l151 192q75 -55 157 -95t142 -40q57 0 101.5 30.5t44.5 84.5q0 94 -228 209h3q-147 64 -238.5 168t-91.5 241q0 80 35.5 146t83.5 110q-105 128 -105 256q0 64 25.5 127t74.5 118.5t132 89.5t186 34q199 0 416 -158l-144 -209q-169 102 -262 107q-72 0 -110 -30 t-41 -71q1 -44 52 -91.5t128 -84.5q82 -40 145.5 -79.5t123.5 -92.5t93 -118t33 -138q0 -79 -39 -148t-92 -118q113 -131 113 -274q0 -109 -56.5 -195t-150 -131t-205.5 -45q-253 0 -477 205zM473 584q0 -34 16.5 -63.5t48 -53t59.5 -40.5t69 -37.5t59 -31.5q43 50 54 85 q4 14 5 28q0 31 -31.5 63t-68.5 52t-90.5 47t-73.5 39q-47 -43 -47 -88z" />
<glyph unicode="&#xa8;" horiz-adv-x="1191" d="M203 1366q0 66 45 112t112 46q66 0 111 -46t45 -112q0 -67 -45 -111.5t-111 -44.5q-68 0 -112.5 44.5t-44.5 111.5zM672 1366q0 66 45 112t112 46q66 0 111 -46t45 -112q0 -67 -45 -111.5t-111 -44.5q-68 0 -112.5 44.5t-44.5 111.5z" />
<glyph unicode="&#xa9;" horiz-adv-x="1200" d="M481 922q0 64 37 103.5t90 39.5q73 0 135 -70l95 99q-49 59 -103 89.5t-127 30.5q-63 0 -114.5 -19.5t-84.5 -49.5t-55 -69.5t-31.5 -78t-9.5 -75.5q0 -39 9.5 -78t31.5 -78.5t55 -70t84.5 -49.5t114.5 -19q72 0 126 31t104 90l-93 94q-61 -64 -137 -64q-53 0 -90 39.5 t-37 104.5zM600 1444q215 0 366.5 -151.5t151.5 -366.5t-151.5 -366.5t-366.5 -151.5q-98 0 -192 40t-166 108t-116 166t-44 208q0 131 67.5 249t188 191.5t262.5 73.5zM600 557q155 0 262 107t107 262t-107 262.5t-262 107.5t-263 -107.5t-108 -262.5t108 -262t263 -107z " />
<glyph unicode="&#xaa;" horiz-adv-x="823" d="M383 1450q6 0 18.5 1t18.5 1q75 0 128.5 -20t82.5 -49t45 -75.5t20 -85.5t4 -94v-448h-143l-14 49q-68 -60 -181 -63q-68 -3 -120 12t-81.5 40t-48 59.5t-24.5 64.5t-6 61q0 252 324 252q34 0 88 -12q0 75 -23.5 100t-77.5 25q-29 0 -89 -15.5t-114 -38.5l-67 156 q139 74 260 80zM494 903v82q-61 16 -95 16q-123 0 -123 -88q0 -32 26.5 -50.5t64.5 -18.5q41 0 77 18t50 41z" />
<glyph unicode="&#xab;" horiz-adv-x="1132" d="M360 524l234 -293l-150 -131l-383 410v27l383 407l150 -131zM838 524l233 -293l-149 -131l-383 410v27l383 407l149 -131z" />
<glyph unicode="&#xac;" horiz-adv-x="1284" d="M1120 860v-684h-452v260h-504v424h956z" />
<glyph unicode="&#xad;" horiz-adv-x="819" d="M125 545h577v-238h-577v238z" />
<glyph unicode="&#xae;" horiz-adv-x="1200" d="M549 827v-149h-139v512h204q52 0 91.5 -17.5t60.5 -46t31 -58t10 -58.5q0 -41 -24.5 -83.5t-59.5 -66.5l102 -182h-163l-80 149h-33zM549 965h72q24 1 34.5 15.5t10.5 29.5q0 16 -11.5 31.5t-38.5 15.5h-67v-92zM600 1444q215 0 366.5 -151.5t151.5 -366.5t-151.5 -366.5 t-366.5 -151.5q-98 0 -192 40t-166 108t-116 166t-44 208q0 131 67.5 249t188 191.5t262.5 73.5zM600 557q155 0 262 107t107 262t-107 262.5t-262 107.5t-263 -107.5t-108 -262.5t108 -262t263 -107z" />
<glyph unicode="&#xaf;" horiz-adv-x="1056" d="M231 1421h617v-198h-617v198z" />
<glyph unicode="&#xb0;" horiz-adv-x="675" d="M338 901q-116 0 -196.5 80.5t-80.5 196.5q0 115 80.5 195.5t196.5 80.5q115 0 195.5 -78.5t80.5 -197.5q0 -115 -81 -196t-195 -81zM338 1069q43 0 73.5 30.5t30.5 78.5q0 45 -31 74.5t-73 29.5q-44 0 -77.5 -31.5t-33.5 -72.5q0 -48 32.5 -78.5t78.5 -30.5z" />
<glyph unicode="&#xb1;" horiz-adv-x="1132" d="M164 236h805v-213h-805v213zM455 373v205h-291v231h291v291h233v-291h291v-231h-291v-205h-233z" />
<glyph unicode="&#xb2;" horiz-adv-x="624" d="M172 1403l-111 106q115 140 258 140q105 0 164.5 -58.5t59.5 -154.5q0 -79 -82 -193l-84 -117h155v-159h-454l-6 16l252 363q8 12 14.5 22.5t10.5 18.5t6.5 13.5t3.5 12t1 8v7.5v6q0 17 -13.5 32t-35.5 15q-30 0 -59.5 -16.5t-79.5 -61.5z" />
<glyph unicode="&#xb3;" horiz-adv-x="577" d="M516 1434q0 -33 -17 -72t-46 -64q63 -50 63 -131q0 -31 -10.5 -64t-35 -68.5t-74 -58t-117.5 -22.5q-129 0 -238 101l100 110q55 -53 138 -53q29 0 50 15.5t21 39.5q0 31 -20.5 47.5t-50.5 16.5h-113v137h113q29 0 50 17.5t21 48.5q0 25 -21 40t-50 15q-27 0 -68.5 -16.5 t-69.5 -40.5l-96 110q105 105 234 105q68 0 117.5 -22t74 -57t35 -68t10.5 -66z" />
<glyph unicode="&#xb4;" horiz-adv-x="1044" d="M289 1354l329 256l134 -187l-357 -221z" />
<glyph unicode="&#xb6;" horiz-adv-x="1503" d="M82 1006q0 57 12 113t42.5 114.5t76 102.5t120 72t167.5 28h839v-222h-137v-1622h-266v1622h-180v-1622h-267v983q-90 1 -162 30t-117 73t-74.5 102.5t-41.5 114t-12 111.5z" />
<glyph unicode="&#xb7;" horiz-adv-x="581" d="M123 612q0 72 47 119t119 47q71 0 120.5 -47.5t49.5 -118.5q0 -70 -49.5 -120t-120.5 -50t-118.5 49.5t-47.5 120.5z" />
<glyph unicode="&#xb8;" horiz-adv-x="1134" d="M668 -176h-54l-24 26v197h168v-104q100 -3 148 -63t48 -124q0 -109 -69 -166t-170 -57q-51 0 -114 15.5t-103 39.5l61 136q22 -11 62.5 -23t72.5 -12q29 0 51.5 20.5t24.5 46.5q2 29 -23.5 48.5t-78.5 19.5z" />
<glyph unicode="&#xb9;" horiz-adv-x="466" d="M375 1636v-669h-180v426l-84 -45l-70 114l244 174h90z" />
<glyph unicode="&#xba;" horiz-adv-x="774" d="M387 1446q68 0 122 -21t87.5 -53.5t56 -76t31 -85t8.5 -82.5q0 -43 -8.5 -84.5t-31 -84.5t-56 -75t-87.5 -52.5t-122 -20.5t-122 20.5t-87.5 52.5t-56 75t-31 84.5t-8.5 84.5q0 41 8.5 82.5t31 85t56 76t87.5 53.5t122 21zM387 1026q27 0 46 11.5t27.5 30t11.5 33t3 27.5 t-3 27t-11.5 32.5t-27.5 30t-46 11.5t-46 -11.5t-27.5 -30t-11.5 -32.5t-3 -27t3 -27.5t11.5 -33t27.5 -30t46 -11.5zM121 659h530v-215h-530v215z" />
<glyph unicode="&#xbb;" horiz-adv-x="1132" d="M539 231l233 293l-233 289l149 131l383 -407v-27l-383 -410zM61 231l234 293l-234 289l150 131l383 -407v-27l-383 -410z" />
<glyph unicode="&#xbc;" horiz-adv-x="1212" d="M1049 1434l-715 -1434h-209l717 1434h207zM375 1440v-670h-180v426l-84 -45l-70 115l244 174h90zM1044 98v-96h-170v96h-270v135l301 441h139v-424h95v-152h-95zM874 375l-86 -125h86v125z" />
<glyph unicode="&#xbd;" horiz-adv-x="1308" d="M1049 1434l-715 -1434h-209l717 1434h207zM375 1440v-670h-180v426l-84 -45l-70 115l244 174h90zM852 436l-111 107q114 139 258 139q103 0 163.5 -62t60.5 -151q0 -83 -82 -193l-88 -116h159v-160h-460v41l252 338q36 48 36 88q0 17 -13.5 32t-35.5 15 q-30 0 -59.5 -16.5t-79.5 -61.5z" />
<glyph unicode="&#xbe;" horiz-adv-x="1296" d="M1124 1434l-714 -1434h-209l717 1434h206zM1120 98v-96h-170v96h-270v135l301 441h139v-424h94v-152h-94zM950 375l-86 -125h86v125zM516 1235q0 -33 -17 -71.5t-46 -63.5q63 -50 63 -131q0 -31 -10.5 -64t-35 -68.5t-74 -58t-117.5 -22.5q-130 0 -238 100l100 111 q57 -54 138 -54q29 0 50 16t21 40q0 31 -20.5 47t-50.5 16h-113v137h113q29 0 50 17.5t21 48.5q0 25 -21 40t-50 15q-27 0 -68.5 -16.5t-69.5 -40.5l-96 110q105 105 234 105q68 0 117.5 -22t74 -57t35 -68t10.5 -66z" />
<glyph unicode="&#xbf;" horiz-adv-x="1169" d="M442 428v145h260v-151q0 -57 -21.5 -110t-45 -84t-68.5 -83q-32 -37 -46 -54t-36 -50.5t-31.5 -64.5t-9.5 -64q0 -18 5 -35.5t18 -36.5t42 -30t69 -9q58 3 113.5 40.5t139.5 121.5l175 -166q-120 -131 -225 -189.5t-238 -58.5q-168 0 -273.5 95.5t-105.5 265.5 q0 55 16 109t47.5 104t57 83t65.5 79q31 36 46.5 55.5t30.5 45.5t15 42zM733 879q0 -67 -46 -112.5t-114 -45.5q-66 0 -112.5 45.5t-46.5 112.5t46.5 113t112.5 46q69 0 114.5 -43.5t45.5 -115.5z" />
<glyph unicode="&#xc0;" d="M61 -2l662 1452h37l661 -1452h-321l-142 338h-434l-139 -338h-324zM741 856l-116 -281h233zM643 2019l330 -256l-107 -151l-356 221z" />
<glyph unicode="&#xc1;" d="M61 -2l662 1452h37l661 -1452h-321l-142 338h-434l-139 -338h-324zM741 856l-116 -281h233zM510 1763l330 256l133 -186l-357 -221z" />
<glyph unicode="&#xc2;" d="M61 -2l662 1452h37l661 -1452h-321l-142 338h-434l-139 -338h-324zM741 856l-116 -281h233zM412 1761l329 256l330 -256l-106 -151l-224 137l-223 -137z" />
<glyph unicode="&#xc3;" d="M61 -2l662 1452h37l661 -1452h-321l-142 338h-434l-139 -338h-324zM741 856l-116 -281h233zM936 1942l168 -89q-94 -208 -273 -208q-47 0 -103 34.5t-89 34.5q-64 0 -102 -80l-160 74q36 120 109.5 169.5t154.5 49.5q42 0 79 -16.5t65.5 -32.5t50.5 -16q55 0 100 80z" />
<glyph unicode="&#xc4;" d="M61 0l670 1452h21l669 -1452h-321l-142 338h-434l-139 -338h-324zM741 858l-116 -280h233zM350 1776q0 66 45.5 111.5t112.5 45.5q66 0 111 -45.5t45 -111.5q0 -67 -45 -111.5t-111 -44.5q-68 0 -113 44.5t-45 111.5zM819 1776q0 66 45.5 111.5t112.5 45.5 q66 0 111 -45.5t45 -111.5q0 -67 -45 -111.5t-111 -44.5q-68 0 -113 44.5t-45 111.5z" />
<glyph unicode="&#xc5;" d="M61 -2l662 1452h37l661 -1452h-321l-142 338h-434l-139 -338h-324zM741 856l-116 -281h233zM532 1819q0 86 61.5 147.5t147.5 61.5t146.5 -61.5t60.5 -147.5t-60.5 -146.5t-146.5 -60.5t-147.5 60.5t-61.5 146.5zM680 1819q0 -23 18 -41.5t43 -18.5q23 0 41.5 18.5 t18.5 41.5q0 25 -18.5 43t-41.5 18q-25 0 -43 -18t-18 -43z" />
<glyph unicode="&#xc6;" horiz-adv-x="1839" d="M1567 573h-537v-307h686v-266h-975v336h-217l-139 -338h-324l654 1436h1001v-267h-686v-327h537v-267zM741 856l-116 -281h116v281z" />
<glyph unicode="&#xc7;" horiz-adv-x="1517" d="M807 -176h-53l-25 26v138q-133 15 -240 68.5t-174 128t-111.5 168.5t-62.5 184.5t-18 181.5q0 67 10.5 135t35.5 141t62 139t95 125t129.5 102t169 68t211.5 25q175 0 309.5 -69t249.5 -199l-191 -185q-61 75 -166 129t-202 54q-76 0 -138.5 -20t-105 -51.5t-75 -75 t-51 -86t-30 -89t-15 -80.5t-3.5 -63t4 -62.5t15.5 -80t30 -89t51.5 -85.5t75 -74.5t105 -51.5t139 -20q98 0 203 48t182 118l163 -199q-218 -218 -489 -237v-43q53 -1 93.5 -21t62 -49.5t31.5 -59.5t10 -57q0 -109 -69 -166t-171 -57q-51 0 -114 15.5t-103 39.5l61 136 q21 -11 62.5 -23t73.5 -12q29 0 51 20t24 47q2 29 -23.5 48.5t-78.5 19.5z" />
<glyph unicode="&#xc8;" horiz-adv-x="1302" d="M1030 573h-536v-307h686v-266h-975v1434h975v-267h-686v-327h536v-267zM553 2019l330 -256l-107 -151l-356 221z" />
<glyph unicode="&#xc9;" horiz-adv-x="1302" d="M1030 573h-536v-307h686v-266h-975v1434h975v-267h-686v-327h536v-267zM420 1763l330 256l133 -186l-357 -221z" />
<glyph unicode="&#xca;" horiz-adv-x="1302" d="M1030 573h-536v-307h686v-266h-975v1434h975v-267h-686v-327h536v-267zM322 1761l329 256l330 -256l-107 -151l-223 137l-223 -137z" />
<glyph unicode="&#xcb;" horiz-adv-x="1302" d="M1030 573h-536v-307h686v-266h-975v1434h975v-267h-686v-327h536v-267zM260 1776q0 66 45.5 111.5t112.5 45.5q66 0 110.5 -45.5t44.5 -111.5q0 -67 -44.5 -111.5t-110.5 -44.5q-68 0 -113 44.5t-45 111.5zM729 1776q0 66 45.5 111.5t112.5 45.5q66 0 110.5 -45.5 t44.5 -111.5q0 -67 -44.5 -111.5t-110.5 -44.5q-68 0 -113 44.5t-45 111.5z" />
<glyph unicode="&#xcc;" horiz-adv-x="544" d="M418 1434v-1434h-291v1434h291zM174 2019l330 -256l-107 -151l-356 221z" />
<glyph unicode="&#xcd;" horiz-adv-x="544" d="M418 1434v-1434h-291v1434h291zM41 1763l330 256l133 -186l-357 -221z" />
<glyph unicode="&#xce;" horiz-adv-x="659" d="M475 1434v-1434h-291v1434h291zM0 1761l330 256l329 -256l-106 -151l-223 137l-224 -137z" />
<glyph unicode="&#xcf;" horiz-adv-x="815" d="M553 1434v-1434h-291v1434h291zM0 1765q0 66 45.5 112t112.5 46q66 0 110.5 -46t44.5 -112q0 -67 -44.5 -111t-110.5 -44q-68 0 -113 44t-45 111zM502 1765q0 66 45 112t112 46q66 0 111 -46t45 -112q0 -67 -45 -111t-111 -44q-68 0 -112.5 44t-44.5 111z" />
<glyph unicode="&#xd0;" horiz-adv-x="1546" d="M59 840h146v594h510q132 0 241.5 -32t185 -87.5t131.5 -125.5t88 -152t47 -160.5t15 -157.5q0 -98 -20.5 -193t-72.5 -192t-129.5 -169.5t-203 -118.5t-282.5 -46h-510v604h-146v236zM492 266h223q75 0 137 19t104 50t74.5 73t50.5 83.5t29.5 87t15.5 78.5t4 62 q0 43 -8 92.5t-34.5 116t-69.5 117.5t-121.5 87.5t-181.5 36.5h-223v-329h278v-236h-278v-338z" />
<glyph unicode="&#xd1;" horiz-adv-x="1589" d="M205 1438l18 8l871 -825v813h290v-1436l-18 -10l-870 833v-821h-291v1438zM989 1915l168 -88q-95 -209 -272 -209q-38 0 -71.5 17.5t-63 35t-58.5 17.5q-64 0 -102 -80l-160 73q19 63 50.5 108.5t69 68.5t72.5 33t72 10q42 0 79 -16.5t65.5 -33t50.5 -16.5q55 0 100 80z " />
<glyph unicode="&#xd2;" horiz-adv-x="1667" d="M836 1458q113 0 210 -25.5t168 -68.5t128.5 -102.5t94.5 -125.5t61.5 -139.5t35 -142t10.5 -135.5q0 -69 -10.5 -138t-35 -143t-61.5 -140t-94.5 -125.5t-128.5 -102.5t-168 -68t-210 -25q-114 0 -211.5 25t-169 68t-129.5 102.5t-95 125.5t-62 140t-35.5 143t-10.5 138 q0 67 10.5 135.5t35.5 142t62 139t95 125.5t129.5 103t169 68.5t211.5 25.5zM836 246q74 0 136 20.5t103.5 52.5t74 76.5t50.5 88t29.5 90.5t15.5 81.5t4 63.5q0 44 -8 94.5t-34.5 120t-69 123.5t-121 92.5t-180.5 38.5q-76 0 -138.5 -20t-105 -52t-75 -76t-51 -87t-30 -90 t-15 -81t-3.5 -63t3.5 -63t15 -81.5t30 -91t51 -88t75 -76.5t105 -52.5t138.5 -20.5zM735 2019l330 -256l-107 -151l-356 221z" />
<glyph unicode="&#xd3;" horiz-adv-x="1667" d="M836 1458q113 0 210 -25.5t168 -68.5t128.5 -102.5t94.5 -125.5t61.5 -139.5t35 -142t10.5 -135.5q0 -69 -10.5 -138t-35 -143t-61.5 -140t-94.5 -125.5t-128.5 -102.5t-168 -68t-210 -25q-114 0 -211.5 25t-169 68t-129.5 102.5t-95 125.5t-62 140t-35.5 143t-10.5 138 q0 67 10.5 135.5t35.5 142t62 139t95 125.5t129.5 103t169 68.5t211.5 25.5zM836 246q74 0 136 20.5t103.5 52.5t74 76.5t50.5 88t29.5 90.5t15.5 81.5t4 63.5q0 44 -8 94.5t-34.5 120t-69 123.5t-121 92.5t-180.5 38.5q-76 0 -138.5 -20t-105 -52t-75 -76t-51 -87t-30 -90 t-15 -81t-3.5 -63t3.5 -63t15 -81.5t30 -91t51 -88t75 -76.5t105 -52.5t138.5 -20.5zM602 1763l330 256l133 -186l-356 -221z" />
<glyph unicode="&#xd4;" horiz-adv-x="1667" d="M836 1458q113 0 210 -25.5t168 -68.5t128.5 -102.5t94.5 -125.5t61.5 -139.5t35 -142t10.5 -135.5q0 -69 -10.5 -138t-35 -143t-61.5 -140t-94.5 -125.5t-128.5 -102.5t-168 -68t-210 -25q-114 0 -211.5 25t-169 68t-129.5 102.5t-95 125.5t-62 140t-35.5 143t-10.5 138 q0 67 10.5 135.5t35.5 142t62 139t95 125.5t129.5 103t169 68.5t211.5 25.5zM836 246q74 0 136 20.5t103.5 52.5t74 76.5t50.5 88t29.5 90.5t15.5 81.5t4 63.5q0 44 -8 94.5t-34.5 120t-69 123.5t-121 92.5t-180.5 38.5q-76 0 -138.5 -20t-105 -52t-75 -76t-51 -87t-30 -90 t-15 -81t-3.5 -63t3.5 -63t15 -81.5t30 -91t51 -88t75 -76.5t105 -52.5t138.5 -20.5zM504 1767l330 256l329 -256l-106 -151l-223 137l-224 -137z" />
<glyph unicode="&#xd5;" horiz-adv-x="1667" d="M836 1458q113 0 210 -25.5t168 -68.5t128.5 -102.5t94.5 -125.5t61.5 -139.5t35 -142t10.5 -135.5q0 -69 -10.5 -138t-35 -143t-61.5 -140t-94.5 -125.5t-128.5 -102.5t-168 -68t-210 -25q-114 0 -211.5 25t-169 68t-129.5 102.5t-95 125.5t-62 140t-35.5 143t-10.5 138 q0 67 10.5 135.5t35.5 142t62 139t95 125.5t129.5 103t169 68.5t211.5 25.5zM836 246q74 0 136 20.5t103.5 52.5t74 76.5t50.5 88t29.5 90.5t15.5 81.5t4 63.5q0 44 -8 94.5t-34.5 120t-69 123.5t-121 92.5t-180.5 38.5q-76 0 -138.5 -20t-105 -52t-75 -76t-51 -87t-30 -90 t-15 -81t-3.5 -63t3.5 -63t15 -81.5t30 -91t51 -88t75 -76.5t105 -52.5t138.5 -20.5zM1028 1915l168 -88q-95 -209 -272 -209q-48 0 -104 35t-89 35q-64 0 -102 -80l-160 73q19 63 50.5 108.5t69 68.5t72.5 33t72 10q42 0 79 -16.5t65.5 -33t50.5 -16.5q55 0 100 80z" />
<glyph unicode="&#xd6;" horiz-adv-x="1667" d="M836 1458q113 0 210 -25.5t168 -68.5t128.5 -102.5t94.5 -125.5t61.5 -139.5t35 -142t10.5 -135.5q0 -69 -10.5 -138t-35 -143t-61.5 -140t-94.5 -125.5t-128.5 -102.5t-168 -68t-210 -25q-114 0 -211.5 25t-169 68t-129.5 102.5t-95 125.5t-62 140t-35.5 143t-10.5 138 q0 67 10.5 135.5t35.5 142t62 139t95 125.5t129.5 103t169 68.5t211.5 25.5zM836 246q74 0 136 20.5t103.5 52.5t74 76.5t50.5 88t29.5 90.5t15.5 81.5t4 63.5q0 44 -8 94.5t-34.5 120t-69 123.5t-121 92.5t-180.5 38.5q-76 0 -138.5 -20t-105 -52t-75 -76t-51 -87t-30 -90 t-15 -81t-3.5 -63t3.5 -63t15 -81.5t30 -91t51 -88t75 -76.5t105 -52.5t138.5 -20.5zM442 1776q0 66 45.5 111.5t112.5 45.5q66 0 111 -45.5t45 -111.5q0 -67 -45 -111.5t-111 -44.5q-68 0 -113 44.5t-45 111.5zM911 1776q0 66 45.5 111.5t112.5 45.5q66 0 111 -45.5 t45 -111.5q0 -67 -45 -111.5t-111 -44.5q-68 0 -113 44.5t-45 111.5z" />
<glyph unicode="&#xd7;" horiz-adv-x="1150" d="M780 43l-205 205l-206 -205l-164 164l207 205l-207 206l166 164l204 -204l207 204l164 -164l-207 -204l207 -207z" />
<glyph unicode="&#xd8;" horiz-adv-x="1667" d="M836 1458q222 0 389 -102l104 123l160 -133l-109 -129q84 -106 124 -238t40 -260q0 -69 -10.5 -138t-35 -143t-61.5 -140t-94.5 -125.5t-128.5 -102.5t-168 -68t-210 -25q-242 0 -406 109l-117 -139l-159 133l125 147q-80 104 -118 234.5t-38 257.5q0 67 10.5 135.5 t35.5 142t62 139t95 125.5t129.5 103t169 68.5t211.5 25.5zM836 246q74 0 136 20.5t103.5 52.5t74 76.5t50.5 88t29.5 90.5t15.5 81.5t4 63.5q0 144 -65 264l-570 -680q90 -57 222 -57zM418 719q0 -137 57 -256l565 674q-87 51 -204 51q-76 0 -138.5 -20t-105 -52t-75 -76 t-51 -87t-30 -90t-15 -81t-3.5 -63z" />
<glyph unicode="&#xd9;" horiz-adv-x="1507" d="M754 250q63 0 113.5 24t79.5 59.5t49 79.5t27 79.5t7 64.5v877h293v-877q0 -76 -18 -152.5t-61 -153t-106.5 -134.5t-163 -94.5t-220.5 -36.5q-122 0 -221 36.5t-162.5 94.5t-107 134.5t-61.5 153t-18 152.5v877h291v-877q0 -29 7.5 -64.5t27.5 -79.5t50 -79.5 t80.5 -59.5t113.5 -24zM655 2019l330 -256l-106 -151l-357 221z" />
<glyph unicode="&#xda;" horiz-adv-x="1507" d="M754 250q63 0 113.5 24t79.5 59.5t49 79.5t27 79.5t7 64.5v877h293v-877q0 -76 -18 -152.5t-61 -153t-106.5 -134.5t-163 -94.5t-220.5 -36.5q-122 0 -221 36.5t-162.5 94.5t-107 134.5t-61.5 153t-18 152.5v877h291v-877q0 -29 7.5 -64.5t27.5 -79.5t50 -79.5 t80.5 -59.5t113.5 -24zM522 1763l330 256l133 -186l-356 -221z" />
<glyph unicode="&#xdb;" horiz-adv-x="1507" d="M754 250q63 0 113.5 24t79.5 59.5t49 79.5t27 79.5t7 64.5v877h293v-877q0 -76 -18 -152.5t-61 -153t-106.5 -134.5t-163 -94.5t-220.5 -36.5q-122 0 -221 36.5t-162.5 94.5t-107 134.5t-61.5 153t-18 152.5v877h291v-877q0 -29 7.5 -64.5t27.5 -79.5t50 -79.5 t80.5 -59.5t113.5 -24zM424 1767l330 256l329 -256l-106 -151l-223 137l-224 -137z" />
<glyph unicode="&#xdc;" horiz-adv-x="1507" d="M754 250q63 0 113.5 24t79.5 59.5t49 79.5t27 79.5t7 64.5v877h293v-877q0 -76 -18 -152.5t-61 -153t-106.5 -134.5t-163 -94.5t-220.5 -36.5q-122 0 -221 36.5t-162.5 94.5t-107 134.5t-61.5 153t-18 152.5v877h291v-877q0 -29 7.5 -64.5t27.5 -79.5t50 -79.5 t80.5 -59.5t113.5 -24zM362 1776q0 66 45.5 111.5t112.5 45.5q66 0 111 -45.5t45 -111.5q0 -67 -45 -111.5t-111 -44.5q-68 0 -113 44.5t-45 111.5zM831 1776q0 66 45.5 111.5t112.5 45.5q66 0 111 -45.5t45 -111.5q0 -67 -45 -111.5t-111 -44.5q-68 0 -113 44.5t-45 111.5z " />
<glyph unicode="&#xdd;" horiz-adv-x="1361" d="M825 641v-641h-288v637l-488 797h320l311 -521l311 521h322zM449 1763l329 256l133 -186l-356 -221z" />
<glyph unicode="&#xde;" horiz-adv-x="1341" d="M696 170h-207v-170h-284v1434h284v-183h207q115 0 207.5 -35.5t150 -91t96 -129t54 -144t15.5 -140.5t-15.5 -140.5t-54 -144t-96 -129.5t-150 -91.5t-207.5 -35.5zM489 999v-575h191q61 0 108.5 22t74 54.5t44 73.5t23.5 74.5t6 62.5q0 39 -11 82.5t-36.5 92.5t-79.5 81 t-129 32h-191z" />
<glyph unicode="&#xdf;" horiz-adv-x="1361" d="M627 215q131 0 185 52t54 126q-3 34 -23.5 69t-48 64.5t-54.5 60.5t-45.5 68.5t-18.5 77.5q0 42 25 84.5t55 72t55 70t25 80.5v12t-3 22t-8.5 30t-18 30.5t-29.5 29t-44.5 20t-62.5 8.5q-21 0 -42 -4t-46 -15.5t-44 -29.5t-32 -50.5t-14 -74.5v-1104h-287v1100 q0 89 24 161t59 116.5t84 77.5t90 48t88 24t65.5 10t33.5 1q107 0 191 -30t133 -74.5t81 -102.5t43 -107.5t11 -95.5q0 -61 -17.5 -113.5t-39 -81t-45 -58t-29.5 -44.5q2 -21 21 -45.5t45 -52.5t52 -62.5t44 -86.5t18 -113q0 -184 -134.5 -294.5t-395.5 -110.5v235z" />
<glyph unicode="&#xe0;" horiz-adv-x="1122" d="M528 1040q9 0 26.5 1t25.5 1q73 0 131 -13.5t97 -35.5t67.5 -57t44 -70t24.5 -83t11.5 -86.5t2.5 -90.5v-606h-192l-21 66q-95 -80 -243 -86q-91 -4 -161.5 17t-110.5 54.5t-65 80.5t-33.5 87.5t-8.5 81.5q0 340 438 340q54 0 119 -14q0 101 -32 134.5t-105 33.5 q-39 0 -120.5 -20t-154.5 -52l-90 211q183 97 350 106zM680 301v111q-85 22 -127 22q-166 0 -166 -119q0 -44 35.5 -69t85.5 -25q54 0 102.5 25t69.5 55zM463 1610l330 -256l-107 -152l-356 221z" />
<glyph unicode="&#xe1;" horiz-adv-x="1122" d="M528 1040q9 0 26.5 1t25.5 1q73 0 131 -13.5t97 -35.5t67.5 -57t44 -70t24.5 -83t11.5 -86.5t2.5 -90.5v-606h-192l-21 66q-95 -80 -243 -86q-91 -4 -161.5 17t-110.5 54.5t-65 80.5t-33.5 87.5t-8.5 81.5q0 340 438 340q54 0 119 -14q0 101 -32 134.5t-105 33.5 q-39 0 -120.5 -20t-154.5 -52l-90 211q183 97 350 106zM680 301v111q-85 22 -127 22q-166 0 -166 -119q0 -44 35.5 -69t85.5 -25q54 0 102.5 25t69.5 55zM330 1354l329 256l134 -187l-357 -221z" />
<glyph unicode="&#xe2;" horiz-adv-x="1122" d="M528 1040q9 0 26.5 1t25.5 1q73 0 131 -13.5t97 -35.5t67.5 -57t44 -70t24.5 -83t11.5 -86.5t2.5 -90.5v-606h-192l-21 66q-95 -80 -243 -86q-91 -4 -161.5 17t-110.5 54.5t-65 80.5t-33.5 87.5t-8.5 81.5q0 340 438 340q54 0 119 -14q0 101 -32 134.5t-105 33.5 q-39 0 -120.5 -20t-154.5 -52l-90 211q183 97 350 106zM680 301v111q-85 22 -127 22q-166 0 -166 -119q0 -44 35.5 -69t85.5 -25q54 0 102.5 25t69.5 55zM231 1352l330 256l330 -256l-107 -152l-223 137l-223 -137z" />
<glyph unicode="&#xe3;" horiz-adv-x="1122" d="M528 1040q9 0 26.5 1t25.5 1q73 0 131 -13.5t97 -35.5t67.5 -57t44 -70t24.5 -83t11.5 -86.5t2.5 -90.5v-606h-192l-21 66q-95 -80 -243 -86q-91 -4 -161.5 17t-110.5 54.5t-65 80.5t-33.5 87.5t-8.5 81.5q0 340 438 340q54 0 119 -14q0 101 -32 134.5t-105 33.5 q-39 0 -120.5 -20t-154.5 -52l-90 211q183 97 350 106zM680 301v111q-85 22 -127 22q-166 0 -166 -119q0 -44 35.5 -69t85.5 -25q54 0 102.5 25t69.5 55zM756 1532l168 -88q-95 -209 -273 -209q-47 0 -103 35t-89 35q-65 0 -103 -80l-159 73q19 63 50.5 108.5t69 68.5 t72.5 33t72 10q42 0 79 -16.5t65 -33t50 -16.5q56 0 101 80z" />
<glyph unicode="&#xe4;" horiz-adv-x="1122" d="M178 934q211 108 402 108q73 0 131 -13.5t97 -35.5t67.5 -57t44 -70t24.5 -83t11.5 -86.5t2.5 -90.5v-606h-192l-21 66q-95 -80 -243 -86q-91 -4 -161.5 17t-110.5 54.5t-65 80.5t-33.5 87.5t-8.5 81.5q0 340 438 340q54 0 119 -14q0 101 -32 134.5t-105 33.5 q-39 0 -120.5 -20t-154.5 -52zM680 301v111q-85 22 -127 22q-166 0 -166 -119q0 -44 35.5 -69t85.5 -25q54 0 102.5 25t69.5 55zM170 1366q0 66 45.5 112t112.5 46q66 0 110.5 -46t44.5 -112q0 -67 -44.5 -111.5t-110.5 -44.5q-68 0 -113 44.5t-45 111.5zM639 1366 q0 66 45.5 112t112.5 46q66 0 110.5 -46t44.5 -112q0 -67 -44.5 -111.5t-110.5 -44.5q-68 0 -113 44.5t-45 111.5z" />
<glyph unicode="&#xe5;" horiz-adv-x="1122" d="M528 1040q9 0 26.5 1t25.5 1q73 0 131 -13.5t97 -35.5t67.5 -57t44 -70t24.5 -83t11.5 -86.5t2.5 -90.5v-606h-192l-21 66q-95 -80 -243 -86q-91 -4 -161.5 17t-110.5 54.5t-65 80.5t-33.5 87.5t-8.5 81.5q0 340 438 340q54 0 119 -14q0 101 -32 134.5t-105 33.5 q-39 0 -120.5 -20t-154.5 -52l-90 211q183 97 350 106zM680 301v111q-85 22 -127 22q-166 0 -166 -119q0 -44 35.5 -69t85.5 -25q54 0 102.5 25t69.5 55zM352 1409q0 86 61.5 147.5t147.5 61.5t146.5 -61.5t60.5 -147.5t-60.5 -146.5t-146.5 -60.5t-147.5 60.5t-61.5 146.5z M500 1409q0 -23 18 -41t43 -18q23 0 41.5 18t18.5 41q0 25 -18.5 43t-41.5 18q-25 0 -43 -18t-18 -43z" />
<glyph unicode="&#xe6;" horiz-adv-x="1671" d="M1571 465h-641q13 -97 71.5 -161t153.5 -64q134 0 256 92l135 -187q-96 -79 -189 -118t-202 -39q-217 0 -348 118q-124 -114 -305 -126q-91 -4 -161.5 17t-110.5 54.5t-65 80.5t-33.5 87.5t-8.5 81.5q0 340 438 340q34 0 92 -8q9 35 21 72q-11 52 -42.5 71t-88.5 19 q-39 0 -120.5 -20t-154.5 -52l-90 211q183 97 350 106q9 0 26.5 1t25.5 1q187 0 276 -86q127 82 299 82q201 0 312.5 -119t111.5 -321q0 -43 -8 -133zM680 301q-22 62 -31 119q-68 14 -96 14q-166 0 -166 -119q0 -44 35.5 -69t85.5 -25q54 0 102.5 25t69.5 55zM1155 791 q-83 0 -137.5 -44t-79.5 -118h367q-4 160 -150 162z" />
<glyph unicode="&#xe7;" horiz-adv-x="1181" d="M594 -176h-53l-25 26v148q-86 16 -154.5 56t-112.5 92t-73 116t-41 125t-12 121q0 74 13.5 143t49.5 141.5t91.5 126t147.5 87.5t210 34q224 0 407 -202l-159 -179q-50 54 -118.5 88.5t-129.5 34.5q-112 0 -174 -80t-62 -188q0 -121 70 -191.5t168 -70.5q52 0 112 25 t113 77l162 -194q-152 -156 -340 -172v-45q53 -1 93.5 -21t62 -49.5t31.5 -59.5t10 -57q0 -109 -69 -166t-171 -57q-51 0 -114 15.5t-103 39.5l61 136q21 -11 62.5 -23t73.5 -12q29 0 51 20t24 47q2 29 -23.5 48.5t-78.5 19.5z" />
<glyph unicode="&#xe8;" horiz-adv-x="1120" d="M1020 465h-641q13 -97 71.5 -161t153.5 -64q134 0 256 92l135 -187q-96 -79 -189 -118t-202 -39q-112 0 -202.5 34t-147 87.5t-94.5 124.5t-53 140.5t-15 139.5q0 69 15 137.5t53 139.5t94.5 125t147 88t202.5 34q201 0 312.5 -119t111.5 -321q0 -43 -8 -133zM604 791 q-83 0 -137.5 -44t-79.5 -118h367q-4 160 -150 162zM461 1610l330 -256l-107 -152l-356 221z" />
<glyph unicode="&#xe9;" horiz-adv-x="1120" d="M1020 465h-641q13 -97 71.5 -161t153.5 -64q134 0 256 92l135 -187q-96 -79 -189 -118t-202 -39q-112 0 -202.5 34t-147 87.5t-94.5 124.5t-53 140.5t-15 139.5q0 69 15 137.5t53 139.5t94.5 125t147 88t202.5 34q201 0 312.5 -119t111.5 -321q0 -43 -8 -133zM604 791 q-83 0 -137.5 -44t-79.5 -118h367q-4 160 -150 162zM377 1354l330 256l133 -187l-357 -221z" />
<glyph unicode="&#xea;" horiz-adv-x="1120" d="M1020 465h-641q13 -97 71.5 -161t153.5 -64q134 0 256 92l135 -187q-96 -79 -189 -118t-202 -39q-112 0 -202.5 34t-147 87.5t-94.5 124.5t-53 140.5t-15 139.5q0 69 15 137.5t53 139.5t94.5 125t147 88t202.5 34q201 0 312.5 -119t111.5 -321q0 -43 -8 -133zM604 791 q-83 0 -137.5 -44t-79.5 -118h367q-4 160 -150 162zM229 1352l330 256l330 -256l-107 -152l-223 137l-223 -137z" />
<glyph unicode="&#xeb;" horiz-adv-x="1120" d="M1020 465h-641q13 -97 71.5 -161t153.5 -64q134 0 256 92l135 -187q-96 -79 -189 -118t-202 -39q-112 0 -202.5 34t-147 87.5t-94.5 124.5t-53 140.5t-15 139.5q0 69 15 137.5t53 139.5t94.5 125t147 88t202.5 34q201 0 312.5 -119t111.5 -321q0 -43 -8 -133zM604 791 q-83 0 -137.5 -44t-79.5 -118h367q-4 160 -150 162zM170 1366q0 66 45.5 112t112.5 46q66 0 110.5 -46t44.5 -112q0 -67 -44.5 -111.5t-110.5 -44.5q-68 0 -113 44.5t-45 111.5zM639 1366q0 66 45.5 112t112.5 46q66 0 110.5 -46t44.5 -112q0 -67 -44.5 -111.5t-110.5 -44.5 q-68 0 -113 44.5t-45 111.5z" />
<glyph unicode="&#xec;" horiz-adv-x="544" d="M412 1024v-1024h-279v1024h279zM174 1610l330 -256l-107 -152l-356 221z" />
<glyph unicode="&#xed;" horiz-adv-x="544" d="M412 1024v-1024h-279v1024h279zM41 1354l330 256l133 -187l-357 -221z" />
<glyph unicode="&#xee;" horiz-adv-x="659" d="M469 1024v-1024h-279v1024h279zM0 1358l330 256l329 -256l-106 -152l-223 137l-224 -137z" />
<glyph unicode="&#xef;" horiz-adv-x="782" d="M530 1024v-1024h-278v1024h278zM0 1366q0 66 45.5 112t112.5 46q66 0 110.5 -46t44.5 -112q0 -67 -44.5 -111.5t-110.5 -44.5q-68 0 -113 44.5t-45 111.5zM469 1366q0 66 45.5 112t112.5 46q66 0 110.5 -46t44.5 -112q0 -67 -44.5 -111.5t-110.5 -44.5q-68 0 -113 44.5 t-45 111.5z" />
<glyph unicode="&#xf0;" horiz-adv-x="1196" d="M330 1272l149 196q79 -53 117 -84l121 123l131 -131l-113 -112q340 -348 340 -803q0 -49 -11.5 -104.5t-45 -123t-84 -120.5t-138 -89t-198.5 -36q-80 0 -148 18t-115.5 47.5t-85.5 69t-61 81.5t-38 86.5t-21 81.5t-6 70q0 60 10.5 117t40.5 120t77 110.5t126.5 81 t181.5 38.5q86 0 141 -24q-44 95 -145 200l-98 -98l-127 127l92 92q-48 39 -92 66zM598 242q97 0 152 62.5t55 148.5q-3 88 -56.5 148.5t-150.5 60.5t-151 -62t-54 -147t55 -148t150 -63z" />
<glyph unicode="&#xf1;" horiz-adv-x="1198" d="M440 705v-705h-276v1024h188l25 -74q111 90 258 90q81 0 146.5 -16t111 -43t79 -67.5t53 -83t31 -96.5t15.5 -101.5t4 -104.5v-528h-282v528q0 39 -2.5 70.5t-13 70t-27.5 64t-49 43t-76 17.5q-60 0 -109 -25.5t-76 -62.5zM795 1505l168 -88q-95 -209 -273 -209 q-38 0 -71.5 17.5t-62.5 35t-58 17.5q-65 0 -103 -80l-159 74q36 120 109.5 169.5t154.5 49.5q42 0 79 -16.5t65 -33t50 -16.5q56 0 101 80z" />
<glyph unicode="&#xf2;" horiz-adv-x="1265" d="M633 1044q113 0 203.5 -35t146.5 -90t93 -127.5t52 -141.5t15 -138q0 -71 -15 -140.5t-52 -141t-93 -125.5t-146.5 -88.5t-203.5 -34.5t-203.5 34.5t-146.5 88.5t-93 125.5t-52 141t-15 140.5q0 69 15 138t52 141.5t93 127.5t146.5 90t203.5 35zM633 229q58 0 102.5 23 t68.5 56t39 75t19 72.5t4 56.5t-4 57t-19 73t-39 75t-68.5 56.5t-102.5 23.5t-103 -23.5t-69 -56.5t-39.5 -75t-20 -73t-4.5 -57t4.5 -57t20 -72.5t39.5 -74.5t69 -56t103 -23zM535 1610l329 -256l-106 -152l-357 221z" />
<glyph unicode="&#xf3;" horiz-adv-x="1265" d="M633 1044q113 0 203.5 -35t146.5 -90t93 -127.5t52 -141.5t15 -138q0 -71 -15 -140.5t-52 -141t-93 -125.5t-146.5 -88.5t-203.5 -34.5t-203.5 34.5t-146.5 88.5t-93 125.5t-52 141t-15 140.5q0 69 15 138t52 141.5t93 127.5t146.5 90t203.5 35zM633 229q58 0 102.5 23 t68.5 56t39 75t19 72.5t4 56.5t-4 57t-19 73t-39 75t-68.5 56.5t-102.5 23.5t-103 -23.5t-69 -56.5t-39.5 -75t-20 -73t-4.5 -57t4.5 -57t20 -72.5t39.5 -74.5t69 -56t103 -23zM401 1354l330 256l133 -187l-356 -221z" />
<glyph unicode="&#xf4;" horiz-adv-x="1265" d="M633 1044q113 0 203.5 -35t146.5 -90t93 -127.5t52 -141.5t15 -138q0 -71 -15 -140.5t-52 -141t-93 -125.5t-146.5 -88.5t-203.5 -34.5t-203.5 34.5t-146.5 88.5t-93 125.5t-52 141t-15 140.5q0 69 15 138t52 141.5t93 127.5t146.5 90t203.5 35zM633 229q58 0 102.5 23 t68.5 56t39 75t19 72.5t4 56.5t-4 57t-19 73t-39 75t-68.5 56.5t-102.5 23.5t-103 -23.5t-69 -56.5t-39.5 -75t-20 -73t-4.5 -57t4.5 -57t20 -72.5t39.5 -74.5t69 -56t103 -23zM303 1358l330 256l330 -256l-107 -152l-223 137l-223 -137z" />
<glyph unicode="&#xf5;" horiz-adv-x="1265" d="M633 1044q113 0 203.5 -35t146.5 -90t93 -127.5t52 -141.5t15 -138q0 -71 -15 -140.5t-52 -141t-93 -125.5t-146.5 -88.5t-203.5 -34.5t-203.5 34.5t-146.5 88.5t-93 125.5t-52 141t-15 140.5q0 69 15 138t52 141.5t93 127.5t146.5 90t203.5 35zM633 229q58 0 102.5 23 t68.5 56t39 75t19 72.5t4 56.5t-4 57t-19 73t-39 75t-68.5 56.5t-102.5 23.5t-103 -23.5t-69 -56.5t-39.5 -75t-20 -73t-4.5 -57t4.5 -57t20 -72.5t39.5 -74.5t69 -56t103 -23zM827 1505l168 -88q-95 -209 -272 -209q-38 0 -71.5 17.5t-63 35t-58.5 17.5q-64 0 -102 -80 l-160 74q36 120 109.5 169.5t154.5 49.5q42 0 79 -16.5t65.5 -33t50.5 -16.5q55 0 100 80z" />
<glyph unicode="&#xf6;" horiz-adv-x="1265" d="M633 1044q113 0 203.5 -35t146.5 -90t93 -127.5t52 -141.5t15 -138q0 -71 -15 -140.5t-52 -141t-93 -125.5t-146.5 -88.5t-203.5 -34.5t-203.5 34.5t-146.5 88.5t-93 125.5t-52 141t-15 140.5q0 69 15 138t52 141.5t93 127.5t146.5 90t203.5 35zM633 229q58 0 102.5 23 t68.5 56t39 75t19 72.5t4 56.5t-4 57t-19 73t-39 75t-68.5 56.5t-102.5 23.5t-103 -23.5t-69 -56.5t-39.5 -75t-20 -73t-4.5 -57t4.5 -57t20 -72.5t39.5 -74.5t69 -56t103 -23zM242 1366q0 66 45 112t112 46q66 0 111 -46t45 -112q0 -67 -45 -111.5t-111 -44.5 q-68 0 -112.5 44.5t-44.5 111.5zM711 1366q0 66 45 112t112 46q66 0 111 -46t45 -112q0 -67 -45 -111.5t-111 -44.5q-68 0 -112.5 44.5t-44.5 111.5z" />
<glyph unicode="&#xf7;" horiz-adv-x="944" d="M123 612h698v-202h-698v202zM332 889q0 59 39.5 99t99.5 40q59 0 99 -40t40 -99q0 -61 -40 -100t-99 -39q-60 0 -99.5 39t-39.5 100zM332 139q0 59 39.5 99.5t99.5 40.5q58 0 98.5 -40.5t40.5 -99.5q0 -61 -40 -100t-99 -39q-60 0 -99.5 39t-39.5 100z" />
<glyph unicode="&#xf8;" horiz-adv-x="1265" d="M272 -66l-159 134l100 118q-90 136 -90 326q0 69 15 138t52 141.5t93 127.5t146.5 90t203.5 35q146 0 254 -59l110 131l160 -133l-115 -135q101 -142 101 -336q0 -71 -15 -140.5t-52 -141t-93 -125.5t-146.5 -88.5t-203.5 -34.5q-159 0 -268 61zM633 229q58 0 102.5 23 t68.5 56t39 75t19 72.5t4 56.5q0 49 -16 106l-313 -370q43 -19 96 -19zM397 512q0 -44 13 -92l305 362q-43 15 -82 15q-58 0 -103 -23.5t-69 -56.5t-39.5 -75t-20 -73t-4.5 -57z" />
<glyph unicode="&#xf9;" horiz-adv-x="1198" d="M758 319v705h276v-1024h-188l-25 74q-111 -90 -258 -90q-81 0 -146.5 16t-111 43t-79 67.5t-53 83t-31 96.5t-15.5 101.5t-4 104.5v528h283v-528q0 -39 2.5 -70.5t12.5 -70t27.5 -64t49 -43t75.5 -17.5q60 0 109 25.5t76 62.5zM500 1610l329 -256l-106 -152l-356 221z " />
<glyph unicode="&#xfa;" horiz-adv-x="1198" d="M758 319v705h276v-1024h-188l-25 74q-111 -90 -258 -90q-81 0 -146.5 16t-111 43t-79 67.5t-53 83t-31 96.5t-15.5 101.5t-4 104.5v528h283v-528q0 -39 2.5 -70.5t12.5 -70t27.5 -64t49 -43t75.5 -17.5q60 0 109 25.5t76 62.5zM367 1354l329 256l133 -187l-356 -221z" />
<glyph unicode="&#xfb;" horiz-adv-x="1198" d="M758 319v705h276v-1024h-188l-25 74q-111 -90 -258 -90q-81 0 -146.5 16t-111 43t-79 67.5t-53 83t-31 96.5t-15.5 101.5t-4 104.5v528h283v-528q0 -39 2.5 -70.5t12.5 -70t27.5 -64t49 -43t75.5 -17.5q60 0 109 25.5t76 62.5zM268 1358l330 256l330 -256l-107 -152 l-223 137l-223 -137z" />
<glyph unicode="&#xfc;" horiz-adv-x="1198" d="M758 319v705h276v-1024h-188l-25 74q-111 -90 -258 -90q-81 0 -146.5 16t-111 43t-79 67.5t-53 83t-31 96.5t-15.5 101.5t-4 104.5v528h283v-528q0 -39 2.5 -70.5t12.5 -70t27.5 -64t49 -43t75.5 -17.5q60 0 109 25.5t76 62.5zM207 1366q0 66 45.5 112t112.5 46 q66 0 110.5 -46t44.5 -112q0 -67 -44.5 -111.5t-110.5 -44.5q-68 0 -113 44.5t-45 111.5zM676 1366q0 66 45.5 112t112.5 46q66 0 110.5 -46t44.5 -112q0 -67 -44.5 -111.5t-110.5 -44.5q-68 0 -113 44.5t-45 111.5z" />
<glyph unicode="&#xfd;" horiz-adv-x="1224" d="M467 82q-62 147 -214 482t-206 460h318l251 -616q44 117 244 616h311l-608 -1432h-289v23zM381 1354l330 256l133 -187l-357 -221z" />
<glyph unicode="&#xfe;" horiz-adv-x="1257" d="M625 -16q-99 0 -185 28v-420h-276v1844h276v-424q86 28 185 28q113 0 203.5 -34.5t146.5 -89t93 -126t52 -140.5t15 -138t-15 -138t-52 -140.5t-93 -126t-146.5 -89t-203.5 -34.5zM440 748v-472q67 -45 168 -45q50 0 91.5 15t68 40t45.5 54.5t29 62.5t14 59.5t4 49.5 t-4 49.5t-14 59.5t-29 62.5t-45.5 54.5t-68 40t-91.5 15q-101 0 -168 -45z" />
<glyph unicode="&#xff;" horiz-adv-x="1185" d="M418 82q-62 147 -214 482t-206 460h317l252 -616q44 117 244 616h311l-608 -1432h-289v23zM201 1366q0 66 45 112t112 46q66 0 111 -46t45 -112q0 -67 -45 -111.5t-111 -44.5q-68 0 -112.5 44.5t-44.5 111.5zM670 1366q0 66 45 112t112 46q66 0 111 -46t45 -112 q0 -67 -45 -111.5t-111 -44.5q-68 0 -112.5 44.5t-44.5 111.5z" />
<glyph unicode="&#x152;" horiz-adv-x="2144" d="M1872 573h-537v-307h686v-266h-974q-121 -23 -211 -23q-114 0 -211.5 25t-169 68t-129.5 102.5t-95 125.5t-62 140t-35.5 143t-10.5 138q0 67 10.5 135.5t35.5 142t62 139t95 125.5t129.5 103t169 68.5t211.5 25.5q103 0 211 -24h974v-267h-686v-327h537v-267zM836 246 q123 0 211 53v834q-92 55 -211 55q-76 0 -138.5 -20t-105 -52t-75 -76t-51 -87t-30 -90t-15 -81t-3.5 -63t3.5 -63t15 -81.5t30 -91t51 -88t75 -76.5t105 -52.5t138.5 -20.5z" />
<glyph unicode="&#x153;" horiz-adv-x="1894" d="M1794 465h-641q13 -97 71.5 -161t153.5 -64q134 0 256 92l135 -187q-96 -79 -189 -118t-202 -39q-230 0 -374 151q-146 -157 -371 -157q-113 0 -203.5 34.5t-146.5 88.5t-93 125.5t-52 141t-15 140.5q0 69 15 138t52 141.5t93 127.5t146.5 90t203.5 35q236 0 373 -151 q135 145 372 145q201 0 312.5 -119t111.5 -321q0 -43 -8 -133zM633 229q56 0 98.5 21.5t66.5 52t40 71.5t21.5 73t6.5 65q2 39 -8 83.5t-33.5 92t-73 78.5t-118.5 31q-58 0 -103 -23.5t-69 -56.5t-39.5 -75t-20 -73t-4.5 -57t4.5 -57t20 -72.5t39.5 -74.5t69 -56t103 -23z M1378 791q-83 0 -137.5 -44t-79.5 -118h367q-4 160 -150 162z" />
<glyph unicode="&#x178;" horiz-adv-x="1386" d="M838 641v-641h-289v637l-488 797h320l311 -521l312 521h321zM301 1776q0 66 45.5 111.5t112.5 45.5q66 0 110.5 -45.5t44.5 -111.5q0 -67 -44.5 -111.5t-110.5 -44.5q-68 0 -113 44.5t-45 111.5zM770 1776q0 66 45.5 111.5t112.5 45.5q66 0 110.5 -45.5t44.5 -111.5 q0 -67 -44.5 -111.5t-110.5 -44.5q-68 0 -113 44.5t-45 111.5z" />
<glyph unicode="&#x2c6;" horiz-adv-x="1060" d="M209 1358l330 256l329 -256l-106 -152l-223 137l-224 -137z" />
<glyph unicode="&#x2dc;" horiz-adv-x="1095" d="M743 1505l168 -88q-95 -209 -272 -209q-47 0 -103.5 35t-89.5 35q-64 0 -102 -80l-160 74q19 63 50.5 108.5t69.5 68.5t73 32.5t72 9.5q42 0 79 -16.5t65 -33t50 -16.5q55 0 100 80z" />
<glyph unicode="&#x2000;" horiz-adv-x="1014" />
<glyph unicode="&#x2001;" horiz-adv-x="2028" />
<glyph unicode="&#x2002;" horiz-adv-x="1014" />
<glyph unicode="&#x2003;" horiz-adv-x="2028" />
<glyph unicode="&#x2004;" horiz-adv-x="676" />
<glyph unicode="&#x2005;" horiz-adv-x="507" />
<glyph unicode="&#x2006;" horiz-adv-x="338" />
<glyph unicode="&#x2007;" horiz-adv-x="338" />
<glyph unicode="&#x2008;" horiz-adv-x="253" />
<glyph unicode="&#x2009;" horiz-adv-x="405" />
<glyph unicode="&#x200a;" horiz-adv-x="112" />
<glyph unicode="&#x2010;" horiz-adv-x="913" d="M164 723h586v-236h-586v236z" />
<glyph unicode="&#x2011;" horiz-adv-x="913" d="M164 723h586v-236h-586v236z" />
<glyph unicode="&#x2012;" horiz-adv-x="913" d="M164 723h586v-236h-586v236z" />
<glyph unicode="&#x2013;" horiz-adv-x="1126" d="M965 535h-801v231h801v-231z" />
<glyph unicode="&#x2014;" horiz-adv-x="1376" d="M1212 535h-1048v231h1048v-231z" />
<glyph unicode="&#x2018;" horiz-adv-x="598" d="M332 1477l143 -70q-32 -54 -67 -135t-48 -127q111 -36 111 -160q0 -71 -47.5 -119.5t-118.5 -48.5q-94 0 -138 53.5t-44 130.5q0 93 70.5 241.5t138.5 234.5z" />
<glyph unicode="&#x2019;" horiz-adv-x="598" d="M266 817l-143 70q32 54 67 135t48 127q-111 36 -111 160q0 71 47.5 119.5t118.5 48.5q94 0 138 -54t44 -131q0 -93 -70 -241t-139 -234z" />
<glyph unicode="&#x201a;" horiz-adv-x="679" d="M307 -344l-143 70q32 54 67 135t48 127q-111 36 -111 159q0 71 47.5 119.5t118.5 48.5q94 0 138 -53.5t44 -130.5q0 -93 -70 -241t-139 -234z" />
<glyph unicode="&#x201c;" horiz-adv-x="1071" d="M332 1477l143 -70q-32 -54 -67 -135t-48 -127q111 -36 111 -160q0 -71 -47.5 -119.5t-118.5 -48.5q-94 0 -138 53.5t-44 130.5q0 93 70.5 241.5t138.5 234.5zM805 1477l143 -70q-32 -54 -66.5 -135t-47.5 -127q110 -35 110 -160q0 -71 -47.5 -119.5t-118.5 -48.5 q-94 0 -138 53.5t-44 130.5q0 93 70.5 241.5t138.5 234.5z" />
<glyph unicode="&#x201d;" horiz-adv-x="1071" d="M739 817l-143 70q32 54 67 135t48 127q-111 36 -111 160q0 71 47.5 119.5t118.5 48.5q94 0 138 -54t44 -131q0 -93 -70 -241t-139 -234zM266 817l-143 70q32 54 67 135t48 127q-111 36 -111 160q0 71 47.5 119.5t118.5 48.5q94 0 138 -54t44 -131q0 -93 -70 -241 t-139 -234z" />
<glyph unicode="&#x201e;" horiz-adv-x="1114" d="M307 -344l-143 70q32 54 67 135t48 127q-111 36 -111 159q0 71 47.5 119.5t118.5 48.5q94 0 138 -53.5t44 -130.5q0 -93 -70 -241t-139 -234zM823 -344l-143 70q32 54 67 135t48 127q-111 36 -111 159q0 71 47.5 119.5t118.5 48.5q94 0 138 -53.5t44 -130.5 q0 -93 -70 -241t-139 -234z" />
<glyph unicode="&#x2022;" horiz-adv-x="862" d="M426 330q-103 0 -182.5 80t-79.5 184q0 108 79.5 190t182.5 82q113 0 192.5 -81t79.5 -191q0 -106 -79.5 -185t-192.5 -79z" />
<glyph unicode="&#x2026;" horiz-adv-x="1597" d="M164 158q0 71 51 121.5t121 50.5q71 0 120.5 -50t49.5 -122q0 -70 -50 -120t-120 -50t-121 50t-51 120zM668 158q0 71 51 121.5t121 50.5q71 0 120.5 -50t49.5 -122q0 -70 -50 -120t-120 -50t-121 50t-51 120zM1174 158q0 71 51 121.5t121 50.5q71 0 120.5 -50t49.5 -122 q0 -70 -50 -120t-120 -50t-121 50t-51 120z" />
<glyph unicode="&#x202f;" horiz-adv-x="405" />
<glyph unicode="&#x2039;" horiz-adv-x="655" d="M360 524l234 -293l-150 -131l-383 410v27l383 407l150 -131z" />
<glyph unicode="&#x203a;" horiz-adv-x="655" d="M61 231l234 293l-234 289l150 131l383 -407v-27l-383 -410z" />
<glyph unicode="&#x205f;" horiz-adv-x="507" />
<glyph unicode="&#x20ac;" horiz-adv-x="1196" d="M78 956h129q21 100 60 182.5t100 149.5t151 104.5t201 37.5q221 0 395 -201l-174 -174q-54 57 -113.5 89t-107.5 32q-179 0 -236 -220h381l-55 -194h-352v-39q-3 -31 0 -70h295l-52 -194h-204q32 -99 88 -160t135 -61q50 0 111.5 31t113.5 87l168 -168 q-90 -102 -184.5 -152t-208.5 -50q-111 0 -200.5 38t-150 105.5t-99 149t-60.5 180.5h-189l58 194h106v74v35h-164z" />
<glyph unicode="&#x2122;" horiz-adv-x="1349" d="M223 1006v389h-131v155h426v-155h-131v-389h-164zM899 999h-25l-118 222l-66 -215h-170l211 542h14l144 -252l135 252h16l217 -542h-165l-74 221z" />
<glyph unicode="&#x25fc;" horiz-adv-x="1024" d="M0 1024h1024v-1024h-1024v1024z" />
</font>
</defs>
</svg>
